<?xml version="1.0" encoding="utf-8" ?>
<svg xmlns="http://www.w3.org/2000/svg" xmlns:xlink="http://www.w3.org/1999/xlink" width="744" height="500">
	<path fill="#C8102D" d="M0 0L0.448628 0L83.5189 0L309.649 0L334.916 0L409.054 0L434.364 0L659.639 0L687.982 0L743.065 0L743.649 0C744.493 2.9046 744.329 53.7852 743.532 55.6294C743.871 56.4126 743.959 57.0465 743.98 57.887C744.608 83.3605 744.019 109.599 744.012 135.148C744.01 139.29 744.557 163.186 743.782 165.623C743.687 165.92 743.541 166.196 743.384 166.463C743.698 166.963 743.889 167.432 743.941 168.028C744.263 171.708 744.481 196.057 743.903 198.578C743.794 199.052 743.623 199.458 743.372 199.871C743.872 200.679 743.952 201.372 743.978 202.302C744.196 210.15 744.009 218.057 744.011 225.91L744.01 271.487L744.003 291.086C744.002 293.465 744.389 296.561 743.905 298.834C743.804 299.313 743.627 299.715 743.373 300.127C743.689 300.645 743.886 301.139 743.94 301.751C744.265 305.453 744.485 329.737 743.904 332.297C743.799 332.758 743.628 333.147 743.38 333.545C743.895 334.402 743.946 335.07 743.976 336.053C744.24 344.774 744.011 353.572 744.013 362.3L744.014 413.283C744.013 417.824 744.653 440.768 743.803 443.706C743.734 443.944 743.615 444.164 743.51 444.386C744.341 446.295 744.459 460.6 743.596 462.7C743.569 462.766 743.534 462.829 743.503 462.893C744.466 465.105 744.49 497.667 743.63 500L743.014 500L659.648 500L434.362 500L409.083 500L334.922 500L309.636 500L83.5677 500L55.2679 500L0.445982 500L0 500L0 444.521L0 333.469L0 300.091L0 199.909L0 166.515L0 55.4633L0 36.9966L0 0Z"/>
	<path fill="#FEFEFE" d="M0 0L0.448628 0L83.5189 0L309.649 0L334.916 0L334.893 199.899L0 199.909L0 166.515L0 55.4633L0 36.9966L0 0Z"/>
	<path fill="#C8102D" d="M0 0L0.448628 0L0.756957 0.254855C3.46986 2.46845 6.64919 4.12967 9.55984 6.07463C12.7914 8.23403 15.6982 10.8552 18.9368 13.001C22.9611 15.6673 27.3142 17.8355 31.3054 20.5505L82.1312 54.6382C84.8862 56.4851 87.1517 59.0427 89.9143 60.8706L189.622 127.837L221.717 149.059C224.989 151.216 228.479 153.06 231.703 155.282C234.907 157.491 237.762 160.174 240.966 162.38C242.541 163.464 247.212 165.26 248.041 166.691C240.334 167.047 231.903 166.552 224.082 166.554C214.748 166.556 205.236 167.021 195.933 166.717C194.703 166.676 193.336 166.569 192.17 166.168C187.06 164.407 182.223 159.675 177.755 156.605L150.017 137.678L98.1242 102.795C94.5491 100.435 90.5464 98.6914 87.0269 96.2564C84.2893 94.3624 81.947 91.9156 79.1987 90.0317C72.662 85.5508 65.6812 81.5503 59.0552 77.159C55.102 74.539 51.4706 71.4699 47.4854 68.8867C43.8405 66.5241 39.9269 64.5388 36.3489 62.083C33.4878 60.1191 30.9004 57.7731 28.0685 55.7692C23.8795 52.8049 19.3024 50.3277 15.028 47.459C9.983 44.0732 5.11533 40.2367 0 36.9966L0 0Z"/>
	<path fill="#00216A" d="M0 55.4633C5.10461 59.801 10.5682 62.9364 16.137 66.6061C19.5732 68.8705 23.1818 70.9879 26.5402 73.3521C29.5683 75.4837 32.3951 77.8852 35.4871 79.9322C39.4904 82.5826 43.8143 84.7825 47.7584 87.5043C50.6414 89.4939 53.2714 91.8272 56.1371 93.8361C60.1784 96.6691 64.5455 99.1019 68.6635 101.844C74.4919 105.724 80.1006 109.906 85.9071 113.8C89.9711 116.526 94.3325 118.805 98.3701 121.553C101.215 123.49 103.712 125.911 106.561 127.834C109.885 130.078 113.445 131.977 116.803 134.186L147.232 154.415C150.526 156.567 153.41 159.282 156.628 161.538C159.499 163.551 162.705 165.044 165.67 166.919C158.433 166.203 151.042 166.492 143.772 166.494L109.507 166.512L0 166.515L0 55.4633Z"/>
	<path fill="#00216A" d="M83.5189 0L309.649 0C309.203 25.9387 309.625 51.9656 309.618 77.9145C309.611 102.697 309.153 127.571 309.704 152.343L165.821 55.138L115.125 21.1154C111.501 18.6937 107.628 16.6382 103.967 14.2688C100.607 12.0943 97.5127 9.55252 94.2349 7.26211C90.6923 4.78675 87.014 2.55849 83.5189 0Z"/>
	<path fill="#FEFEFE" d="M409.054 0L434.364 0L659.639 0L687.982 0L743.065 0L743.649 0C744.493 2.9046 744.329 53.7852 743.532 55.6294C743.871 56.4126 743.959 57.0465 743.98 57.887C744.608 83.3605 744.019 109.599 744.012 135.148C744.01 139.29 744.557 163.186 743.782 165.623C743.687 165.92 743.541 166.196 743.384 166.463C743.698 166.963 743.889 167.432 743.941 168.028C744.263 171.708 744.481 196.057 743.903 198.578C743.794 199.052 743.623 199.458 743.372 199.871C731.792 200.495 718.84 199.906 707.12 199.906L633.68 199.904L409.095 199.9C408.844 177.477 409.076 155.023 409.075 132.598L409.054 0Z"/>
	<path fill="#00216A" d="M743.532 55.6294C743.871 56.4126 743.959 57.0465 743.98 57.887C744.608 83.3605 744.019 109.599 744.012 135.148C744.01 139.29 744.557 163.186 743.782 165.623C743.687 165.92 743.541 166.196 743.384 166.463C737.554 166.736 731.621 166.526 725.779 166.525L692.787 166.516Q635.26 165.937 577.739 166.935C581.121 165.25 584.572 163.601 587.659 161.405C590.763 159.197 593.571 156.572 596.762 154.481L628.007 133.718C631.123 131.671 634.434 129.932 637.523 127.859C640.449 125.895 642.998 123.395 645.929 121.426L717.778 73.1975C723.623 69.2211 739.985 60.0629 743.532 55.6294Z"/>
	<path fill="#C8102D" d="M687.982 0L743.065 0C742.969 0.307346 742.976 0.354691 742.758 0.657632C741.251 2.75073 736.598 4.69111 734.332 6.25124C731.31 8.33096 728.543 10.769 725.507 12.8317C721.731 15.3966 717.644 17.5005 713.824 20.0034C710.444 22.2185 707.471 24.9601 704.143 27.2323C697.777 31.5787 691.017 35.4647 684.592 39.7504L603.289 94.9999C599.723 97.3773 595.945 99.4263 592.38 101.819C585.491 106.442 578.841 111.417 571.891 115.951C568.359 118.254 564.452 120.138 561.011 122.53C558.813 124.058 557.07 126.225 554.859 127.725C551.479 130.016 547.745 131.874 544.304 134.099C537.223 138.676 530.473 143.75 523.466 148.438C519.789 150.898 515.874 152.98 512.204 155.441C507.375 158.678 503.592 163.094 498.082 165.353C492.356 167.701 483.959 166.624 477.815 166.611L455.66 166.566C450.583 166.557 445.439 166.384 440.381 166.865C443.227 164.54 446.599 162.903 449.664 160.884L471.384 146.364C474.471 144.259 477.174 141.612 480.275 139.529C486.585 135.292 493.27 131.545 499.595 127.32L672.696 11.1863C676.43 8.65326 679.284 5.4289 683.314 3.18571C684.608 2.46549 687.4 1.25296 687.982 0Z"/>
	<path fill="#00216A" d="M434.364 0L659.639 0C659.456 0.880802 658.822 1.32905 658.116 1.85789C655.887 3.52727 653.338 4.85937 651.021 6.41423L628.859 21.1711C625.879 23.1862 623.241 25.6775 620.279 27.718C616.241 30.5004 611.862 32.8992 607.758 35.6168C601.595 39.6982 595.663 44.0867 589.532 48.2029L434.249 152.468C434.683 146.796 434.361 140.877 434.358 135.18L434.351 102.598L434.364 0Z"/>
	<path fill="#FEFEFE" d="M0 300.091L219.989 300.067L295.505 300.07C308.627 300.07 321.779 299.87 334.896 300.102L334.922 500L309.636 500L83.5677 500L55.2679 500L0.445982 500L0 500L0 444.521L0 333.469L0 300.091Z"/>
	<path fill="#00216A" d="M165.265 333.173C162.847 335.311 159.657 336.273 157.014 338.084L135.124 353.168L47.1184 412.907C43.2814 415.464 39.1555 417.57 35.3285 420.143C31.7555 422.544 28.5092 425.419 24.8786 427.729C16.5355 433.038 7.50564 438.086 0 444.521L0 333.469L107.729 333.5L142.428 333.499C150.032 333.499 157.676 333.688 165.265 333.173Z"/>
	<path fill="#C8102D" d="M303.565 333.141C300.754 335.737 296.999 337.443 293.813 339.565C290.61 341.698 287.745 344.319 284.547 346.468C281.111 348.778 277.395 350.633 273.937 352.903L223.096 386.98L172.442 421.068C169.474 423.092 166.836 425.577 163.85 427.568L133.226 448.071C129.357 450.606 125.143 452.691 121.353 455.324C118.743 457.137 116.553 459.542 113.925 461.325C110.774 463.462 107.297 465.148 104.1 467.243L72.4721 488.239C69.5446 490.153 66.9367 492.545 64.1171 494.612C61.3307 496.654 58.2789 498.319 55.2679 500L0.445982 500C3.29392 497.547 6.61446 495.803 9.72232 493.714L30.6496 479.804L80.993 446.067L203.676 363.316L232.064 344.461C237.088 341.065 240.976 336.466 246.847 334.326C252.062 332.426 260.019 333.405 265.599 333.42C277.745 333.454 291.574 334.234 303.565 333.141Z"/>
	<path fill="#00216A" d="M309.779 347.66C309.374 353.875 309.616 360.213 309.618 366.442L309.622 399.302L309.636 500L83.5677 500C87.0336 497.443 90.6857 495.255 94.2053 492.796C97.5784 490.439 100.737 487.804 104.205 485.577C108.171 483.03 112.343 480.796 116.295 478.232C118.815 476.596 120.777 474.21 123.259 472.534C128.08 469.277 133.261 466.438 138.131 463.199C144.014 459.285 149.631 454.939 155.555 451.107C159.001 448.878 162.722 447.019 166.11 444.717L265.888 377.731C268.42 376.053 270.464 373.71 272.958 371.976C277.067 369.119 281.624 366.84 285.807 364.065C293.874 358.713 301.636 352.928 309.779 347.66Z"/>
	<path fill="#FEFEFE" d="M409.064 300.097C428.758 299.834 448.488 300.07 468.187 300.07L582.649 300.069L686.871 300.068C705.696 300.067 724.552 299.824 743.373 300.127C743.689 300.645 743.886 301.139 743.94 301.751C744.265 305.453 744.485 329.737 743.904 332.297C743.799 332.758 743.628 333.147 743.38 333.545C743.895 334.402 743.946 335.07 743.976 336.053C744.24 344.774 744.011 353.572 744.013 362.3L744.014 413.283C744.013 417.824 744.653 440.768 743.803 443.706C743.734 443.944 743.615 444.164 743.51 444.386C744.341 446.295 744.459 460.6 743.596 462.7C743.569 462.766 743.534 462.829 743.503 462.893C744.466 465.105 744.49 497.667 743.63 500L743.014 500L659.648 500L434.362 500L409.083 500L409.064 300.097Z"/>
	<path fill="#C8102D" d="M494.936 333.116C501.045 333.614 507.2 333.475 513.324 333.47C525.088 333.459 536.903 333.179 548.661 333.415C551.748 333.477 553.19 334.251 555.776 335.875C559.56 338.252 563.061 341.123 566.756 343.643L594.143 362.328C597.989 365.002 602.242 367.15 606.17 369.72C609.634 371.987 612.746 374.723 616.173 377.018C622.473 381.237 629.034 385.084 635.35 389.271C638.423 391.308 641.204 393.783 644.218 395.908C648.075 398.628 652.336 400.734 656.267 403.345C659.688 405.618 662.746 408.405 666.169 410.667L716.544 444.551C723.317 449.092 738.141 457.293 743.503 462.893C744.466 465.105 744.49 497.667 743.63 500L743.014 500C742.996 499.931 742.987 499.858 742.959 499.792C742.852 499.537 726.114 487.613 724.785 486.751C720.825 484.182 716.623 481.991 712.711 479.345C709.767 477.355 707.13 474.95 704.213 472.926C697.943 468.573 691.193 464.721 684.808 460.506C681.485 458.311 678.418 455.73 675.143 453.464C671.956 451.258 668.546 449.394 665.243 447.37C661.323 444.967 658 441.831 654.213 439.265L624.523 419.469L541.382 364.05C535.208 359.871 529.201 355.446 522.984 351.33C519.514 349.033 515.802 347.09 512.373 344.742C509.453 342.741 506.828 340.314 503.953 338.247C501.13 336.218 498.039 334.661 494.936 333.116Z"/>
	<path fill="#00216A" d="M577.525 333.15C584.595 333.632 591.708 333.491 598.79 333.494L628.957 333.5C667.069 333.5 705.277 332.926 743.38 333.545C743.895 334.402 743.946 335.07 743.976 336.053C744.24 344.774 744.011 353.572 744.013 362.3L744.014 413.283C744.013 417.824 744.653 440.768 743.803 443.706C743.734 443.944 743.615 444.164 743.51 444.386C741.184 440.757 722.767 430.241 717.855 426.859C714.43 424.5 711.296 421.775 707.792 419.512C704.115 417.137 700.22 415.094 696.591 412.647L596.539 345.344C592.92 342.925 589.747 339.885 586.072 337.547C583.357 335.82 580.484 334.406 577.525 333.15Z"/>
	<path fill="#00216A" d="M434.227 347.532L578.251 444.87L629.261 479.076L651.177 493.665C653.747 495.386 657.598 497.119 659.56 499.477L659.648 500L434.362 500L434.351 395.611L434.364 363.704C434.369 358.41 434.796 352.768 434.227 347.532Z"/>
</svg>
