<?xml version="1.0" encoding="utf-8" ?>
<svg xmlns="http://www.w3.org/2000/svg" xmlns:xlink="http://www.w3.org/1999/xlink" width="1280" height="380">
	<path fill="#FBFEFE" d="M0 0L1278.91 0C1281.16 3.52358 1280.01 68.3426 1280.01 76.669L1280.01 297.452L1280 354.626C1280.01 361.619 1281.07 371.553 1279.72 378.092C1279.58 378.799 1279.31 379.406 1278.91 380L0 380L0 0Z"/>
	<path fill="#B5DAEB" d="M93.2471 139.572C94.645 139.638 95.7674 139.825 97.0847 140.302C97.892 141.738 97.6881 142.364 97.5524 144.012C96.3121 144.271 95.3201 144.279 94.0625 144.139C92.9798 142.766 93.284 141.283 93.2471 139.572Z"/>
	<path fill="#B5DAEB" d="M915.477 177.811C916.273 177.637 917.226 177.402 918.039 177.525C919.272 177.711 920.065 178.335 920.808 179.288C920.505 180.829 920.156 180.833 918.934 181.739C917.721 181.93 917.385 181.684 916.276 181.216C915.456 179.812 915.431 179.431 915.477 177.811Z"/>
	<path d="M1100.02 187.812C1100.59 187.707 1101.23 187.561 1101.82 187.59C1103.19 187.658 1103.75 188.336 1104.67 189.234C1104.61 190.909 1104.45 191.041 1103.35 192.298C1102.99 192.611 1102.34 192.835 1101.9 193.045L1100.62 192.391C1099.76 190.706 1099.72 189.666 1100.02 187.812Z"/>
	<path fill="#B5DAEB" d="M636.461 177.185C637.267 177.104 638.161 176.99 638.966 177.083C640.538 177.266 641.134 177.674 641.99 178.886C641.784 180.273 641.177 180.857 640.192 181.8L639.081 182.489L637.821 182.17C636.648 180.702 636.634 178.98 636.461 177.185Z"/>
	<path fill="#E3F0F3" d="M860.571 65.1969C860.91 67.3321 862.181 68.2415 863.688 69.7255C860.595 70.2951 854.863 68.5932 851.623 68.0262Q856.118 66.6766 860.571 65.1969Z"/>
	<path fill="#B5DAEB" d="M88.1203 198.438C90.0305 198.604 91.712 198.609 93.2336 199.926C93.7555 201.562 93.6379 202.067 93.2658 203.745C91.758 204.062 90.621 204.15 89.0994 203.886C87.8475 202.115 88.1698 200.57 88.1203 198.438Z"/>
	<path fill="#B5DAEB" d="M273.114 291.042C274.959 290.972 276.735 290.739 278.372 291.757C279.27 293.324 278.614 295.073 278.233 296.721C276.757 296.773 275.806 296.633 274.448 296.045C273.101 294.686 273.217 292.836 273.114 291.042Z"/>
	<path fill="#B5DAEB" d="M444.408 224.68C445.557 224.54 446.398 224.662 447.516 224.932C448.767 226.014 449.051 226.105 449.296 227.741C448.383 229.173 447.921 229.345 446.385 230.076C445.758 230.379 444.917 230.255 444.223 230.251L443.375 229.24C443.212 227.008 443.349 226.664 444.408 224.68Z"/>
	<path fill="#B5DAEB" d="M293.191 184.275C294.352 184.31 295.773 184.256 296.892 184.553C298.4 184.953 298.886 185.74 299.6 187C299.59 188.753 299.187 189.815 298.361 191.349C297.249 191.363 296.043 191.437 294.942 191.293C293.406 191.093 292.912 190.717 291.971 189.571C291.794 187.595 292.478 186.066 293.191 184.275Z"/>
	<path fill="#B5DAEB" d="M470.869 173.433C473.066 173.326 473.869 173.593 475.69 174.713C476.532 176.207 476.566 176.359 476.371 178.062C475.37 179.745 474.299 180.18 472.556 180.845C470.901 180.481 470.13 179.738 468.978 178.534C468.669 177.804 468.342 177.087 468.461 176.278C468.704 174.634 469.592 174.367 470.869 173.433Z"/>
	<path fill="#B5DAEB" d="M330.231 270.421C331.371 270.602 332.988 270.896 333.941 271.554C335.26 272.467 335.458 273.454 335.775 274.895C335.356 276.716 334.802 277.757 333.555 279.147C332.23 279.002 330.249 278.907 329.201 277.972C327.771 276.697 327.621 275.906 327.442 274.128C328.043 272.348 328.739 271.544 330.231 270.421Z"/>
	<path fill="#B5DAEB" d="M166.577 243.04C167.968 243.042 169.805 243.012 171.105 243.494C172.776 244.115 173.168 244.934 173.852 246.422C173.897 248.539 173.212 249.782 172.184 251.54C171.294 251.713 170.293 251.943 169.382 251.942C167.761 251.939 167.108 251.375 166.051 250.287C165.296 247.853 166.053 245.456 166.577 243.04Z"/>
	<path fill="#B5DAEB" d="M318.833 206.108C320.493 206.097 322.32 206.029 323.833 206.814C325.507 207.682 325.796 208.544 326.31 210.211C326.154 212.328 325.23 213.451 323.961 215.034C322.281 215.233 321.018 215.198 319.381 214.754C318.57 214.026 317.923 213.61 317.575 212.537C316.872 210.367 317.854 208.021 318.833 206.108Z"/>
	<path d="M1167.14 180.312C1168.37 180.114 1169.79 179.821 1171.04 179.935C1172.6 180.077 1173.58 181.013 1174.56 182.146C1174.83 183.364 1175.07 183.915 1174.55 185.113C1173.74 186.988 1171.89 187.689 1170.13 188.382C1170.02 188.445 1169.92 188.518 1169.8 188.57C1168.69 189.08 1166.99 189.315 1165.88 188.741C1165.04 187.495 1164.81 187.007 1164.73 185.459C1164.62 183.143 1165.69 181.937 1167.14 180.312Z"/>
	<path fill="#E3F0F3" d="M692.29 36.5949C699.512 37.1557 724.672 41.3102 730.753 44.276C732.897 46.5996 738.206 46.4196 741.453 47.5624L741.094 47.9263C737.849 47.5659 731.445 45.6377 728.698 47.3888Q715.728 45.0358 703.275 40.7146C699.565 39.4209 696.068 37.7235 692.29 36.5949Z"/>
	<path fill="#D6EDF6" d="M730.753 44.276C734.651 44.7561 769.507 49.0879 769.793 49.3475C769.713 49.3961 769.635 49.447 769.555 49.4933C766.556 51.2109 759.252 48.9973 755.489 49.5357C755.986 50.5278 756.241 50.9379 757.334 51.3016C760.219 52.2619 767.758 50.33 769.63 52.9118C769.666 52.9619 769.687 53.0217 769.716 53.0766C760.176 54.1262 739.355 48.9104 728.698 47.3888C731.445 45.6377 737.849 47.5659 741.094 47.9263L741.453 47.5624C738.206 46.4196 732.897 46.5996 730.753 44.276Z"/>
	<path fill="#ECF0C2" d="M1002.98 56.1601C1005.18 57.388 1010.6 64.7948 1011.3 67.233C1011.59 68.2622 1011.9 69.4484 1011.78 70.5159C1016.58 73.0725 1019.88 76.8844 1024.22 79.9199C1037.75 89.3722 1048.79 83.5927 1062.97 81.8763C1062.45 82.9277 1056 86.7855 1054.55 87.2946C1051.46 88.3746 1044.42 87.4667 1042.57 89.0188C1047.59 89.9957 1052.79 87.0746 1058 88.8576C1052.95 90.5279 1044.62 90.5494 1039.17 90.517L1040.01 89.4551C1037.4 85.8678 1028.05 85.8904 1024.13 83.6371C1014.16 77.9072 1007.09 70.0192 1004.14 58.8688C1002.29 59.3464 1000.62 59.6948 998.695 59.7509L998.626 59.173C1000.46 58.8398 1001.92 59.3914 1003.34 58.1021L1002.98 56.1601Z"/>
	<path fill="#B5DAEB" d="M189.437 211.928C190.944 211.679 192.78 211.499 194.302 211.689C196.669 211.986 198.871 213.401 200.294 215.287C201.804 217.29 202.36 219.676 201.916 222.144C201.323 225.439 199.445 227.74 196.737 229.571C195.099 229.779 193.195 229.832 191.56 229.563C189.012 229.143 186.943 227.818 185.481 225.686C184.141 223.733 183.694 221.444 184.175 219.135C184.911 215.601 186.506 213.85 189.437 211.928Z"/>
	<path fill="#ECF0C2" d="M1069.13 52.5973C1068.78 52.4517 1068.93 52.4936 1068.57 52.4157C1067.9 52.27 1067.23 52.1295 1066.57 51.9491C1064.82 51.4706 1063.53 50.6413 1062.64 49.0699L1063.49 48.2972C1067.76 47.8484 1070.2 48.2318 1074.09 50.0828C1076.99 50.9497 1079.91 50.7319 1082.9 50.6206L1082.98 50.9416C1086.16 51.1022 1090.01 50.8943 1092.99 52.0319L1093.3 52.9388L1092.24 54.4048C1109.66 54.3963 1130.27 47.8636 1147.37 49.2392C1146.38 50.2335 1145.41 50.6243 1144.04 50.8485C1137.33 51.945 1129.64 51.4671 1122.76 52.0133C1118.11 52.3822 1113.65 53.5848 1109.01 54.0798C1101.04 54.9298 1092.92 55.143 1085 56.1824C1084.24 56.2821 1080.83 57.0114 1080.42 57.4891C1080.19 57.748 1079.95 58.4855 1079.8 58.8183C1080.29 59.7447 1080.39 60.1156 1081.48 60.4538C1086.8 62.12 1116.75 56.0674 1124.63 54.6558C1127.32 54.1741 1130.99 52.7646 1133.66 53.1592C1123.44 58.0552 1083.13 60.0826 1079.12 63.8511L1078.91 62.9329L1076.62 62.7928L1076.09 62.1931L1078.82 61.1821C1078.96 59.9167 1077.99 59.0686 1077.91 57.4331L1079.35 56.7531L1079.22 55.6376C1076.5 53.4552 1072.57 52.5276 1069.13 52.5973Z"/>
	<path fill="#E3F0F3" d="M1082.98 50.9416C1086.16 51.1022 1090.01 50.8943 1092.99 52.0319L1093.3 52.9388L1092.24 54.4048C1090.71 55.628 1086.05 55.6415 1084.02 55.3769C1082.41 55.1674 1081.71 54.9517 1080.74 53.667C1081.35 52.216 1081.73 51.9049 1082.98 50.9416Z"/>
	<path d="M147.652 191.509Q152.787 191.24 157.929 191.161Q163.071 191.081 168.212 191.191Q173.354 191.3 178.488 191.599Q183.621 191.897 188.741 192.385Q193.86 192.872 198.958 193.547Q204.056 194.222 209.126 195.084Q214.195 195.946 219.23 196.994Q224.264 198.042 229.257 199.275C235.477 200.771 241.354 203.227 247.561 204.673L246.657 204.131L246.159 204.634C234.472 202.626 222.939 200.941 211.11 199.969C203.326 198.998 195.635 197.335 187.846 196.404C171.417 194.441 152.374 193.526 135.853 194.211C126.962 194.579 118.238 198.396 109.34 198.371C113.981 194.461 140.233 192.21 147.652 191.509Z"/>
	<path fill="#D6EDF6" d="M785.485 151.187Q794.685 149.195 803.926 147.407C802.615 149.257 800.639 149.42 798.488 149.786C796.309 150.157 790.814 150.365 789.461 151.874C790.44 153.343 791.725 153.747 791.442 155.573C788.294 159.078 752.234 160.537 751.176 166.849L752.082 167.561L752.081 166.758C757.459 166.288 765.838 167.079 770.392 164.421L771.094 161.361L771.466 161.591L771.668 163.564C775.995 163.512 779.215 157.701 783.956 159.275C785.245 161.056 784.246 165.43 785.876 165.728C789.065 164.146 795.171 160.047 798.478 160.27L799.054 161.249C801.458 160.437 803.673 159.309 806.12 158.595C802.248 157.399 798.002 160.504 794.697 157.78C794.337 156.336 794.393 156.09 795.032 154.746C796.703 153.379 798.172 152.934 800.215 152.42L801.097 152.652C798.891 153.614 796.928 154.182 795.09 155.799L794.977 156.631C797.737 158.618 806.056 157.201 809.412 156.649C812.88 156.078 818.641 152.39 821.971 153.723C819.179 156.59 805.485 158.407 800.356 162.123L800.492 162.752C809.536 164.065 823.878 155.901 827.079 156.661C822.372 159.979 816.778 162.345 811.233 163.866C807.794 164.808 788.771 166.992 787.562 168.121L786.938 168.059L787.657 167.065C791.067 167.019 794.659 166.261 797.189 163.763C797.715 163.244 798.14 162.604 798.517 161.972L797.199 161.307C790.026 164.699 769.887 174.844 762.809 172.12C762.722 172.086 762.637 172.05 762.55 172.015C762.712 171.76 762.926 171.239 763.215 171.176C766.655 170.426 769.023 172.724 771.802 169.67C770.721 168.91 767.983 169.693 767.558 168.878L770.702 167.379C771.356 167.062 771.936 166.518 772.503 166.066C771.464 165.187 770.359 165.528 769.038 165.574C763.465 167.635 758.231 167.144 752.499 168.188C745.888 169.393 739.471 171.381 732.813 172.49C732.892 172.456 732.971 172.423 733.049 172.389C738.911 169.792 747.508 160.917 752.906 160.162C754.591 159.927 754.891 161.439 756.148 162.376C760.302 161.433 788.824 156.07 790.13 155.15L789.951 154.161C788.295 152.365 787.949 151.745 785.485 151.187Z"/>
	<path fill="#E3F0F3" d="M769.038 165.574C772.479 164.405 780.069 159.248 783.286 160.48C784.273 161.743 784.416 161.879 784.382 163.489C783.562 164.282 783.265 164.784 782.055 164.774C780.977 164.765 780.102 164.046 779.126 163.941C777.077 163.722 775.975 166.167 774.432 166.859C773.579 167.241 771.69 167.241 770.702 167.379C771.356 167.062 771.936 166.518 772.503 166.066C771.464 165.187 770.359 165.528 769.038 165.574Z"/>
	<path fill="#F9F6B7" d="M1008.7 22.9656C1017.04 13.1603 1025.75 6.88157 1039.06 5.79729C1050.72 4.84682 1060.47 7.37878 1069.5 15.037C1077.19 21.5592 1083.05 31.3955 1083.83 41.5942C1084.01 44.0389 1084.48 48.5736 1082.9 50.6206C1079.91 50.7319 1076.99 50.9497 1074.09 50.0828L1076.77 49.6671C1077.11 49.1834 1077.25 48.7888 1077.32 48.2077C1077.74 44.9895 1077.23 36.6326 1075.23 34.0941C1075.15 33.8336 1075.05 33.6059 1074.88 33.3881C1072.54 30.4419 1071.1 26.9326 1068.77 23.9847C1063.82 17.7168 1054.15 13.5846 1046.36 12.7305C1039.59 11.9874 1025.92 15.4899 1020.73 20.1287C1019.25 21.4489 1019.36 23.1003 1019.16 24.9053L1008.7 22.9656Z"/>
	<path fill="#D6EDF6" d="M746.012 71.3386C753.252 70.8049 785.349 72.5753 790.034 69.939C789.734 69.1688 787.908 67.9359 787.925 67.5667C792.598 65.985 797.703 67.9865 802.515 67.4902C804.156 67.321 806.516 66.2868 808.036 67.0221C808.102 67.0542 808.164 67.0938 808.229 67.1296C804.172 70.5916 797.438 67.9094 793.541 71.5962C794.124 72.5543 794.5 73.3689 795.717 73.6104C800.418 74.5434 806.793 71.3414 811.015 73.7799C809.807 75.4485 800.986 77.4551 798.46 78.7833L799.069 79.4026C798.58 79.3791 798.499 79.4188 798.128 79.1116C799.543 79.6916 801.196 79.1414 802.686 79.0756C805.974 78.9304 809.323 79.2087 812.572 78.5739C816.913 77.726 821.623 75.0727 825.994 75.1205L826.677 75.8501L825.863 75.8054L825.762 76.7483C821.475 76.7357 814.496 80.5107 809.851 81.3924C803.488 82.6005 791.614 82.1317 784.286 82.8101C787.57 80.3574 792.502 81.4824 795.826 79.0971C796.27 77.9594 796.317 77.8351 795.916 76.6091C793.622 76.3697 791.763 78.223 789.649 79.0811C782.539 81.9674 769.228 85.2335 761.71 84.1239C758.152 83.5989 754.705 82.0995 751.214 81.1916C751.157 81.2709 751.102 81.352 751.042 81.4294C750.307 82.3789 748.132 83.5727 746.965 83.6918C746.07 83.7832 745.965 83.5322 745.298 82.9759C747.402 79.1793 754.79 80.89 757.403 78.2517C749.024 77.5441 740.623 79.6387 732.261 80.2627C735.598 79.403 742.551 74.6219 745.832 72.7257L746.012 71.3386Z"/>
	<path fill="#F9F6B7" d="M1004.78 28.7536C1006.61 28.8055 1009.12 28.561 1010.79 29.3003L1011.81 29.3942C1013.03 29.4432 1014.4 29.2827 1015.44 29.9097C1014.02 30.4729 1013.83 30.6546 1013.19 32.1256C1009.95 39.5935 1012.28 51.4764 1010.58 55.776C1014.97 55.8449 1018.79 55.6554 1022.92 57.4145L1023.45 58.3645C1022.56 59.6061 1020.83 60.0348 1019.38 60.2845C1017.08 60.6798 1015.15 60.7495 1012.89 61.5075C1012.57 61.6157 1012.7 61.5799 1012.33 61.6244C1019.19 71.0024 1026.45 77.1228 1038.35 78.9705C1047.51 80.3931 1053.58 78.0128 1061.6 73.9858C1062.98 73.2906 1064.83 73.0054 1066.07 72.114C1067.31 71.2213 1067.69 69.942 1067.84 68.4681C1068.06 66.1302 1067.47 63.7739 1068.99 61.7905C1070.88 59.3209 1072.94 57.5744 1075.45 55.7455C1075.26 55.0083 1075.21 54.8325 1074.5 54.4359C1072.95 53.559 1070.86 53.5476 1069.13 52.5973C1072.57 52.5276 1076.5 53.4552 1079.22 55.6376L1079.35 56.7531L1077.91 57.4331C1077.99 59.0686 1078.96 59.9167 1078.82 61.1821L1076.09 62.1931L1076.62 62.7928L1078.91 62.9329L1079.12 63.8511C1079.57 66.0138 1078.54 67.5591 1077.34 69.3731C1074.52 73.6368 1068.5 80.8096 1063.25 81.8251C1063.15 81.8432 1063.06 81.8592 1062.97 81.8763C1048.79 83.5927 1037.75 89.3722 1024.22 79.9199C1019.88 76.8844 1016.58 73.0725 1011.78 70.5159C1011.9 69.4484 1011.59 68.2622 1011.3 67.233C1010.6 64.7948 1005.18 57.388 1002.98 56.1601C1003.63 52.4611 1001.83 46.7085 1001.86 42.7139C1001.9 37.9297 1003.76 33.357 1004.78 28.7536Z"/>
	<path d="M1195.24 223.437C1196.98 223.344 1198.07 223.066 1199.63 223.929C1199.74 224.217 1199.82 224.499 1199.88 224.801C1200.84 229.75 1197.69 238.125 1197.04 243.339C1195.69 254.116 1196.21 265.505 1196.68 276.332C1196.87 280.658 1198.46 290.126 1195.97 293.689C1192.01 295.455 1185.17 295.098 1180.84 295.327C1175.16 290.56 1177.1 251.058 1177.65 242.315C1177.96 237.516 1179.83 230.207 1178.52 225.752C1184 225.476 1189.87 224.583 1195.24 223.437Z"/>
	<path d="M606.414 89.0622C607.584 88.9717 608.557 89.0144 609.709 89.2381C609.84 89.4617 609.959 89.6886 610.049 89.9321C611.217 93.0914 607.881 106.025 607.305 110.039C605.738 120.969 609.244 153.443 606.7 159.494C602.019 160.859 595.328 160.997 590.446 160.939C585.676 147.723 587.055 124.943 587.747 110.681C587.966 106.149 590.387 95.205 588.689 91.4158C594.512 91.2104 600.647 89.9977 606.414 89.0622Z"/>
	<path fill="#B5DAEB" d="M769.793 49.3475C790.95 49.9466 811.391 49.916 832.438 47.0363C863.634 42.7681 894.438 35.6198 925.511 30.5024C936.119 28.7554 946.769 28.2613 957.394 26.8122C974.581 24.4679 991.297 19.9714 1008.7 22.9656L1019.16 24.9053C1028.7 26.6458 1051.16 31.9972 1056.95 39.9145C1057.19 40.2427 1057.36 40.6012 1057.5 40.9826C1047.23 36.3125 1026.35 29.6777 1015.44 29.9097C1014.4 29.2827 1013.03 29.4432 1011.81 29.3942L1010.79 29.3003C1009.12 28.561 1006.61 28.8055 1004.78 28.7536C1000.67 26.1351 971.056 26.8642 965.115 27.4564C958.084 28.1573 951.034 29.4195 944.136 30.9416C930.146 34.0288 916.305 37.7883 902.315 40.8881C859.298 50.4188 813.807 57.3966 769.716 53.0766C769.687 53.0217 769.666 52.9619 769.63 52.9118C767.758 50.33 760.219 52.2619 757.334 51.3016C756.241 50.9379 755.986 50.5278 755.489 49.5357C759.252 48.9973 766.556 51.2109 769.555 49.4933C769.635 49.447 769.713 49.3961 769.793 49.3475Z"/>
	<path d="M233.827 85.7518C236.887 85.3934 240.029 85.5673 243.106 85.6194C243.155 87.8878 243.229 90.1647 243.164 92.4333C242.908 101.359 233.497 99.9377 228.791 104.603C225.293 108.07 225.674 112.694 225.743 117.209C229.167 115.693 236.39 112.008 240.021 112.997C240.541 113.139 240.564 113.178 240.814 113.647C241.965 115.804 241.283 120.712 240.549 122.941C239.183 127.086 232.432 128.213 228.69 130.084C229.166 132.912 229.838 136.389 231.435 138.806C234.1 142.838 237.819 142.754 242.025 143.729C243.754 144.13 244.105 144.56 244.972 145.992C245.174 148.313 244.732 150.043 244.058 152.242C241.162 156.186 237.005 159.486 232.271 160.934C229.997 161.63 227.064 161.937 224.93 160.715C217.63 156.537 211.223 139.291 209.237 131.315C206.811 121.576 204.79 108.374 210.234 99.4128C215.246 91.164 224.961 87.9397 233.827 85.7518Z"/>
	<path d="M358.79 85.735Q360.701 85.5341 362.622 85.4577C364.127 85.409 365.538 85.4067 366.688 86.538C367.969 87.7993 368.686 89.5006 368.638 91.2989C368.333 102.691 356.931 100.174 352.941 104.295C350.022 107.31 350.466 113.247 350.645 117.141C353.778 115.799 359.41 112.649 362.798 113.138C363.753 113.275 364.508 113.618 365.094 114.389C367.005 116.903 365.587 122.116 365.167 125.093C361.099 126.651 357.136 128.278 353.215 130.176C353.772 132.68 354.414 135.652 355.605 137.92C358.315 143.08 362.667 142.435 367.37 143.981C368.927 144.493 369.044 144.836 369.781 146.216C369.899 148.548 369.31 150.415 368.613 152.606C365.616 156.476 361.016 159.951 356.222 161.174C354.039 161.731 351.442 161.86 349.465 160.625C341.577 155.696 335.898 139.363 333.794 130.589C331.475 120.919 329.537 108.132 335.035 99.2736C340.086 91.1364 349.918 87.7785 358.79 85.735Z"/>
	<path d="M650.094 85.937C653.275 85.5247 656.343 85.5246 659.545 85.6036C659.768 85.9165 659.979 86.243 660.142 86.5922C661 88.4374 661.666 93.4988 660.912 95.3525C659.355 99.1841 653.924 100.54 650.433 102.049C640.697 106.256 645.784 109.98 642.873 116.794C642.83 116.895 642.783 116.995 642.738 117.095C646.976 116.308 652.05 112.114 656.367 113.422C657.612 113.799 658.327 114.636 658.877 115.755C659.794 117.619 659.583 119.884 658.912 121.799C657.14 126.848 651.606 127.5 647.279 129.605C646.607 130.763 646.525 131.053 646.685 132.44C646.952 134.74 647.833 138.443 649.74 139.904C649.823 139.967 649.908 140.028 649.99 140.091C653.456 142.754 658.13 143.143 661.962 145.18C662.592 146.166 663.251 146.855 663.183 148.082C663.08 149.926 661.499 152.03 660.19 153.193L659.798 154.592C657.461 157.377 653.841 159.511 650.405 160.651C648.012 161.444 645.132 161.913 642.818 160.678C635.685 156.871 631.005 144.64 628.59 137.234C625.012 126.257 621.951 110.307 627.469 99.6388C631.6 91.6516 642.066 88.4486 650.094 85.937Z"/>
	<path d="M459.247 273.82C459.264 273.769 459.282 273.718 459.298 273.667C461.916 265.424 455.035 226.215 461.706 222.855C462.469 222.471 463.267 222.275 464.117 222.246C471.747 221.989 479.467 222.569 487.116 222.462C494.871 222.354 502.736 221.539 510.475 221.717C513.049 221.776 515.526 222.102 518.023 222.728L518.793 223.487C518.265 228.028 510.681 237.628 507.088 240.433C506.4 240.97 505.608 241.378 504.793 241.687C503.556 241.49 503.025 241.482 502.22 240.411C498.67 235.689 499.971 228.025 492.37 226.741C490.047 226.349 484.731 226.842 482.874 228.315C480.365 230.307 479.736 235.851 479.52 238.812C478.783 248.884 481.693 288.087 479.847 292.83L479.728 293.145C476.582 294.029 467.968 296.29 465.061 294.758C463.206 293.78 462.064 291.399 461.54 289.458C460.91 287.119 461.095 284.679 459.884 282.515C458.918 282.207 457.414 281.816 456.76 280.98C455.987 279.993 455.541 278.907 455.78 277.661C456.127 275.853 457.811 274.732 459.247 273.82Z"/>
	<path fill="#B5DAEB" d="M459.247 273.82C461.122 274.644 462.517 275.2 463.556 277.094C463.647 278.498 463.651 279.565 462.599 280.688C461.89 281.446 460.751 281.94 459.884 282.515C458.918 282.207 457.414 281.816 456.76 280.98C455.987 279.993 455.541 278.907 455.78 277.661C456.127 275.853 457.811 274.732 459.247 273.82Z"/>
	<path d="M1137.47 222.187C1140.24 222.1 1143.81 221.725 1146.02 223.668C1146.32 225.782 1141.66 231.304 1140.55 233.941C1137 242.386 1135.93 260.282 1133.66 264.508C1139.94 263.129 1145.73 256.869 1151.88 256.456C1153.79 256.328 1155.01 256.719 1156.47 258.016C1162.54 263.4 1167.83 278.237 1168.29 286.345C1168.41 288.561 1168.25 290.797 1166.64 292.495C1165.5 293.7 1163.4 293.596 1161.85 293.656C1153.37 293.666 1121.09 295.169 1115.73 293.063C1114.07 291.385 1113.61 289.082 1113.35 286.813C1112.17 276.486 1118.06 233.485 1124.33 226C1127.3 222.458 1133.22 222.508 1137.47 222.187Z"/>
	<path fill="#FBFEFE" d="M1137.18 267.812C1138.25 267.601 1139.61 267.273 1140.69 267.634C1142.67 268.305 1144.15 270.443 1144.99 272.284C1146.76 276.186 1147 281.105 1145.44 285.119C1144.55 287.428 1143.52 287.966 1141.39 288.883C1139.99 289.313 1139.11 288.954 1137.71 288.656C1136.45 287.587 1135.92 286.345 1135.46 284.797C1133.71 278.882 1134.28 273.174 1137.18 267.812Z"/>
	<path d="M547.095 87.8121C548.992 87.687 551.039 87.6244 552.93 87.8214C554.622 87.9976 555.623 88.4922 556.677 89.7779C546.452 106.339 547.794 112.013 544.318 130.125C550.442 128.851 555.233 123.397 561.286 122.215C563.232 121.835 564.711 122.093 566.327 123.264C572.599 127.807 577.063 141.965 578.299 149.498C578.703 151.959 579.077 155.568 577.45 157.658C576.173 159.298 574.309 159.146 572.449 159.316C563.519 159.318 531.989 160.69 526.009 158.72C524.241 157.193 523.854 154.811 523.617 152.593C522.562 142.727 528.594 98.7327 534.49 91.7829C537.44 88.3058 542.904 88.2101 547.095 87.8121Z"/>
	<path fill="#FBFEFE" d="M547.425 133.435C548.485 133.265 549.577 133.262 550.649 133.213C552.686 134.042 554.004 135.442 554.999 137.366C556.992 141.218 557.306 146.092 555.968 150.207C555.209 152.544 554.107 153.344 552.004 154.434C550.807 155.028 549.591 154.767 548.274 154.706C546.925 153.763 546.502 152.291 545.994 150.795C543.942 144.759 544.674 139.042 547.425 133.435Z"/>
	<path d="M633.599 220.936C634.938 220.713 635.806 220.657 637.087 221.142C638.534 222.709 639.348 224.299 640.06 226.296C645.487 241.52 645.219 271.536 637.992 286.461C635.56 291.484 633.088 294.178 627.813 296.024C631.71 309.254 630.527 346.418 626.011 359.602C624.374 364.383 622.27 366.855 617.729 369.064C617.648 369.116 617.575 369.184 617.485 369.219C616.343 369.66 615.729 369.389 614.729 368.866C615.091 364.67 616.417 360.509 617.096 356.342C618.407 348.293 618.806 339.691 618.612 331.544C618.054 308.184 607.187 266.55 613.61 246.298C616.952 235.762 623.661 226.081 633.599 220.936Z"/>
	<path fill="#FBFEFE" d="M624.016 248.434L626.484 248.274C628.312 249.032 629.701 250.929 630.64 252.618C633.686 258.102 634.953 266.488 633.181 272.553C632.527 274.792 631.647 276.34 629.533 277.511C629.288 278.227 628.539 278.613 627.947 279.034L626.971 278.707C622.596 270.192 623.199 257.753 624.016 248.434Z"/>
	<path d="M1018.84 222.187C1030.5 220.65 1048.49 222.32 1060.96 222.507C1072.09 222.674 1083.5 221.936 1094.57 222.505C1097.3 222.645 1100.23 222.824 1102.75 223.932C1103.47 225.029 1103.91 226.693 1104.13 227.991C1104.85 232.145 1103.33 236.858 1100.95 240.237C1098.69 243.441 1095.02 246.974 1091.02 247.633C1087.39 248.231 1086.91 237.381 1085.58 235.058C1084.68 233.474 1082.63 231.797 1081.15 230.746C1079.57 229.625 1076.83 228.017 1074.84 228.401C1071.64 229.02 1071.45 234.722 1071.1 237.327C1070.32 242.98 1069.65 248.613 1069.62 254.325C1069.6 261.053 1073.14 287.45 1070.48 291.564C1070.59 292.13 1070.4 292.692 1070.27 293.244C1066.91 294.625 1059.7 295.038 1055.97 294.843C1054.66 294.775 1053.88 294.673 1053.09 293.565C1048.79 287.541 1050.21 253.401 1050.58 244.808C1050.75 240.602 1051.69 235.4 1051.2 231.288C1051.02 229.773 1050.74 229.334 1049.77 228.23C1046.45 226.814 1039.96 226.857 1036.59 228.096C1025.01 232.348 1034.27 258.195 1030.56 265.667C1030.51 265.778 1030.45 265.886 1030.39 265.995C1026.92 267.799 1019.78 268.574 1015.8 268.651C1014.32 267.814 1013.9 266.917 1013.35 265.323C1010.82 257.887 1010.94 231.913 1014.29 225.37C1015.36 223.303 1016.76 222.826 1018.84 222.187Z"/>
	<path d="M984.624 222.812C986.62 222.594 989.726 221.932 991.615 222.556C992.324 222.79 992.683 222.943 992.99 223.657C994.197 226.459 990.507 238.988 989.978 242.672C988.241 254.752 992.396 285.564 989.427 293.807C984.952 296.881 976.515 294.469 971.515 293.586C971.539 293.526 971.566 293.467 971.587 293.407C972.395 291.094 970.644 283.44 970.439 280.582C970.02 274.775 971.134 257.06 969.053 252.644L949.264 251.428C949.533 252.01 949.763 252.609 949.884 253.241C950.261 255.219 948.818 282.37 948.408 284.98C948.282 285.779 947.881 286.502 947.444 287.171C947.769 287.78 948.1 288.415 948.286 289.083C948.74 290.711 948.491 291.938 947.691 293.379C940.838 294.082 933.991 294.823 927.11 295.184C927.156 295.098 927.204 295.014 927.248 294.927C928.649 292.147 927.395 277.623 927.436 273.731C927.54 263.694 928.132 254.129 929.814 244.23C930.57 239.78 933.587 229.754 932.169 225.687C937.936 225.517 948.515 222.39 953.28 225.864C953.977 226.8 954.482 227.695 954.604 228.876C954.939 232.1 952.98 241.822 951.116 244.163Q960.237 244.506 969.319 245.412C969.342 245.361 969.365 245.31 969.387 245.259C970.932 241.697 972.668 228.173 971.296 224.709C975.781 224.224 980.192 223.657 984.624 222.812Z"/>
	<path d="M496.021 88.4299C498.432 88.143 501.601 87.3735 503.804 88.5847C504.126 89.1144 504.309 89.6239 504.346 90.2458C504.701 96.2437 501.669 103.18 501.089 109.29C500.002 120.743 500.749 132.571 501.266 144.047C501.44 147.896 502.84 156.619 500.297 159.543C495.548 162.441 487.828 160.159 482.679 159.229C483.317 157.157 482.229 153.469 482.014 151.187C481.445 145.149 482.224 122.303 480.308 118.315Q470.421 117.611 460.517 117.22C460.777 117.758 461 118.313 461.118 118.901C461.446 120.55 459.939 147.717 459.565 150.35C459.437 151.247 459.043 152.038 458.552 152.791C458.723 153.059 458.887 153.332 459.022 153.62C459.76 155.184 459.733 156.321 459.181 157.867C455.112 161.273 443.521 160.549 438.247 160.855C440.028 157.441 438.371 134.086 438.759 128.047C439.233 120.67 444.339 95.4285 443.417 91.3365C448.01 91.1448 452.515 90.3176 457.09 89.9864C459.854 89.7863 462.369 89.7509 464.589 91.659C465.297 92.7652 465.749 93.812 465.786 95.1414C465.883 98.6221 464.303 107.311 462.079 109.743C468.225 110.114 474.388 110.409 480.512 111.05C480.643 110.781 480.759 110.511 480.859 110.229C481.965 107.099 483.728 93.0841 482.422 90.2817Q489.283 89.8081 496.021 88.4299Z"/>
	<path d="M721.009 222.811C722.972 222.614 725.752 222 727.644 222.461C728.778 222.737 728.955 223.031 729.51 224.017C729.866 230.064 727.021 236.397 726.455 242.473C725.365 254.179 726.057 265.737 726.517 277.457C726.679 281.566 727.902 290.667 725.472 293.942C720.992 296.897 712.809 294.451 707.851 293.524Q707.981 293.092 708.047 292.646C708.524 289.487 707.038 283.61 706.809 280.212C706.306 272.738 706.911 265.078 706.161 257.655C706.04 256.458 705.618 255.392 704.934 254.402C701.995 257.337 688.689 264.234 684.557 265.734C684.71 266.038 684.853 266.353 684.95 266.68C685.729 269.313 685.301 290.893 683.983 293.275C681.552 293.918 678.453 293.847 675.917 294.072C671.848 294.731 667.691 294.927 663.583 295.238C663.612 295.187 663.643 295.137 663.671 295.085C665.092 292.382 663.777 279.789 663.675 276.165C663.449 268.167 664.209 260.18 665.088 252.233C665.701 246.686 669.746 229.855 668.587 225.692C674.753 225.436 682.397 223.411 688.39 224.687C689.233 224.867 689.692 224.886 690.144 225.667C692.035 228.935 687.29 251.25 685.726 255.698C691.757 254.918 701.648 250.132 705.744 245.6C705.869 245.448 705.922 245.391 706.035 245.209C707.292 243.178 708.445 227.231 707.77 224.738Q714.431 224.058 721.009 222.811Z"/>
	<path fill="#FAF287" d="M1019.16 24.9053C1019.36 23.1003 1019.25 21.4489 1020.73 20.1287C1025.92 15.4899 1039.59 11.9874 1046.36 12.7305C1054.15 13.5846 1063.82 17.7168 1068.77 23.9847C1071.1 26.9326 1072.54 30.4419 1074.88 33.3881C1075.05 33.6059 1075.15 33.8336 1075.23 34.0941C1077.23 36.6326 1077.74 44.9895 1077.32 48.2077C1077.25 48.7888 1077.11 49.1834 1076.77 49.6671L1074.09 50.0828C1070.2 48.2318 1067.76 47.8484 1063.49 48.2972L1062.64 49.0699C1063.53 50.6413 1064.82 51.4706 1066.57 51.9491C1067.23 52.1295 1067.9 52.27 1068.57 52.4157C1068.93 52.4936 1068.78 52.4517 1069.13 52.5973C1070.86 53.5476 1072.95 53.559 1074.5 54.4359C1075.21 54.8325 1075.26 55.0083 1075.45 55.7455C1072.94 57.5744 1070.88 59.3209 1068.99 61.7905C1067.47 63.7739 1068.06 66.1302 1067.84 68.4681C1067.69 69.942 1067.31 71.2213 1066.07 72.114C1064.83 73.0054 1062.98 73.2906 1061.6 73.9858C1053.58 78.0128 1047.51 80.3931 1038.35 78.9705C1026.45 77.1228 1019.19 71.0024 1012.33 61.6244C1012.7 61.5799 1012.57 61.6157 1012.89 61.5075C1015.15 60.7495 1017.08 60.6798 1019.38 60.2845C1020.83 60.0348 1022.56 59.6061 1023.45 58.3645L1022.92 57.4145C1018.79 55.6554 1014.97 55.8449 1010.58 55.776C1012.28 51.4764 1009.95 39.5935 1013.19 32.1256C1013.83 30.6546 1014.02 30.4729 1015.44 29.9097C1026.35 29.6777 1047.23 36.3125 1057.5 40.9826C1057.36 40.6012 1057.19 40.2427 1056.95 39.9145C1051.16 31.9972 1028.7 26.6458 1019.16 24.9053Z"/>
	<path fill="#ECF0C2" d="M1048.48 52.1871C1049.72 51.9805 1050.96 52.0508 1052.21 52.1618C1054.25 52.3426 1058.37 52.7039 1059.71 54.3163L1059.15 55.4434C1054.54 55.5283 1052.4 58.2542 1048.23 59.2126C1047.69 59.4135 1047.14 59.5238 1046.57 59.6295C1044.52 60.0106 1041.7 60.6313 1039.9 59.3145C1039.49 59.0133 1039.53 58.3174 1039.45 57.8218C1040.77 56.5156 1044.4 56.5347 1046.35 56.0099C1047.73 54.8634 1048.06 53.9001 1048.48 52.1871Z"/>
	<path fill="#B5DAEB" d="M859.042 51.921L932.899 38.8149C949.335 36.0619 971.346 30.7718 987.718 32.7215C975.334 36.6621 964.951 43.4996 951.828 45.6084C941.757 47.2266 933.088 44.4425 922.995 47.0357C909.223 50.5739 895.649 54.9095 882.056 59.0692C875.065 61.2086 867.756 63.9068 860.571 65.1969Q856.118 66.6766 851.623 68.0262C843.132 69.6624 834.597 71.4883 826.011 72.5409C821.059 73.1481 815.91 73.0391 811.015 73.7799C806.793 71.3414 800.418 74.5434 795.717 73.6104C794.5 73.3689 794.124 72.5543 793.541 71.5962C797.438 67.9094 804.172 70.5916 808.229 67.1296C808.164 67.0938 808.102 67.0542 808.036 67.0221C806.516 66.2868 804.156 67.321 802.515 67.4902C797.703 67.9865 792.598 65.985 787.925 67.5667C787.908 67.9359 789.734 69.1688 790.034 69.939C785.349 72.5753 753.252 70.8049 746.012 71.3386Q741.256 71.2244 736.498 71.1588C734.496 71.2163 732.548 70.9494 730.567 70.7051C719.806 70.4818 708.722 69.2516 698.056 67.8077Q712.655 66.743 727.268 65.9065C720.391 62.6351 710.425 62.1317 702.857 60.3082C695.169 58.4558 687.601 55.8967 680.063 53.5144C696.229 55.9791 711.969 58.3334 728.281 59.6988C722.81 57.1323 708.034 55.4714 700.907 53.6331C715.164 53.6216 729.763 55.9875 744.074 56.6139Q767.833 57.6158 791.607 57.0854Q815.381 56.555 839.072 54.4945C836.541 57.2027 796.848 58.7092 793.465 60.7939C805.997 61.7766 835.107 58.8784 847.981 56.7668C852.531 54.9878 853.738 51.8359 859.042 51.921Z"/>
	<path fill="#E3F0F3" d="M859.042 51.921C859.118 51.9381 859.193 51.956 859.269 51.9722C864.56 53.1076 877.816 49.4207 881.368 51.5482C872.54 54.398 857.055 57.0718 847.981 56.7668C852.531 54.9878 853.738 51.8359 859.042 51.921Z"/>
	<path d="M785.433 221.562C790.765 221.162 796.632 221.701 801.787 223.029C810.777 225.344 819.655 230.535 824.421 238.73C827.523 244.063 828.941 250.964 827.276 256.99C824.594 266.704 814.042 272.161 805.888 276.759C808.422 277.804 810.98 279.513 812.954 281.406C816.414 284.724 818.044 289.402 818.13 294.12C818.265 301.519 815.994 311.164 810.687 316.617C804.582 322.892 789.453 332.805 780.47 332.89C772.605 332.965 765.115 321.448 759.907 316.426C753.556 310.3 749.436 314.998 742.271 315.109L741.831 314.203C742.427 311.602 745.209 309.647 747.253 308.158C751.671 304.942 755.59 302.482 761.195 303.4C766.936 304.34 777.016 308.79 780.448 313.818C780.501 313.897 780.552 313.977 780.604 314.057C784.269 315.991 787.745 318.474 791.152 320.831C792.001 320.36 792.851 319.829 793.571 319.172C798.938 314.286 801.41 306.708 801.7 299.623C801.87 295.485 801.333 290.296 798.311 287.152C793.773 282.431 785.42 286.007 779.698 285.779C777.381 285.686 775.262 284.853 773.711 283.091C772.239 281.419 771.193 279.126 771.34 276.864C771.486 274.63 772.892 272.704 774.574 271.313C778.183 268.327 783.12 267.293 787.694 267.682C791.742 268.027 794.531 271.119 798.238 272.356C800.324 273.052 802.626 273.117 804.612 272.073C806.852 270.896 808.043 268.586 808.746 266.259C811.334 257.697 809.647 246.941 805.463 239.15C802.984 234.534 798.956 229.174 793.678 227.648C788.356 226.111 780.264 227.399 775.478 230.111C767.406 234.684 770.535 243.654 768.748 249.608C768.723 249.691 768.695 249.774 768.669 249.857Q760.039 250.99 751.344 251.369C754.598 246.702 752.624 239.505 758.278 232.495C764.673 224.565 775.867 222.597 785.433 221.562Z"/>
	<path d="M293.443 88.3949C300.556 87.8532 307.897 88.4176 315.003 88.8697C311.749 100.134 305.416 106.791 296.568 113.974C298.908 114.226 301.681 114.198 303.931 114.875C306.544 115.663 307.697 117.784 308.944 120.031C313.37 128.008 320.926 149.059 318.403 157.831C315.649 160.47 308.266 159.378 304.531 159.346C290.379 159.386 276.301 161.222 262.184 161.169C257.996 142.045 262.747 109.256 267.218 89.9452C275.866 89.0137 284.75 88.8655 293.443 88.3949Z"/>
	<path fill="#FBFEFE" d="M292.485 93.797C294.206 93.7248 296.733 93.4334 298.31 94.1335C299.81 94.7991 300.043 95.681 300.564 97.0969C300.181 102.531 294.909 107.325 291.162 110.904C289.837 111.733 288.468 112.858 286.83 112.622C286.529 112.362 285.724 111.805 285.606 111.463C284.072 107.027 286.351 100.906 288.34 96.9231C289.298 95.0049 290.536 94.4572 292.485 93.797Z"/>
	<path fill="#FBFEFE" d="M284.833 118.869C286.41 119.535 287.659 120.619 288.785 121.887C294.918 128.79 298.913 139.248 298.265 148.523C298.082 151.14 297.594 152.29 295.561 154.055C291.17 154.934 286.937 155.079 282.475 155.165C282.466 143.097 282 130.673 284.833 118.869Z"/>
	<path d="M564.79 220.311C569.149 219.465 574.825 221.384 578.54 223.635C585.057 227.583 589.048 234.217 590.767 241.52C593.347 252.478 591.673 265.046 585.677 274.643C579.289 284.869 564.757 292.104 553.238 294.751Q552.47 295.034 551.667 295.188Q550.864 295.342 550.046 295.363Q549.228 295.384 548.418 295.272Q547.607 295.16 546.826 294.918C540.771 293.104 536.697 287.251 533.835 281.975C528.302 271.773 526.47 261.358 529.879 250.081C535.062 232.934 550.677 227.912 564.79 220.311Z"/>
	<path fill="#FBFEFE" d="M550.421 234.061C554.349 233.793 558.468 234.353 561.956 236.262C567.714 239.412 571.147 245.015 572.915 251.19C575.047 258.638 576.158 269.459 572.201 276.523C570.76 279.096 569.185 280.447 566.334 281.234C565.207 281.385 563.867 281.281 562.738 281.128C557.623 280.431 553.032 276.459 550.074 272.458C544.547 264.98 542.678 254.733 544.131 245.64C544.895 240.861 546.442 236.958 550.421 234.061Z"/>
	<path d="M881.01 220.312C885.696 219.592 891.104 221.384 895.055 223.876C901.454 227.912 905.325 234.492 906.974 241.765C909.463 252.75 907.741 265.407 901.633 274.954C895.354 284.769 880.033 292.493 868.861 294.927C866.942 295.588 864.512 295.432 862.593 294.796C856.269 292.699 852.152 286.335 849.291 280.698C844.068 270.408 842.655 260.167 846.349 249.068C851.673 233.073 867.245 227.137 881.01 220.312Z"/>
	<path fill="#FBFEFE" d="M866.485 234.062C870.295 233.779 874.149 234.208 877.586 235.983C883.251 238.909 886.862 244.332 888.755 250.287C891.058 257.528 892.454 268.771 888.775 275.76C887.292 278.577 885.699 280.258 882.614 281.211C881.515 281.338 880.264 281.361 879.165 281.204C873.908 280.456 869.52 276.851 866.407 272.743C860.8 265.343 858.978 255.295 860.25 246.216C860.95 241.223 862.406 237.161 866.485 234.062Z"/>
	<path d="M160.468 57.129C167.569 56.5162 173.327 56.8719 179.563 60.6493C187.514 65.4668 193.612 72.9707 195.822 82.0145C187.042 83.5402 178.308 85.4913 169.577 87.2852C167.994 83.3708 166.196 79.4567 163.345 76.2838C159.932 72.4854 155.291 70.3975 150.193 70.1846C146.293 70.0217 142.751 71.3093 139.884 73.9697C132.746 80.5945 130.75 93.3171 130.43 102.706C129.986 115.747 132.516 135.448 141.797 145.264C144.358 147.972 147.647 149.852 151.441 149.926C159.673 150.086 166.341 142.198 171.743 136.987C173.274 135.619 175.402 133.32 177.512 133.035C179.419 132.778 180.2 133.385 181.612 134.463C181.967 135.202 182.32 136.016 182.399 136.838C182.721 140.176 180.486 144.191 178.497 146.717C171.778 155.251 157.904 163.562 147.2 164.778C139.71 165.629 132.441 163.236 126.593 158.548C115.731 149.844 110.182 135.498 108.772 121.973C107.004 105.019 110.517 86.9815 121.523 73.5598C130.307 62.8467 147.157 58.4096 160.468 57.129Z"/>
	<path d="M389.409 230.634C394.424 224.972 393.424 198.604 392.968 190.965C391.762 170.771 383.98 136.359 386.751 118.385C387.996 110.308 392.268 101.279 397.7 95.1783C400.461 92.0768 405.328 86.6852 409.667 86.4884C410.823 86.436 411.696 86.7466 412.557 87.5386C417.99 92.5354 418.489 116.055 418.422 123.187C418.321 134.018 416.466 150.706 408.352 158.597C406.687 160.215 404.692 161.084 402.498 161.746C406.657 178.738 406.173 218.72 396.827 234.194C393.028 240.484 386.101 244.037 379.119 245.69C354.697 251.475 326.078 240.211 303.078 232.718C293.973 229.752 284.703 227.038 275.691 223.814C274.4 225.039 272.039 226.74 271.731 228.538C276.147 236.077 279.431 242.904 280.613 251.637C279.087 250.004 277.683 248.249 275.561 247.395C273.638 251.432 282.832 261.377 277.595 267.236C276.162 267.587 275.448 267.594 274.089 266.999C272.805 265.061 272.465 262.735 271.668 260.577C270.506 257.432 268.381 254.909 266.261 252.371C267.544 257.109 272.9 268.599 270.286 272.827C269.21 274.568 266.803 275.087 264.928 275.464Q264.662 275.518 264.395 275.568C264.211 276.192 263.984 277.727 263.406 278.016C260.852 279.294 256.526 277.176 254.129 276.209C254.784 278.396 255.878 280.904 255.424 283.2C254.432 284.337 254.186 284.436 252.699 284.694C248.569 283.691 246.406 279.038 242.794 278.226C241.478 281.45 243.994 285.818 241.044 288.305C239.467 287.948 236.945 285.854 235.785 286.529C235.737 288.066 235.65 289.565 235.442 291.089C234.413 291.449 234.054 291.54 233.038 291.053C231.063 290.104 228.911 287.013 227.456 285.317C223.646 287.6 225.986 293.985 218.705 293.083L217.711 292.338L217.457 288.702L216.877 288.207C215.151 289.448 214.294 290.731 212.137 290.86L210.926 290.037C210.845 289.273 211.613 286.392 211.582 286.321C210.327 283.439 207.289 284.609 208.761 280.204C209.807 279.238 210.809 278.294 212.02 277.537Q211.947 276.262 211.839 274.99C212.614 274.494 213.29 274.292 214.171 274.075C213.191 271.562 208.466 271.565 207.331 269.012C208.428 268.245 209.911 268.246 211.242 268.457C213.512 268.818 216.149 270.085 218.409 270.743C216.747 269.624 211.758 266.948 211.074 265.17L214.014 264.308L213.886 263.852L214.68 263.981C212.716 262.414 209.345 261.82 208.053 259.953C209.614 258.945 211.752 258.876 213.585 259.261C214.57 259.468 215.543 259.751 216.505 260.045C217.035 259.024 216.246 257.505 215.903 256.393C213.205 255.361 208.335 258.537 206.896 255.37C207.515 253.878 209.037 253.182 210.457 252.597C211.718 252.078 214.227 251.994 215.177 251.236C216.384 250.272 216.335 248.691 217.954 247.862C223.508 250.304 228.354 253.853 234.065 256.049C232.377 254.452 225.557 248.843 225.496 247.076Q227.16 246.725 228.828 246.393C228.368 245.276 227.69 245.119 226.579 244.651C223.243 243.245 216.736 245.531 214.404 242.505C214.264 241.187 214.353 240.388 215.291 239.326C216.257 238.234 217.903 237.367 219.373 237.363C222.096 237.356 225.201 239.154 227.645 240.29C225.281 238.255 220.888 235.317 220.638 232.021C220.625 231.846 220.623 231.67 220.62 231.495C221.728 230.433 222.236 230.397 223.766 230.436C228.836 230.566 233.716 232.983 238.153 235.196C237.008 233.787 235.802 232.166 234.388 231.025C232.414 229.432 226.661 227.195 225.844 225.001C226.727 223.623 227.383 223.714 228.962 223.372C229.684 223.216 230.416 223.093 231.145 222.969C230.448 222.094 229.698 221.302 228.915 220.503C230.785 218.864 241.939 218.744 244.963 218.95C252.448 219.461 261.083 223.27 267.921 226.208L271.232 222.473C228.637 208.657 178.375 200.775 135.326 216.966C119.317 222.988 104.656 232.408 88.363 237.827C91.1014 233.896 124.295 220.339 129.438 215.022C122.485 217.15 115.926 220.412 108.988 222.592C102.872 224.513 96.3861 225.31 90.3264 227.376C83.1136 229.836 76.3814 233.313 68.8437 234.785C84.2222 223.696 120.299 209.66 138.796 204.875Q145.577 203.127 152.496 202.046Q159.414 200.964 166.405 200.559C165.839 201.126 141.255 206.283 137.652 207.301C127.761 210.097 116.859 214.493 108.074 219.791C130.869 213.511 152.874 204.092 176.878 203.092C184.277 202.784 191.712 203.186 199.087 203.762C205.625 204.271 218.531 206.409 224.502 205.165C216.456 203.961 208.355 202.564 200.259 201.771C194.34 201.192 188.138 201.585 182.347 200.219C205.503 199.013 230.641 202.132 252.973 208.295C266.056 211.906 278.901 216.565 291.576 221.396C312.507 229.373 352.54 248.054 373.914 244.022C368.067 243.915 362.385 243.798 356.624 242.695C348.31 241.104 310.278 229.391 305.254 224.806C305.128 224.691 305.008 224.519 304.907 224.389C324.824 231.955 361.176 246.318 381.787 237.128C383.984 236.149 388.301 233.388 389.286 231.128C389.351 230.98 389.378 230.786 389.409 230.634Z"/>
	<path fill="#FBFEFE" d="M221.978 278.97C223.104 278.827 223.117 278.771 224.031 279.429C224.269 281.868 223.414 284.501 222.601 286.788L221.643 286.471C219.852 284.806 217.749 282.907 217.303 280.476C218.799 279.01 219.96 279.198 221.978 278.97Z"/>
	<path fill="#FBFEFE" d="M236.074 224.45C237.137 224.356 238.243 224.293 239.307 224.402C241.824 224.661 244.919 226.679 246.494 228.618C247.486 229.84 248.93 231.661 248.77 233.293C244.907 230.905 238.837 229.055 235.855 225.819L236.074 224.45Z"/>
	<path fill="#FBFEFE" d="M246.928 235.894C248.095 236.277 249.298 236.677 250.393 237.24C254.856 239.531 259.84 247.281 261.39 252.02C257.5 250.446 249.38 239.679 246.928 235.894Z"/>
	<path fill="#FBFEFE" d="M238.384 252.458C238.456 252.467 238.528 252.473 238.599 252.484C238.718 252.503 238.835 252.528 238.953 252.549C239.618 252.665 240.258 252.793 240.889 253.044C245.686 254.956 252.336 264.848 254.241 269.539C254.18 269.512 254.119 269.486 254.059 269.457C251.211 268.056 239.382 255.589 238.384 252.458Z"/>
	<path fill="#FBFEFE" d="M224.088 267.925C225.044 268.191 226.054 268.666 226.935 269.128C228.733 270.072 229.809 272.414 230.361 274.3C230.82 275.871 231.719 278.838 230.874 280.328L229.497 280.25C227.191 277.666 223.191 274.833 221.692 271.802C221.096 270.596 221.079 270.404 221.49 269.141L224.088 267.925Z"/>
	<path fill="#FBFEFE" d="M232.046 237.457C236.239 237.283 239.85 239.253 243.541 240.972C245.553 245.173 248.021 249.215 250.219 253.327C245.316 251.123 236.52 241.536 232.046 237.457Z"/>
	<path fill="#FBFEFE" d="M222.54 256.722C225.511 256.693 227.609 258.07 229.977 259.647C231.232 262.477 233.188 265.836 233.342 268.944L232.252 269.737C228.893 268.088 224.675 264.931 222.144 262.172C221.009 260.934 220.148 259.812 220.227 258.108L222.54 256.722Z"/>
	<path fill="#FBFEFE" d="M398.699 114.021L400.903 113.829C402.484 114.411 403.561 115.471 404.529 116.815C408.135 121.823 409.435 130.139 408.424 136.125C407.957 138.885 407.142 141.14 404.782 142.819C404.289 143.815 403.746 144.25 402.868 144.865L401.78 144.395C397.531 134.934 398.672 124.06 398.699 114.021Z"/>
	<path d="M1150.2 85.6452C1150.28 85.5554 1150.36 85.4668 1150.44 85.3758C1154.23 80.9733 1155.97 66.5241 1160.35 64.7528C1162.61 65.856 1163.43 68.1374 1164.23 70.4458C1165.43 73.9011 1163.88 77.0112 1164.55 79.5611C1164.77 80.4326 1168.11 81.5959 1168.47 82.373C1168.78 83.0385 1168.67 85.2809 1169.25 85.5871C1172.39 87.221 1189.07 86.444 1194.2 87.1566L1194.31 87.2138C1186.53 87.4336 1177.57 86.7932 1169.98 88.3454C1169.47 89.1216 1169.35 91.0019 1169.22 91.0257C1167.41 91.3534 1167.13 90.3248 1165.48 91.6222L1165.19 93.3824L1165.95 94.3676C1168.15 94.2505 1170.5 93.3038 1172.49 94.1734C1173.5 96.1049 1173.34 98.1649 1173.1 100.273C1171.56 102.213 1169.28 103.6 1167.02 104.575C1170.22 104.994 1173.44 105.364 1176.62 105.9C1177.62 107.558 1177.16 109.037 1177.77 110.699C1179.19 114.617 1184.27 119.834 1183.27 124.166C1183.25 124.245 1183.22 124.323 1183.2 124.402C1181.1 127.596 1172.86 130.579 1169.21 131.806C1176.33 131.235 1182.38 129.494 1188.36 134.725C1188.82 135.12 1189.14 135.579 1189.42 136.105C1189.01 137.641 1188.57 138.055 1187.13 138.858C1184.62 140.253 1181.79 141.312 1179.16 142.459L1179.5 142.893C1185.6 142.489 1189.24 143.805 1195.03 145.396C1196.24 147.25 1196.11 149.202 1197.04 151.136C1198.56 154.337 1201.66 157.661 1202.31 161.007C1193.3 160.674 1184.34 159.249 1175.33 159.047C1155.72 158.607 1133.2 162.631 1114.54 168.879C1105.66 171.852 1097.34 177.239 1088.53 179.819L1088.17 179.221L1086.84 179.078L1086.95 178.574L1087.71 179.915L1086.87 179.399C1089.96 174.835 1100.71 175.713 1103.96 170.71C1097.74 172.511 1091.76 173.78 1085.61 175.989C1084.61 174.552 1085.19 173.604 1083.48 172.764L1081.51 173.358L1081.02 174.447C1081.43 175.296 1081.78 176.247 1082.38 176.975L1081.61 177.722L1081.4 176.507L1080.39 176.322L1080.72 177.613C1079.56 179.168 1068.65 180.782 1065.97 181.266C1068.98 180.145 1072.7 179.227 1074.51 176.372C1063.42 178.16 1052.43 179.905 1041.5 182.615C1035.36 184.138 1029.36 186.715 1023.15 187.85C1018.19 188.758 1013.15 187.95 1008.14 188.194C1003.89 188.402 997.801 190.173 993.835 189.212C996.142 187.399 1001.74 185.879 1004.68 186.213C1007.92 186.581 1011.13 187.77 1014.41 187.697C1024.01 187.482 1040.22 181.15 1049.95 178.129C1052.27 177.408 1054.78 177.201 1057.13 176.544C1059.3 175.94 1067.33 171.615 1068.75 172.08L1069.82 173.583C1070.51 172.531 1070.11 171.51 1070.44 170.951C1070.52 170.821 1077.91 168.216 1077.79 160.67C1081.53 159.903 1088.51 159.31 1091.25 156.543C1090.7 155.557 1090.41 155.572 1089.31 155.265C1086.97 154.616 1084.25 154.645 1081.83 154.519C1086.06 147.523 1082.8 146.122 1091.82 142.915C1090.72 140.985 1088.53 140.744 1089.25 138.143C1090.9 132.207 1095.65 127.38 1097.82 121.703C1098.65 119.525 1098.73 116.663 1099.14 114.329C1099.56 111.94 1100.15 108.373 1102.49 107.074C1102.7 106.956 1102.92 106.89 1103.15 106.836C1105.98 108.797 1106.3 114.815 1107.71 117.837C1108.95 120.484 1112.48 124.998 1112.89 127.771C1112.95 128.227 1112.93 128.711 1112.88 129.167C1111.81 131.267 1109.14 132.147 1107.02 132.832L1106.84 132.89C1109.34 133.41 1113.71 133.742 1115.16 135.948C1117 138.753 1117.76 141.212 1120.57 143.298C1120.59 145.067 1119.07 145.555 1118.77 146.886C1118.32 148.855 1121.53 150.215 1121.05 152.379C1120.77 153.692 1118.91 153.435 1119.7 155.187C1121.36 155.788 1123.12 155.334 1124.68 154.616C1126.68 153.69 1128.08 152.764 1128.85 150.613C1129.29 149.399 1130.77 142.692 1130.58 141.745C1135.36 142.648 1145.5 142.961 1149.68 140.014C1150.02 139.775 1150.28 139.488 1150.51 139.149L1150.1 138.588C1145.68 138.391 1138.1 138.413 1134.98 134.955C1134.46 134.385 1134.45 133.093 1134.48 132.351C1134.7 126.426 1141.96 117.69 1141.25 112.656C1144.69 112.409 1151.52 112.653 1154.03 110.118C1153.99 109.619 1154.08 109.032 1153.7 108.696C1150.97 106.321 1146.58 106.411 1146.1 101.991C1145.67 98.1239 1148.12 94.5397 1150.52 91.7468C1151.37 90.7672 1153.1 89.9052 1153.49 88.6544C1097.05 91.3531 1040.56 95.1404 984.904 105.369C942.496 113.163 900.178 123.623 858.319 134.008C840.189 138.506 822.174 143.384 803.926 147.407Q794.685 149.195 785.485 151.187Q765.175 154.819 744.687 157.253Q724.199 159.687 703.603 160.913C697.176 161.279 690.049 162.234 683.651 161.562C684.416 160.9 730.351 155.351 735.608 154.503C769.645 149.016 802.629 140.7 835.932 131.973C844.435 129.744 855.566 128.18 863.303 124.23C819.871 123.017 778.488 115.664 736.505 104.595C719.132 100.015 701.732 95.1364 684.934 88.7276L685.654 89.9146L685.631 88.8296L684.543 88.5029C685.98 87.9263 714.514 96.4764 718.037 97.4189C745.748 104.833 774.246 111.238 802.629 115.367Q811.932 116.686 821.294 117.483Q830.655 118.279 840.047 118.551Q849.439 118.822 858.831 118.568Q868.224 118.313 877.587 117.534C885.562 116.864 893.604 116.012 901.485 114.636C905.61 113.917 922.58 109.012 925.026 109.695L923.481 112.172L923.899 112.693C924.161 112.697 924.421 112.697 924.683 112.674C926.572 112.507 927.512 111.264 928.649 109.882L928.452 108.687C935.579 105.769 944.11 104.452 951.687 102.897Q979.488 97.3062 1007.66 94.071C1018.15 92.8175 1028.72 92.0239 1039.17 90.517C1044.62 90.5494 1052.95 90.5279 1058 88.8576C1068.74 88.5814 1079.47 87.5501 1090.2 87.0205Q1120.18 85.425 1150.2 85.6452Z"/>
	<path fill="#FBFEFE" d="M1137.22 153.437C1137.39 153.409 1137.55 153.381 1137.72 153.361C1139.34 153.169 1140.86 152.952 1142.21 154.1C1143.54 155.24 1143.56 155.834 1143.63 157.462C1142.96 159 1142.23 159.522 1140.77 160.313L1140.1 160.654C1138.37 160.533 1138.29 160.567 1137.13 159.252C1136.43 156.988 1136.6 155.676 1137.22 153.437Z"/>
</svg>
