<?xml version="1.0" encoding="utf-8" ?>
<svg xmlns="http://www.w3.org/2000/svg" xmlns:xlink="http://www.w3.org/1999/xlink" width="377" height="428">
	<path d="M177.095 148.626C178.045 148.398 179.044 148.552 180.01 148.623C179.024 148.707 178.072 148.84 177.095 148.626Z"/>
	<path d="M25.4853 152.625C26.6905 152.562 28.2017 152.316 29.3602 152.626C28.4323 153.004 26.5268 152.677 25.4853 152.625Z"/>
	<path d="M339.265 192.617C340.002 192.43 340.857 192.525 341.615 192.538L341.721 192.701L339.21 192.851L339.265 192.617Z"/>
	<path d="M141.489 153.616C143.049 153.463 144.567 153.546 146.127 153.633C144.552 153.806 143.063 153.764 141.489 153.616Z"/>
	<path fill="#4E5055" d="M62.9556 373.795C64.3524 374.091 65.6729 374.582 67.0505 374.911L66.5734 376.215C65.6549 375.756 64.7591 375.248 63.7536 375.013L62.9556 373.795Z"/>
	<path d="M182.821 285.77C184.433 285.704 185.916 286.041 187.484 286.359C186.302 286.558 185.105 286.662 183.912 286.787C182.781 287.165 181.964 287.481 180.749 287.345L180.551 287.049C181.158 286.359 181.991 286.11 182.821 285.77Z"/>
	<path fill="#D0E5F0" fill-opacity="0.96862745" d="M95.3532 97.125C94.2703 97.1604 93.4009 97.6939 92.3542 97.8422C91.8719 97.9105 91.1398 98.046 90.7476 97.763C91.9944 96.9842 93.3484 96.4187 94.6887 95.8234C95.6573 96.6521 96.6462 96.4408 97.881 96.4701C97.0309 96.7781 96.2647 97.0507 95.3532 97.125Z"/>
	<path fill="#363638" d="M67.0505 374.911C68.6589 375.588 70.7038 376.732 72.3997 377C72.1148 377.189 71.8277 377.367 71.5141 377.506C70.2985 378.046 67.7624 376.687 66.5734 376.215L67.0505 374.911Z"/>
	<path d="M253.049 288.94C253.492 289.031 254.082 289.106 254.488 289.306C255.138 289.628 255.268 289.938 255.519 290.588C255.421 291.422 255.129 291.748 254.575 292.361C254.079 292.272 253.447 292.201 252.995 291.977C252.408 291.685 252.292 291.264 252.126 290.683C252.259 289.913 252.544 289.524 253.049 288.94Z"/>
	<path d="M37.1092 310.367C38.2027 310.259 40.141 310.278 41.055 310.908L40.8216 311.234C39.6607 311.675 38.4079 311.552 37.1872 311.529C35.8716 311.586 34.3984 311.785 33.1911 311.172L33.3548 310.826C34.5295 310.283 35.8419 310.382 37.1092 310.367Z"/>
	<path fill="#D0E5F0" fill-opacity="0.98431373" d="M94.6887 95.8234C97.4042 94.72 99.9482 95.0373 102.816 94.8674L103.066 95.3426C102.156 96.2173 99.1759 96.4537 97.881 96.4701C96.6462 96.4408 95.6573 96.6521 94.6887 95.8234Z"/>
	<path d="M122.972 293.252C123.304 293.286 123.141 293.226 123.44 293.482L123.334 293.865C121.036 295.476 118.765 296.408 115.976 296.662L115.605 296.267C116.619 294.859 121.143 293.887 122.972 293.252Z"/>
	<path fill="#D0E5F0" fill-opacity="0.98039216" d="M317.176 56.7414C320.088 55.991 324.387 54.3026 327.355 54.7677C326.428 56.0142 320.896 57.0757 319.242 57.6121L319.166 57.2534C318.571 56.7461 317.935 56.8177 317.176 56.7414Z"/>
	<path fill="#D0E5F0" fill-opacity="0.98431373" d="M310.516 58.6051C312.752 58.0972 314.971 57.3767 317.176 56.7414C317.935 56.8177 318.571 56.7461 319.166 57.2534L319.242 57.6121C317.549 58.1994 315.637 58.7027 314.055 59.5395C312.748 59.4346 311.683 59.2251 310.516 58.6051Z"/>
	<path d="M339.698 102.662C339.972 102.68 340.24 102.698 340.51 102.746Q340.789 102.793 341.052 102.896Q341.315 102.999 341.552 103.154Q341.788 103.309 341.988 103.509Q342.188 103.709 342.342 103.946C342.632 104.384 342.756 104.864 342.625 105.379C342.443 106.101 342.025 106.417 341.416 106.789C340.523 106.786 339.42 106.828 338.784 106.082C338.402 105.634 338.251 105.1 338.37 104.521C338.543 103.679 339.044 103.166 339.698 102.662Z"/>
	<path d="M168.818 253.126C169.728 253.248 170.733 253.653 171.358 254.342C171.78 254.808 172.011 255.367 171.949 256.002C171.858 256.935 171.255 257.413 170.565 257.963C170.005 257.984 169.463 257.929 168.915 257.805C168.064 257.613 167.801 257.291 167.392 256.592C167.266 255.138 168.006 254.234 168.818 253.126Z"/>
	<path d="M221.433 266.754C221.485 267.021 221.52 267.225 221.437 267.491C220.879 269.291 214.234 273.79 212.422 274.919C212.368 274.655 212.344 274.627 212.385 274.318C212.79 271.269 219.057 268.364 221.433 266.754Z"/>
	<path fill="#D0E5F0" fill-opacity="0.98823529" d="M348.077 50.5403C348.848 50.4882 349.628 50.5117 350.401 50.5121C349.969 50.6514 349.539 50.8091 349.105 50.9389C347.365 51.4588 346.148 52.6313 344.52 53.2404C342.077 54.1549 338.793 54.1825 336.189 54.6493C334.845 54.9483 333.517 55.1143 332.149 55.2565C337.264 53.0666 342.68 51.8025 348.077 50.5403Z"/>
	<path d="M26.5379 370.292C27.6409 370.207 28.7822 370.036 29.8773 370.23L30.1509 370.494L29.9762 370.868L30.6713 371.155L30.8555 371.733C29.203 372.125 27.2912 372.243 25.7667 372.98C24.8061 372.94 24.5854 373.031 23.8689 372.418L24.1533 372.384C24.0217 372.112 23.7779 371.932 23.5626 371.723L23.2419 372C21.5616 371.87 18.8746 372.861 17.4371 372.296C19.4247 370.837 22.6852 370.603 25.0581 370.954C25.6394 370.845 26.0424 370.593 26.5379 370.292ZM26.5379 370.292C26.0424 370.593 25.6394 370.845 25.0581 370.954C25.8461 371.532 27.1663 371.329 28.0825 371.192Q29.0315 371.042 29.9762 370.868L30.1509 370.494L29.8773 370.23C28.7822 370.036 27.6409 370.207 26.5379 370.292Z"/>
	<path fill="#363638" fill-opacity="0.95294118" d="M26.5379 370.292C27.6409 370.207 28.7822 370.036 29.8773 370.23L30.1509 370.494L29.9762 370.868Q29.0315 371.042 28.0825 371.192C27.1663 371.329 25.8461 371.532 25.0581 370.954C25.6394 370.845 26.0424 370.593 26.5379 370.292Z"/>
	<path d="M96.298 294.596C98.4606 294.551 100.612 294.484 102.771 294.648C99.2637 296.382 94.6363 295.9 90.1782 298.111C89.3643 298.586 88.3591 299.289 87.4212 299.43C86.8088 299.522 86.5594 299.498 86.0758 299.138C86.12 298.446 86.2933 298.2 86.7573 297.67C89.1183 294.977 93.0043 294.796 96.298 294.596Z"/>
	<path d="M351.503 311.25C351.951 311.338 352.429 311.42 352.863 311.569C353.681 311.852 354.308 312.352 354.661 313.156C355.013 313.958 355.001 314.741 354.646 315.539C354.133 316.695 353.355 317.096 352.262 317.562C351.793 317.547 351.211 317.536 350.767 317.37C350.136 317.134 349.58 316.467 349.301 315.874C348.884 314.988 348.921 313.984 349.32 313.1C349.795 312.051 350.454 311.636 351.503 311.25Z"/>
	<path d="M333.138 258.472C333.734 258.467 334.337 258.506 334.902 258.714C335.727 259.018 336.402 259.783 336.697 260.6C336.964 261.342 336.889 262.168 336.539 262.868C336.073 263.798 335.483 264.018 334.527 264.326C333.993 264.296 333.408 264.289 332.884 264.174C332.083 263.998 331.323 263.45 330.905 262.742C330.544 262.13 330.495 261.44 330.715 260.77C331.129 259.505 332.038 259.039 333.138 258.472Z"/>
	<path d="M142.467 209.279C142.999 209.203 143.601 209.136 144.135 209.198C145.075 209.306 146.043 209.957 146.575 210.725Q146.725 210.937 146.83 211.175Q146.935 211.413 146.991 211.667Q147.046 211.921 147.051 212.18Q147.055 212.44 147.008 212.696C146.806 213.738 146.112 214.324 145.28 214.896Q144.74 214.968 144.197 214.997C143.234 215.047 142.319 214.797 141.61 214.114C141.04 213.565 140.737 212.834 140.791 212.04C140.87 210.895 141.632 209.987 142.467 209.279Z"/>
	<path d="M354.668 265.463C355.684 265.58 357.047 266.175 357.718 266.953C358.145 267.448 358.332 268.139 358.262 268.785C358.121 270.096 357.143 270.811 356.201 271.582C355.621 271.589 355.023 271.603 354.453 271.479C353.545 271.282 352.754 270.655 352.296 269.851C351.91 269.171 351.851 268.383 352.122 267.65C352.592 266.383 353.509 265.941 354.668 265.463Z"/>
	<path d="M157.343 311.274Q158.002 311.231 158.663 311.244C159.788 311.273 160.652 311.669 161.405 312.515C161.954 313.132 162.22 313.88 162.131 314.706C162.003 315.901 161.353 316.696 160.468 317.445C160 317.576 159.536 317.679 159.047 317.692C158.181 317.716 157.425 317.397 156.809 316.787C156.162 316.147 155.84 315.305 155.839 314.401C155.838 313.094 156.425 312.148 157.343 311.274Z"/>
	<path fill="#D0E5F0" d="M44.063 48.7502C47.0608 49.2281 49.9754 50.444 52.8908 51.2964C56.5775 52.3742 60.3193 53.2204 64.0177 54.2492L75.8022 56.406C75.3715 56.8435 74.8804 57.2369 74.7045 57.8433Q68.733 56.806 62.9065 55.1369C56.7862 52.8406 49.7202 52.2182 44.063 48.7502Z"/>
	<path fill="#D0E5F0" d="M65.0393 52.5605C58.4279 51.0155 51.9769 48.9442 45.5289 46.8486C41.6583 45.5907 37.3835 44.4901 33.8819 42.3556L33.8219 42.0982C37.0445 42.4581 40.7153 44.2324 43.8557 45.2031C50.819 47.3555 57.7951 49.4367 64.9139 51.0181C64.8624 51.0365 64.8116 51.057 64.7594 51.0734C63.6655 51.4164 62.3485 51.0646 61.2318 50.9144L61.3991 51.0341L60.7812 50.8591C62.1604 51.4693 63.9544 51.4183 65.0393 52.5605Z"/>
	<path fill="#B7DCED" d="M232.463 82.8132C240.54 80.4864 248.648 78.4676 256.674 75.922C262.659 74.0237 268.51 71.6592 274.449 69.6374C273.441 71.2079 270.435 71.7989 268.706 72.3423C269.269 72.6389 270.042 72.4503 270.625 72.2566C271.284 72.0372 271.583 71.866 272.283 72.0353C270.181 73.1742 267.659 73.3988 265.403 74.1278C263.005 74.9029 260.666 75.8606 258.264 76.6272Q250.922 78.8998 243.525 80.9838C240.256 81.9314 236.469 82.2853 233.402 83.7614L232.463 82.8132Z"/>
	<path d="M207.078 291.276C207.834 291.237 208.519 291.33 209.184 291.711C210.445 292.434 211.327 293.751 211.65 295.156C211.896 296.225 211.808 297.41 211.187 298.341C210.584 299.246 209.888 299.471 208.855 299.644C206.786 299.63 205.965 299.375 204.367 298.051C204.187 296.632 203.764 294.822 204.309 293.462C204.827 292.169 205.892 291.779 207.078 291.276Z"/>
	<path fill="#D0E5F0" d="M75.0947 98.8581C77.5134 98.3194 79.5901 99.3028 81.7489 100.216C82.6934 100.05 83.8972 99.7206 84.8036 100.099C83.7431 101.619 78.5718 101.873 76.6549 102.488C75.5297 102.85 74.7382 103.271 74.1887 104.351C73.9342 105.637 73.622 108.719 72.661 109.537C72.1952 109.457 72.0171 109.413 71.6628 109.062C69.9452 107.358 70.8758 103.625 70.5851 101.512C70.5 100.894 70.0075 100.575 69.5228 100.254C69.2529 100.076 69.2452 99.8788 69.1265 99.5841C70.0597 98.5869 73.6555 98.981 75.0947 98.8581Z"/>
	<path fill="#D0E5F0" d="M274.449 69.6374C277.788 69.0061 281.059 67.5582 284.299 66.5237C287.493 65.5042 290.774 64.7809 293.964 63.7456C299.527 61.9402 304.791 59.8953 310.516 58.6051C311.683 59.2251 312.748 59.4346 314.055 59.5395C313.185 60.0375 308.521 60.7117 306.989 61.1824L272.283 72.0353C271.583 71.866 271.284 72.0372 270.625 72.2566C270.042 72.4503 269.269 72.6389 268.706 72.3423C270.435 71.7989 273.441 71.2079 274.449 69.6374Z"/>
	<path fill="#B7DCED" d="M288.502 71.1242C291.343 69.9796 294.295 69.1038 297.113 67.9225C299.362 66.9796 311.379 60.8714 312.44 61.0747C312.049 62.0388 298.274 68.7175 296.416 69.5046C294.181 70.4513 291.837 71.2222 289.703 72.3835Q287.124 73.2569 284.601 74.2806C275.335 77.4314 266.429 81.6239 257.24 85.005C249.87 87.7166 242.265 89.6353 234.677 91.6157L233.836 91.2447L236.433 90.2189C239.556 89.2477 242.837 88.9102 245.929 87.8381C248.372 86.7151 251.234 86.0178 253.789 85.1349C256.674 84.1378 259.496 82.9237 262.336 81.8022C269.674 78.9046 276.791 75.4161 284.156 72.6186C285.601 72.3167 287.105 71.6218 288.502 71.1242Z"/>
	<defs>
		<linearGradient id="gradient_0" gradientUnits="userSpaceOnUse" x1="34.479057" y1="375.12683" x2="33.11541" y2="366.94028">
			<stop offset="0" stop-color="#242628" stop-opacity="0.98431373"/>
			<stop offset="1" stop-color="black"/>
		</linearGradient>
	</defs>
	<path fill="url(#gradient_0)" d="M26.5379 370.292C26.4582 370.272 26.3788 370.251 26.2989 370.232C22.3731 369.291 14.8336 371.514 13.3291 370.759L13.3049 370.418C14.6738 369.598 16.6997 369.421 18.2682 369.147C28.5107 367.358 42.3739 367.969 52.4522 370.506Q54.0042 370.903 55.5187 371.425C54.3958 372.014 53.171 371.913 52.1463 372.699C51.8122 372.731 51.9221 372.739 51.6311 372.707C46.6783 372.159 41.377 373.013 36.5182 371.99C36.4462 371.827 36.4317 371.765 36.2956 371.618C35.7947 371.076 34.948 370.893 34.2429 370.821C32.9263 370.688 31.8721 370.889 30.8555 371.733L30.6713 371.155L29.9762 370.868L30.1509 370.494L29.8773 370.23C28.7822 370.036 27.6409 370.207 26.5379 370.292Z"/>
	<path d="M29.2294 295.324L29.7351 295.646C30.1635 296.651 31.5473 299.269 32.6159 299.703C34.0274 300.276 37.2821 298.664 38.8453 299.987C39.0991 300.202 38.9987 300.445 38.9971 300.746C38.3017 301.135 35.1152 301.733 34.4405 301.32C33.7254 300.883 33.7108 300.375 32.7614 300.255C32.2128 300.593 31.6202 300.951 30.9784 301.067C28.4073 301.529 25.6654 301.179 23.0729 301.545C21.1011 301.824 19.2096 302.741 17.204 302.766C14.7619 302.797 12.344 302.092 9.9359 302.228C9.85932 302.232 9.78294 302.24 9.70645 302.245C9.40624 303.79 10.3129 305.932 10.749 307.428C7.3833 306.105 5.98296 305.354 2.34216 304.704C8.90844 300.161 21.4552 297.214 29.2294 295.324Z"/>
	<path d="M220.223 259.215C221.866 259.146 223.951 260.135 225.594 260.533C220.036 263.095 219.163 264.234 212.764 264.296C207.143 268.186 201.919 272.526 195.711 275.514C190.674 277.938 186.864 278.407 181.617 281.654C180.332 282.735 178.859 282.932 177.262 283.29C178.129 281.697 179.061 280.54 180.525 279.471C185.021 276.188 192.285 273.348 197.452 270.888C201.606 268.911 205.642 266.692 209.804 264.724C213.489 262.982 217.007 261.866 220.223 259.215Z"/>
	<path d="M178.528 334.357C179.026 334.347 179 334.334 179.372 334.666C179.912 337.239 178.319 341.842 178.138 344.635C177.904 348.255 179.181 354.391 178.179 357.546C176.908 358.21 175.172 358.313 173.758 358.549C173.326 358.364 173.06 358.123 172.711 357.816C171.538 355.33 171.918 338.292 172.583 335.367C174.145 334.345 176.695 334.469 178.528 334.357Z"/>
	<path d="M372.863 379.175C373.861 379.433 374.789 379.237 375.679 378.751C375.492 381.808 374.953 384.838 374.816 387.91C374.605 392.676 374.824 397.471 374.726 402.244C374.569 402.36 374.508 402.416 374.312 402.502C373.311 402.94 371.903 402.797 370.89 402.494C370.751 402.608 370.696 402.66 370.525 402.754C369.993 403.044 369.785 402.973 369.236 402.78C368.986 402.444 368.799 402.151 368.684 401.742C367.927 399.05 367.551 382.463 368.908 380.462C369.524 379.554 371.801 379.422 372.863 379.175Z"/>
	<path d="M313.345 279.297C315.147 279.15 317.15 279.337 318.775 280.182C319.969 280.803 320.888 281.806 321.283 283.104C321.782 284.74 321.476 286.545 320.678 288.033C319.087 291.001 316.505 292.158 313.42 293.066C310.752 293.61 309.277 293.171 306.829 292.124C306.417 291.263 305.953 290.36 305.744 289.426C305.261 287.274 305.794 284.809 307.027 282.996C308.529 280.787 310.798 279.78 313.345 279.297Z"/>
	<path d="M96.7964 333.352C97.2446 333.257 97.6532 333.286 98.1055 333.312C98.3062 333.492 98.5372 333.629 98.6373 333.884C98.972 334.735 98.9461 335.548 98.5524 336.38C97.8684 337.827 96.5761 338.461 95.1658 339.003C94.8789 339.113 94.5708 339.203 94.3131 339.376C93.332 340.034 92.9971 342.563 92.7061 343.689Q92.9184 343.59 93.1322 343.495C94.4215 342.923 96.2985 341.949 97.693 342.647C98.2642 342.934 98.3467 343.322 98.5393 343.87C98.4954 344.539 98.328 345.039 97.9683 345.609C96.9382 347.242 95.7586 347.558 94.0028 347.961C95.4161 353.752 97.6907 350.961 99.3459 353.706C99.3883 354.657 98.9842 355.301 98.5634 356.12C97.6408 357.089 96.2271 358.144 94.9206 358.473C94.1817 358.659 93.1298 358.676 92.4873 358.202C89.1441 355.74 87.635 349.242 87.1307 345.38C86.7477 342.447 86.6089 339.218 88.5957 336.793C90.5559 334.4 93.8653 333.627 96.7964 333.352Z"/>
	<path d="M130.892 378.307C134.588 379.684 144.962 377.383 148.218 378.67C148.647 378.84 148.612 378.951 148.785 379.375C148.652 380.148 148.356 380.772 147.932 381.423C147.168 382.598 145.44 384.983 144.028 385.299C142.864 384.256 142.093 381.52 141.431 380.051C139.995 380.417 138.29 380.036 137.082 381.097C136.025 382.024 136.085 384.595 135.963 385.937C135.806 388.934 135.92 391.992 136.073 394.987C136.173 396.94 136.499 399.166 136.203 401.095C136.122 401.626 136.046 401.844 135.579 402.146C134.584 402.789 133.051 403.098 131.894 402.822C131.188 402.654 130.614 402.286 130.233 401.662C129.095 399.794 128.652 382.26 129.391 379.754C129.648 378.882 130.161 378.729 130.892 378.307Z"/>
	<path d="M194.308 333.349C194.978 333.302 195.586 333.176 196.182 333.553C196.524 334.21 196.844 334.938 196.651 335.693C196.096 337.876 193.252 338.252 191.694 339.393C190.999 339.902 190.619 340.792 190.514 341.627C190.424 342.341 190.444 342.62 190.854 343.193C192.223 343.387 193.52 342.203 194.975 342.177C195.292 342.386 195.455 342.41 195.596 342.78C195.924 343.642 195.68 345.188 195.27 345.994C194.596 347.317 192.868 347.563 191.571 347.94C191.745 348.758 191.906 349.651 192.239 350.42C192.863 351.858 194.67 352.227 195.933 352.85C196.519 353.139 196.626 353.27 196.854 353.879C196.75 354.744 196.532 355.35 196.129 356.12C194.876 357.06 193.404 358.309 191.808 358.513C191.046 358.61 190.37 358.466 189.781 357.959C186.773 355.37 184.67 349.079 184.26 345.258C183.959 342.44 183.878 339.34 185.788 337.032C187.835 334.56 191.243 333.649 194.308 333.349Z"/>
	<path d="M55.1271 333.326C55.7573 333.219 56.3639 333.272 56.9991 333.309C57.4258 333.686 57.4483 333.739 57.5006 334.309C57.9079 338.753 54.0777 337.66 52.2016 340.093C51.4929 341.013 51.3352 342.148 51.514 343.269C51.692 343.357 55.7076 342.27 56.7833 342.171C56.7902 343.331 56.9584 344.87 56.4325 345.937C55.77 347.282 53.9541 347.605 52.656 348.013C52.8881 349.078 53.0766 350.361 53.7774 351.227C54.7411 352.419 56.553 352.468 57.9519 352.674C57.8603 353.822 57.86 354.999 57.3161 356.039C56.1868 357.063 54.7742 358.223 53.2415 358.516C52.4411 358.669 51.5716 358.615 50.902 358.109C47.9072 355.847 45.7928 349.364 45.3246 345.792C44.9425 342.877 44.8065 339.558 46.7366 337.131C48.7504 334.599 52.0526 333.707 55.1271 333.326Z"/>
	<path d="M159.379 334.109C160.059 334.049 160.809 334.159 161.376 334.542C161.435 335.215 159.672 338.426 159.323 339.471C158.355 342.361 157.938 345.177 157.61 348.192C159.039 347.246 160.682 346.304 162.317 345.784C163.061 345.547 164.126 345.317 164.849 345.74C166.639 346.788 167.885 350.482 168.438 352.354C168.815 353.63 169.34 355.915 168.554 357.109C168.107 357.786 167.522 357.703 166.793 357.794C163.582 357.736 153.881 358.512 151.596 357.484C151.035 356.72 150.946 355.691 150.899 354.765C150.718 351.198 152.215 337.119 154.502 334.888C155.387 334.025 158.146 334.161 159.379 334.109ZM158.715 349.144C157.758 350.232 157.435 351.819 157.55 353.255C157.62 354.132 157.988 355.272 158.697 355.843C159.155 356.211 159.828 356.326 160.395 356.411C161.271 355.262 161.575 353.532 161.364 352.095C161.237 351.226 160.911 350.149 160.173 349.597C159.781 349.304 159.192 349.192 158.715 349.144Z"/>
	<path d="M355.293 378.299C355.942 378.589 356.59 378.796 357.273 378.992C357.805 379.92 356.74 381.109 356.288 381.943C354.915 384.473 353.891 389.654 353.99 392.504C355.989 392.704 357.628 390.207 359.689 390.104C360.373 390.07 360.925 390.368 361.417 390.821C363.542 392.778 364.975 397.657 364.947 400.472C364.939 401.27 364.799 401.857 364.227 402.42C363.572 402.624 363.255 402.54 362.612 402.326C361.067 403.02 349.407 402.891 347.597 402.39C347.175 402.058 347.022 401.685 346.877 401.182C345.858 397.658 348.198 386.214 349.384 382.467C349.732 381.368 350.292 380.344 350.835 379.331C351.733 379.431 354.464 378.709 355.293 378.299ZM354.841 394.036C353.894 395.305 353.829 396.88 354.063 398.404C354.188 399.22 354.388 400.228 355.099 400.745C355.475 401.018 355.783 400.945 356.23 400.958L356.881 400.552C357.553 399.993 357.834 399.291 357.927 398.417C358.054 397.213 357.632 395.754 356.819 394.84C356.412 394.382 355.889 394.28 355.319 394.146C355.22 394.123 355.121 394.097 355.021 394.074C354.961 394.06 354.901 394.049 354.841 394.036Z"/>
	<path d="M180.993 427.685C181.924 423.501 182.448 419.147 182.207 414.86C181.798 407.585 178.828 393.531 180.421 386.847C181.03 384.291 183.673 380.27 185.953 378.871C186.664 378.434 187.137 378.377 187.942 378.54C188.943 379.154 189.33 380.008 189.608 381.124C190.809 385.96 190.806 397.07 188.159 401.183C187.97 401.478 187.814 401.695 187.524 401.891C186.951 402.497 186.259 403.09 185.391 403.183C185.338 403.188 185.284 403.183 185.23 403.183C185.658 407.797 186.495 422.937 183.621 426.347C183.159 426.894 182.366 427.308 181.761 427.684L180.993 427.685ZM184.257 387.292C183.584 390.026 183.782 394.823 185.059 397.308L185.476 397.539C186.022 397.261 186.151 397.091 186.438 396.579C187.102 396.066 187.264 395.343 187.377 394.537C187.633 392.704 187.208 390.165 186.052 388.695C185.541 388.045 185.016 387.607 184.257 387.292Z"/>
	<path d="M185.361 390.083C186.172 391.008 185.298 392.248 185.646 393.339L185.438 393.301C185.096 392.798 185.443 390.843 185.361 390.083Z"/>
	<path d="M315.303 378.305C316.95 378.832 319.672 378.497 321.443 378.505C325.7 378.525 329.957 378.68 334.215 378.692C336.539 378.699 338.963 378.413 341.273 378.605C341.973 378.664 342.542 378.773 343.155 379.125C344.001 380.457 343.567 382.343 343.417 383.84C342.96 384.789 342.117 385.85 341.322 386.544C340.791 387.007 340.49 387.025 339.81 386.995C338.249 386.088 337.609 383.148 336.77 381.564C335.572 381.74 334.788 380.617 333.411 381.247C331.236 385.01 332.782 395.763 332.737 400.437C332.74 400.798 332.789 401.268 332.711 401.616C332.63 401.976 332.51 402.092 332.21 402.281C330.773 403.187 328.25 402.87 326.67 402.497C325.037 398.684 326.961 382.598 325.903 380.802C325.542 380.656 325.236 380.55 324.842 380.529C323.657 380.464 321.124 380.343 320.266 381.238C319.195 382.358 319.489 391.194 319.574 393.039C318.724 393.704 316.922 394.192 315.846 394.206C315.181 394.215 314.597 393.927 314.16 393.433C312.45 391.501 313.039 385.946 313.229 383.521C313.395 381.409 313.641 379.746 315.303 378.305Z"/>
	<path d="M139.544 334.362Q142.108 334.256 144.67 334.11C143.909 337.215 143.39 340.307 143.151 343.497C142.952 346.144 143.71 356.854 142.531 358.253C140.934 358.861 139.086 358.336 137.462 358.048C136.151 353.714 135.838 348.601 136.451 344.105C134.267 344.031 132.096 343.794 129.906 343.749C129.583 346.969 129.551 350.327 129.506 353.562C129.477 354.926 129.502 356.292 129.507 357.656C127.562 357.985 125.226 358.549 123.269 358.363C123.059 358.194 123.028 358.193 122.862 357.926C121.107 355.094 123.696 338.972 124.354 334.961C125.849 334.778 127.53 334.434 129.03 334.536C129.904 334.595 130.359 334.8 130.937 335.447C131.659 337.283 130.842 339.389 130.391 341.225C132.433 341.398 134.482 341.689 136.519 341.922C136.45 339.898 136.24 336.823 137.398 335.095C137.902 334.342 138.734 334.449 139.544 334.362Z"/>
	<path d="M305.753 378.315C306.313 378.569 306.394 378.59 306.72 379.103C306.837 381.36 306.277 383.865 306.032 386.131C305.769 388.575 305.727 391.034 305.775 393.491C305.815 395.541 306.462 400.158 305.809 401.94C305.622 402.45 305.285 402.633 304.801 402.801C303.465 403.264 301.003 402.935 299.735 402.331C298.606 399.407 299.202 391.996 299.222 388.656C299.004 388.781 298.855 388.874 298.601 388.911C297.174 389.115 293.659 388.947 292.524 388.07C292.627 391.631 292.809 398.189 291.812 401.554C291.625 402.124 291.626 402.216 291.156 402.576C289.511 402.888 286.871 403.307 285.299 402.651C284.026 395.239 285.82 387.045 286.754 379.678C288.743 380.449 291.478 378.589 293.597 379.718C294.563 381.312 293.356 384.215 293.442 386.066C293.496 386.095 293.546 386.131 293.603 386.153C294.432 386.482 298.412 386.455 299.274 386.139C299.294 384.473 299.191 382.664 299.44 381.019C299.549 380.297 299.754 379.953 300.332 379.523C301.825 379.405 304.358 379.26 305.612 378.418C305.66 378.386 305.706 378.35 305.753 378.315ZM287.333 382.16C287.236 383.532 286.457 385.55 286.752 386.786L286.958 386.696C287.222 385.537 287.911 383.351 287.506 382.304L287.333 382.16Z"/>
	<path d="M287.333 382.16L287.506 382.304C287.911 383.351 287.222 385.537 286.958 386.696L286.752 386.786C286.457 385.55 287.236 383.532 287.333 382.16Z"/>
	<path d="M217.887 378.302C218.46 378.552 218.717 378.71 219.066 379.234C219.206 382.287 218.108 385.67 217.92 388.793C217.689 392.635 218.744 398.527 217.865 401.879C217.745 402.338 217.664 402.542 217.224 402.755C216.023 403.336 213.557 402.816 212.332 402.396C210.761 400.008 211.272 392.102 211.479 389.131C210.231 390.627 206.47 392.133 204.661 392.997C204.325 396.014 204.451 399.184 204.432 402.223C204.229 402.347 204.232 402.355 203.971 402.458C202.832 402.909 201.711 402.837 200.621 402.324C200.023 402.718 199.071 402.993 198.359 402.891C198.008 402.84 197.759 402.739 197.557 402.44C195.762 399.785 198.622 383.191 199.349 379.44C200.525 380.026 203.141 379.398 204.548 379.451C204.878 379.464 205.508 379.478 205.709 379.785C206.78 381.423 205.094 387.451 204.774 389.436C205.041 389.524 205.284 389.573 205.567 389.555C207.255 389.449 210.344 387.562 211.459 386.305C211.462 383.895 211.766 381.603 212.2 379.241C212.287 379.267 212.371 379.303 212.46 379.318C213.707 379.533 216.86 379.042 217.887 378.302Z"/>
	<path d="M236.27 378.333C237.562 378.712 239.26 378.41 240.619 378.49C243.842 378.679 247.482 380.323 249.626 382.758C251.751 385.171 251.872 387.603 251.709 390.678C251.482 391.251 251.178 391.745 250.818 392.243C249.409 394.191 247.056 395.915 244.651 396.292C245.169 397.022 247.706 399.448 248.463 400.06C248.725 403.055 248.855 407.165 246.794 409.597C244.667 412.107 239.631 415.313 236.299 415.521C233.156 415.717 231.12 411.795 228.971 410.014C227.431 408.738 225.37 409.423 223.534 409.561L223.261 409.286C223.768 408.055 225.549 406.847 226.692 406.223C230.167 404.329 232.119 407.235 235.124 408.057C235.238 408.251 235.336 408.419 235.497 408.579C236.461 409.539 238.385 411.099 239.737 411.17C239.976 411.151 240.153 411.107 240.355 410.969C241.667 410.073 242.441 408.291 242.785 406.792C243.186 405.04 243.327 402.173 242.233 400.64C240.992 398.898 236.878 399.937 234.954 399.618C234.124 399.48 233.846 399.233 233.376 398.575C233.279 397.694 233.25 396.834 233.497 395.971C233.68 395.331 234.053 394.737 234.646 394.413C236.982 393.135 240.094 394.715 242.395 395.321C243.173 395.525 243.604 395.465 244.292 395.055C245.091 393.775 245.761 392.588 245.845 391.036C246.003 388.109 244.256 384.217 242.352 382.06C241.845 381.486 241.182 381.092 240.673 380.52C240.594 380.431 240.517 380.341 240.439 380.252C238.575 380.97 235.541 380.325 233.901 381.821C232.565 383.04 232.438 385.789 232.374 387.452C232.15 387.623 231.991 387.741 231.724 387.839C230.467 388.302 228.162 388.48 226.958 387.9C227.139 386.223 227.412 384.556 227.667 382.888C228.842 382.423 229.787 380.984 230.943 380.358C232.534 379.497 234.458 379.145 236.12 378.402L236.27 378.333Z"/>
	<path d="M65.9219 334.388C71.0362 334.275 76.15 334.163 81.2645 334.312C80.2031 337.394 78.4635 340.197 75.7951 342.141L75.5552 342.314L75.4957 342.751L75.8715 342.943C76.1487 342.891 76.4251 342.841 76.705 342.806C77.1729 342.748 77.3527 342.784 77.7189 343.087C81.1076 345.89 81.791 351.355 82.2144 355.441C82.2417 355.973 82.2058 356.49 82.1692 357.02C81.8628 357.437 81.7855 357.636 81.25 357.756C79.8264 358.076 76.4545 357.757 74.7739 357.831C71.8312 357.962 68.8733 358.447 65.9341 358.484C65.2317 358.493 64.5981 358.566 64.0025 358.175C61.7742 354.648 64.2085 340.549 65.0202 336.399C65.1865 335.549 65.1865 334.887 65.9219 334.388ZM71.1689 344.33C70.3961 346.232 69.8583 354.68 70.5736 356.49C71.6921 356.548 72.8484 356.333 73.9497 356.14C74.6425 355.794 75.2253 355.667 75.4742 354.859C76.2261 352.419 74.5856 348.728 73.3025 346.718C72.7937 345.922 72.0323 344.736 71.1689 344.33ZM73.2376 336.029C72.2618 336.783 71.4787 339.092 71.3316 340.33C71.2448 341.06 71.2606 341.401 71.6344 342.017C72.5016 342.104 72.941 341.606 73.6063 341.085C74.4964 340.405 76.0436 338.846 76.2671 337.726C76.3996 337.061 76.2348 336.771 75.9007 336.214C75.0894 335.741 74.1396 335.954 73.2376 336.029Z"/>
	<path d="M269.251 378.033C269.64 378.135 269.486 378.114 269.867 378.141C270.479 378.184 271.097 378.212 271.704 378.303C273.602 378.584 275.522 380.187 276.61 381.728C278.51 384.42 278.92 388.102 278.31 391.279C277.615 394.892 275.841 397.761 272.77 399.797C271.344 400.743 268.044 402.765 266.372 402.425C266.281 402.496 266.195 402.573 266.1 402.637C265.448 403.076 264.484 403.126 263.733 402.979C262.225 402.683 261.025 401.358 260.178 400.152C258.026 397.087 256.823 393.141 257.546 389.42C258.919 382.346 263.994 381.581 269.105 378.135C269.154 378.102 269.202 378.067 269.251 378.033ZM265.024 382.553C263.311 384.262 262.806 386.125 262.798 388.505C262.789 391.271 263.754 394.748 265.749 396.761C266.642 397.661 268.105 398.245 269.384 398.229C269.756 398.225 270.046 398.087 270.377 397.935C270.94 398.006 271.034 398.073 271.498 397.685C272.363 396.962 272.487 395.291 272.524 394.227C272.642 390.903 271.994 386.522 269.53 384.057C268.424 382.95 266.513 382.793 265.024 382.553Z"/>
	<path d="M164.215 378.055C164.948 378.227 165.732 378.181 166.476 378.345C168.575 378.808 170.725 380.549 171.87 382.335C173.606 385.045 173.798 388.728 173.091 391.794C172.175 395.763 169.753 398.499 166.335 400.591C165.18 401.298 162.705 402.687 161.383 402.377C160.345 402.901 159.447 403.125 158.289 402.861C156.53 402.461 155.33 400.918 154.435 399.459C152.338 396.038 151.636 392.07 152.642 388.155C154.044 382.698 159.693 380.737 164.027 378.168L164.215 378.055ZM159.488 382.553C157.734 384.36 157.399 386.316 157.447 388.784Q157.457 389.362 157.523 389.936Q157.589 390.51 157.71 391.074Q157.832 391.639 158.008 392.189Q158.185 392.739 158.414 393.27Q158.643 393.8 158.923 394.305Q159.203 394.811 159.531 395.286Q159.859 395.762 160.232 396.203Q160.605 396.644 161.019 397.047C162.017 397.999 163.158 398.357 164.516 398.284C165.07 398.254 165.266 398.112 165.704 397.794C166.421 397.618 166.608 397.438 166.965 396.764C168.205 394.425 168.051 391.149 167.142 388.737C166.157 386.122 164.568 385.044 163.324 382.923C162.213 383.147 160.585 382.841 159.488 382.553Z"/>
	<path d="M29.6306 323.573C31.6154 323.327 33.4733 323.506 35.2895 324.374C38.3091 325.816 40.6241 328.727 41.735 331.828C38.9845 332.741 35.9217 333.16 33.0692 333.668Q32.3573 332.295 31.4105 331.071C30.2442 329.555 28.7605 328.25 26.7797 328.042C25.4813 327.906 24.2987 328.266 23.3113 329.125C20.9194 331.203 20.0478 335.428 19.8224 338.429C19.5037 342.671 20.5235 349.561 23.4942 352.823C24.409 353.828 25.5843 354.475 26.9659 354.458C29.4059 354.428 31.289 352.488 32.9221 350.927C33.2996 350.501 33.767 350.143 34.2319 349.815C35.0299 349.252 35.7308 349.113 36.6843 349.272C36.9606 349.474 37.2053 349.538 37.2755 349.896C37.454 350.807 36.8029 351.895 36.3316 352.65C34.2407 355.999 30.3718 358.62 26.5031 359.419C24.0375 359.928 21.5614 359.634 19.4479 358.213C16.4958 356.228 13.9042 352.506 13.2753 348.995C12.2531 343.288 12.6051 335.255 16.0006 330.427C19.1776 325.909 24.4182 324.441 29.6306 323.573Z"/>
	<path fill="#B7DCED" d="M104.855 71.9841C97.1934 71.8172 89.5363 72.6518 81.8755 72.7461C66.0738 72.9408 50.9316 70.5117 35.8027 66.1304C33.1122 65.3512 25.5635 63.3102 23.5479 62.009L23.6986 61.8062C25.868 61.1174 36.8516 63.2857 40.0771 63.6917Q58.9544 66.1493 77.9894 66.3944C85.4524 66.6072 93.6077 67.0648 101.002 66.0468L101.372 65.9948C106.167 67.4618 139.119 63.8705 145.868 62.8128C147.295 62.786 150.898 62.0713 151.958 62.7772C151.549 63.293 151.26 62.7074 151.026 63.4168Q139.948 65.9573 128.754 67.9255C124.441 68.6933 107.465 70.6348 104.855 71.9841Z"/>
	<path d="M105.528 381.545C109.368 378.356 105.782 358.034 105.308 353.177C105.131 351.361 104.872 344.617 105.214 342.908C105.79 340.033 108.558 335.779 111.027 334.152C111.758 333.671 112.204 333.525 113.064 333.685C113.467 333.927 113.728 334.136 113.977 334.544C116.204 338.193 115.873 348.027 114.879 352.062C114.211 354.776 113.285 357.121 110.786 358.591L110.509 358.753C111.304 366.602 110.766 374.262 109.411 382.006C108.964 383.113 108.019 384.105 107.128 384.878C104.831 386.872 101.673 387.057 98.7761 387.096C96.3137 387.129 93.769 387.151 91.3275 386.796C86.5535 386.104 79.6767 383.661 74.922 382.074C72.5587 381.285 69.8085 379.922 67.3237 379.767L67.0317 380.034C66.9933 382.167 68.8957 384.188 69.4931 386.198C69.6528 386.735 69.683 387.03 69.4327 387.514C69.1461 387.401 68.87 387.283 68.592 387.149L68.3261 387.019L68.0895 387.264C68.0636 388.537 68.8041 389.496 69.1669 390.677C69.3953 391.42 69.5106 392.704 69.0068 393.379C68.6681 393.832 68.4362 393.848 67.9187 393.978C67.2845 393.486 67.1565 393.092 66.9559 392.311C66.8761 392 66.8129 391.671 66.6913 391.373C66.4495 390.78 66.2225 390.284 65.653 389.999L65.4708 390.24C65.3377 391.724 66.4241 393.041 66.5681 394.504C66.6423 395.257 66.2748 395.751 65.7603 396.255C64.7106 397.285 63.4666 397.39 62.0859 397.319L61.7463 397.299C61.1375 397.902 61.6864 398.837 61.2219 399.628C59.7321 399.89 58.5038 397.905 57.1547 397.561L56.9402 397.986C57.1211 398.722 57.2687 399.317 57.1853 400.076C56.7571 400.575 56.7456 400.62 56.1102 400.763C55.6474 400.491 55.3062 400.246 54.7468 400.27C54.7042 400.711 54.6325 401.119 54.5296 401.55L53.9739 401.672C52.7179 401.259 53.3293 400.914 52.5098 400.217C51.6027 400.488 51.0246 401.545 50.4705 402.275C49.817 402.548 49.7514 402.518 49.0932 402.382C48.9084 402.113 48.7325 401.848 48.5692 401.566L48.435 401.328C48.0491 401.44 47.7178 401.465 47.317 401.476C46.8137 401.22 46.557 401.013 46.2374 400.537C44.8624 398.49 46.3424 397.896 47.1583 396.102C47.4814 395.392 47.6487 394.554 47.8137 393.792C47.4644 394.215 47.0461 394.83 46.558 395.091C46.1102 395.33 45.9359 395.217 45.4898 395.077L45.3783 394.615L45.7485 394.066C46.4723 393.814 47.0193 393.696 47.447 393.028C47.2544 392.02 45.458 391.411 44.9236 390.095C45.65 390.604 46.3681 390.893 47.2284 391.113C47.8782 391.278 48.2203 391.445 48.8055 391.112L48.6926 390.765C47.1331 389.545 46.8043 390.644 45.2423 390.405C45.9811 388.66 47.8772 389.04 48.8909 386.516C49.2586 387.096 49.756 387.61 50.2708 388.061C51.3573 389.014 52.4661 389.77 53.9664 389.667L53.7977 389.543C52.5196 388.59 52.4517 388.163 52.2343 386.667C51.1452 385.809 49.8671 386.607 48.7158 386.192C48.3137 386.047 48.1415 385.791 48.0482 385.378C47.9225 384.821 48.0989 384.424 48.4232 384.011C49.338 383.755 50.3658 384.185 51.2614 384.426L51.3761 384.23C50.8105 383.628 50.2007 383.092 49.5799 382.55C49.4741 381.996 49.4636 382.024 49.7605 381.546C51.1682 380.975 53.0017 382.246 54.4073 382.515L54.6976 382.231C53.9582 380.997 52.0456 380.995 51.5375 379.538C51.6739 379.272 51.7999 379.115 52.0579 378.957C54.6877 377.342 57.7301 377.596 60.5866 378.34L60.7553 378.662L60.1214 379.398C60.192 379.587 60.2023 379.654 60.3522 379.826C60.8458 380.394 62.3013 381.453 63.0444 381.517L63.2116 381.262C62.6283 380.054 61.556 379.304 60.8348 378.179C60.7949 378.117 60.7564 378.054 60.7172 377.991C61.8524 378.737 63.5755 379.614 64.9314 379.84C65.4578 379.928 65.7048 379.739 66.0758 379.412L65.8429 379.076C62.6169 378.167 59.4682 377.077 56.1936 376.343C47.4467 374.382 35.3837 373.739 26.6662 375.806C22.7885 376.725 18.6629 378.449 15.0467 380.142C13.363 380.93 6.05957 384.575 4.77833 384.594C4.12933 384.604 3.87612 384.331 3.43066 383.937C3.43645 383.801 3.35454 383.627 3.44803 383.528C3.90548 383.041 12.1322 381.827 14.7729 378.12L14.9481 377.87C12.4981 379.606 10.1332 379.317 7.4366 380.256C5.9809 380.763 4.64947 381.63 3.20257 382.18C2.5568 382.426 1.97591 382.587 1.32353 382.303L1.22624 381.912C1.26471 381.851 1.29775 381.787 1.34163 381.73C3.37323 379.102 18.1763 373.799 21.7986 373.094C22.4389 372.814 22.7906 372.531 23.2419 372L23.5626 371.723C23.7779 371.932 24.0217 372.112 24.1533 372.384L23.8689 372.418C24.5854 373.031 24.8061 372.94 25.7667 372.98C27.2912 372.243 29.203 372.125 30.8555 371.733C31.8721 370.889 32.9263 370.688 34.2429 370.821C34.948 370.893 35.7947 371.076 36.2956 371.618C36.4317 371.765 36.4462 371.827 36.5182 371.99C41.377 373.013 46.6783 372.159 51.6311 372.707C51.9221 372.739 51.8122 372.731 52.1463 372.699C53.171 371.913 54.3958 372.014 55.5187 371.425C57.8763 372.187 60.5417 373.425 62.9556 373.795L63.7536 375.013C64.7591 375.248 65.6549 375.756 66.5734 376.215C67.7624 376.687 70.2985 378.046 71.5141 377.506C71.8277 377.367 72.1148 377.189 72.3997 377C73.4772 377.567 74.8771 377.868 76.037 378.298C82.2384 380.595 91.2101 384.1 97.8028 384.171C100.583 384.2 103.488 383.528 105.528 381.545ZM109.266 342.543C108.827 344.809 108.716 350.486 110.02 352.482C110.083 352.578 110.152 352.67 110.218 352.764C110.793 352.817 110.784 352.776 111.262 352.439C112.59 350.007 112.45 347.512 111.885 344.861C111.181 344.013 110.415 342.745 109.266 342.543ZM30.8555 371.733C29.203 372.125 27.2912 372.243 25.7667 372.98C24.856 373.211 23.7502 373.414 23.1521 374.212C22.9916 374.427 22.9461 374.615 22.9188 374.871C27.2822 373.27 31.9618 372.746 36.5182 371.99C36.4462 371.827 36.4317 371.765 36.2956 371.618C35.7947 371.076 34.948 370.893 34.2429 370.821C32.9263 370.688 31.8721 370.889 30.8555 371.733ZM49.9752 390.335L49.6221 391.021C50.2234 392.113 51.7333 393.903 52.9743 394.235C53.2631 394.312 53.3522 394.256 53.6307 394.188L53.9736 393.886C53.9826 393.071 53.4427 392.094 52.8315 391.524C51.9607 390.712 51.1105 390.519 49.9752 390.335ZM23.2419 372C22.7906 372.531 22.4389 372.814 21.7986 373.094L22.1257 373.542C21.3679 374.621 19.327 373.91 19.0145 375.405C19.3576 375.709 19.3149 375.644 19.7542 375.617C20.7541 375.557 22.0065 375.286 22.9188 374.871C22.9461 374.615 22.9916 374.427 23.1521 374.212C23.7502 373.414 24.856 373.211 25.7667 372.98C24.8061 372.94 24.5854 373.031 23.8689 372.418L24.1533 372.384C24.0217 372.112 23.7779 371.932 23.5626 371.723L23.2419 372ZM54.0167 383.542C54.0593 383.732 54.1124 384.264 54.2093 384.403C55.0239 385.568 57.6452 387.409 58.816 388.882C59.077 388.947 59.1536 389.011 59.4144 388.92C59.296 387.49 57.9191 385.778 56.8585 384.88C56.108 384.244 55.3456 383.988 54.4363 383.683L54.1747 383.593C54.1222 383.575 54.0694 383.559 54.0167 383.542ZM50.2969 394.028C50.1395 394.473 49.9246 394.727 50.1304 395.176C50.6307 396.268 51.6127 397.041 52.5351 397.76L53.1341 397.675C53.3075 396.959 53.1133 396.16 52.7023 395.549C52.1058 394.661 51.2748 394.34 50.2969 394.028ZM49.2359 397.524C49.0201 398.342 48.9736 398.494 49.2219 399.293C49.6252 399.568 49.7938 399.713 50.3134 399.55C50.4591 399.504 50.6122 399.373 50.7325 399.28L50.9916 398.881C50.7198 398.254 50.5238 397.995 49.8912 397.685C49.6899 397.586 49.4532 397.56 49.2359 397.524Z"/>
	<path fill="#161519" fill-opacity="0.97647059" d="M23.2419 372L23.5626 371.723C23.7779 371.932 24.0217 372.112 24.1533 372.384L23.8689 372.418C24.5854 373.031 24.8061 372.94 25.7667 372.98C24.856 373.211 23.7502 373.414 23.1521 374.212C22.9916 374.427 22.9461 374.615 22.9188 374.871C22.0065 375.286 20.7541 375.557 19.7542 375.617C19.3149 375.644 19.3576 375.709 19.0145 375.405C19.327 373.91 21.3679 374.621 22.1257 373.542L21.7986 373.094C22.4389 372.814 22.7906 372.531 23.2419 372Z"/>
	<path fill="#363638" d="M55.5187 371.425C57.8763 372.187 60.5417 373.425 62.9556 373.795L63.7536 375.013C63.6872 375 63.6176 374.998 63.5545 374.973C61.555 374.205 54.7087 373.157 52.1463 372.699C53.171 371.913 54.3958 372.014 55.5187 371.425Z"/>
	<path fill="#363638" fill-opacity="0.98823529" d="M30.8555 371.733C31.8721 370.889 32.9263 370.688 34.2429 370.821C34.948 370.893 35.7947 371.076 36.2956 371.618C36.4317 371.765 36.4462 371.827 36.5182 371.99C31.9618 372.746 27.2822 373.27 22.9188 374.871C22.9461 374.615 22.9916 374.427 23.1521 374.212C23.7502 373.414 24.856 373.211 25.7667 372.98C27.2912 372.243 29.203 372.125 30.8555 371.733Z"/>
	<path fill="#B7DCED" d="M217.287 29.4512C218.745 30.166 230.02 26.5202 232.249 25.9578C237.567 24.6158 242.811 22.9375 248.211 21.9598C254.159 20.883 260.213 20.471 266.14 19.1808C278.366 16.5192 290.297 11.0034 303.098 11.8852C311.397 12.4569 321.853 15.5599 329.32 19.0944C330.769 19.7803 331.952 20.9421 333.419 21.5843C337.697 23.4573 342.044 24.6408 346.141 26.9919C352.004 30.3562 354.971 36.38 360.93 40.5917L360.57 40.4965C357.086 39.553 353.92 37.5872 350.766 35.8887C347.834 34.3096 344.848 32.8579 341.894 31.3257C338.482 29.5566 335.265 27.7175 331.61 26.474C322.506 23.3763 313.334 21.9726 303.869 20.592C293.361 19.0591 282.192 18.1661 271.637 19.7859C268.358 20.2892 265.11 21.3616 261.928 22.2851C257.28 23.634 252.578 25.0163 248.033 26.6846C241.331 29.145 234.717 32.0372 228.069 34.6615C223.804 36.3448 219.594 38.3949 215.249 39.8407C213.242 39.8458 192.458 47.187 188.222 48.4239C181.542 50.3747 174.798 52.458 168.053 54.1419C147.14 59.3624 125.05 62.446 103.462 61.8436C95.8261 61.1358 88.2817 59.9126 80.6966 58.8095Q77.6846 58.4251 74.7045 57.8433C74.8804 57.2369 75.3715 56.8435 75.8022 56.406Q78.948 56.8073 82.0631 57.4012C86.0788 57.6845 92.1489 59.1458 95.941 58.1602L95.8337 57.9245C92.5735 56.8961 88.5198 56.8361 85.1144 56.4215C78.862 55.6604 70.9971 54.4418 65.0393 52.5605C63.9544 51.4183 62.1604 51.4693 60.7812 50.8591L61.3991 51.0341L61.2318 50.9144C62.3485 51.0646 63.6655 51.4164 64.7594 51.0734C64.8116 51.057 64.8624 51.0365 64.9139 51.0181C67.6792 50.9359 70.714 52.2624 73.4432 52.748C78.1921 53.5929 98.6772 56.4048 102.25 55.0537C104.566 54.9152 106.984 55.1661 109.318 55.1223Q117.925 54.98 126.47 53.9446C154.753 50.3994 181.448 40.1467 208.695 32.3554C211.509 31.5782 214.72 30.833 217.287 29.4512Z"/>
	<defs>
		<linearGradient id="gradient_1" gradientUnits="userSpaceOnUse" x1="160.72192" y1="48.096931" x2="153.31581" y2="0.18070099">
			<stop offset="0" stop-color="#FFF07E"/>
			<stop offset="1" stop-color="#FBF8CB"/>
		</linearGradient>
	</defs>
	<path fill="url(#gradient_1)" d="M150.617 0L160.922 0L169.328 0L178.362 0C178.418 0.0416301 178.473 0.0844174 178.529 0.12489C181.124 1.98331 184.775 2.66411 187.694 3.93965C197.358 8.16227 206.582 14.3842 213.414 22.4556C214.565 23.8158 217.16 26.4361 217.389 28.2564C217.439 28.6542 217.357 29.0611 217.287 29.4512C214.72 30.833 211.509 31.5782 208.695 32.3554C181.448 40.1467 154.753 50.3994 126.47 53.9446Q117.925 54.98 109.318 55.1223C106.984 55.1661 104.566 54.9152 102.25 55.0537C102.222 54.9821 102.191 54.9114 102.165 54.8389C100.671 50.6182 105.917 38.8796 108.003 34.8763C112.632 25.9952 121.339 17.0321 129.491 11.34C132.18 9.46284 135.036 7.92821 137.91 6.37026C139.766 5.36419 141.683 3.99705 143.697 3.36245C145.991 2.37022 148.575 1.43839 150.617 0Z"/>
	<path fill="#F9F6D8" d="M150.617 0L160.922 0C158.099 1.15634 154.288 -0.00500097 151.275 0.743252C149.001 1.30831 146.142 3.9036 143.83 3.38815C143.786 3.37835 143.742 3.37101 143.697 3.36245C145.991 2.37022 148.575 1.43839 150.617 0Z"/>
	<path fill="#F9F6D8" d="M169.328 0L178.362 0C178.418 0.0416301 178.473 0.0844174 178.529 0.12489C181.124 1.98331 184.775 2.66411 187.694 3.93965C197.358 8.16227 206.582 14.3842 213.414 22.4556C214.565 23.8158 217.16 26.4361 217.389 28.2564C217.439 28.6542 217.357 29.0611 217.287 29.4512C214.72 30.833 211.509 31.5782 208.695 32.3554C210.6 30.3535 215.422 30.9937 216.825 28.7445C216.853 28.4041 216.863 28.1478 216.715 27.8299C216.12 26.545 214.903 25.2898 214.063 24.1423C207.535 15.2206 196.89 8.59979 186.919 4.23329C185.498 3.61096 183.991 3.30162 182.571 2.70841C181.195 2.13372 179.755 1.06812 178.331 0.70413C175.562 -0.00366249 172.155 1.05382 169.5 0.0700215C169.442 0.0485778 169.386 0.0233405 169.328 0Z"/>
	<path fill="#B7DCED" d="M218.255 43.4213C223.276 41.4913 229.102 41.4702 234.326 40.1536C240.761 38.5315 247.016 36.2538 253.395 34.4595C262.379 31.9329 284.285 26.6423 293.029 28.8598C291.541 29.2668 289.914 29.6152 288.513 30.2602C284.544 32.0872 281.14 36.4084 277.503 39.0701C272.278 42.8926 266.838 45.5686 260.715 47.645C256.829 48.9628 253.111 49.6647 248.981 49.4175C242.965 49.0572 239.101 46.8559 233.193 49.7136Q232.779 49.9146 232.37 50.1273C231.354 50.6542 229.621 51.3386 228.947 52.2485C227.82 51.9371 218.496 56.0658 217.048 56.88C216.92 56.9518 216.799 57.0342 216.676 57.1136L213.449 58.5176C210.963 58.5582 209.317 58.9433 207.54 60.7774Q206.864 61.4796 206.209 62.2017C194.594 67.3928 183.576 73.8575 171.924 78.9607C166.349 81.4022 160.659 83.9636 154.9 85.9285C150.941 87.2792 146.699 88.1697 142.816 89.6927C137.416 89.3472 134.814 91.1521 129.855 92.1063C126.707 92.5494 123.513 92.6104 120.341 92.7393C117.114 93.2221 113.322 93.8671 110.252 94.943C108.416 95.2965 106.072 94.5197 104.301 94.0254L104.263 93.7161C99.268 92.9411 94.2133 92.6517 89.2187 91.8876C83.0537 90.9445 76.9827 89.4679 70.7605 88.902C62.647 88.1641 54.467 88.0489 46.3448 87.3248C42.0946 86.9459 37.8866 86.0473 33.6397 85.5724C29.2763 85.0844 22.2166 84.5983 18.1627 83.265L18.2643 82.9274C18.579 82.7446 18.8104 82.6493 19.1765 82.5974C20.7663 82.3719 22.3958 82.4315 23.9968 82.2603C32.4628 81.3547 40.9329 80.8838 49.3795 79.7194C46.0513 78.6099 42.4694 78.1426 39.0818 77.2C28.7678 74.33 18.6419 70.6852 9.2619 65.5229C7.80968 64.7237 5.34719 63.8878 4.30461 62.6187L4.35952 62.1488C5.34104 61.8612 6.81857 62.6778 7.80284 62.9947C13.6516 64.8776 19.7117 66.0609 25.6115 67.7701C30.0754 69.0633 34.7097 69.4655 39.2934 70.1465C54.6256 72.4243 67.9523 73.4328 83.4197 73.4742C90.6499 73.4936 97.7163 73.4568 104.883 72.3653L104.855 71.9841C107.465 70.6348 124.441 68.6933 128.754 67.9255Q139.948 65.9573 151.026 63.4168C151.26 62.7074 151.549 63.293 151.958 62.7772C150.898 62.0713 147.295 62.786 145.868 62.8128C139.119 63.8705 106.167 67.4618 101.372 65.9948C101.283 65.4704 101.153 64.8545 101.233 64.3241C101.421 63.0809 102.5 62.4611 103.462 61.8436C125.05 62.446 147.14 59.3624 168.053 54.1419C174.798 52.458 181.542 50.3747 188.222 48.4239C192.458 47.187 213.242 39.8458 215.249 39.8407L215.428 40.3687C216.406 40.5558 217.242 40.367 218.062 40.9572C218.353 41.6577 218.182 42.2221 218.043 42.9467L218.255 43.4213Z"/>
	<path fill="#E6EDCD" d="M191.042 56.3368C192.314 55.8414 194.925 54.9075 196.234 55.4487C196.323 55.4856 196.408 55.531 196.495 55.5721L196.51 55.9827C195.272 57.1672 193.294 57.544 191.686 57.9823C191.752 57.4915 191.732 57.1642 191.644 56.6865L191.042 56.3368Z"/>
	<path fill="#D0E5F0" d="M139.397 78.2829C139.974 78.2665 140.174 78.1723 140.641 78.557C140.737 78.6367 140.829 78.7225 140.923 78.8053C142.444 79.0979 143.935 78.8977 145.46 78.7498C141.277 81.9445 135.109 82.2953 130.045 83.1118C128.315 83.3974 126.636 83.6681 124.877 83.6966L124.856 83.4929C128.255 80.9337 135.206 79.1555 139.397 78.2829Z"/>
	<path fill="#D0E5F0" d="M104.263 93.7161C104.333 93.6691 104.402 93.6199 104.473 93.5752C105.165 93.1404 110.902 92.1802 112.411 91.7674C117.157 90.4692 121.963 89.2854 126.658 87.8132C131.994 86.1396 137.564 83.8262 143.094 83.0082C147.17 82.4052 151.527 82.4851 155.506 83.5454C151.864 85.0391 147.891 85.6747 144.075 86.583C140.879 87.344 137.726 88.284 134.531 89.0585C129.818 90.2011 124.944 91.2092 120.341 92.7393C117.114 93.2221 113.322 93.8671 110.252 94.943C108.416 95.2965 106.072 94.5197 104.301 94.0254L104.263 93.7161Z"/>
	<path fill="#FCF29B" d="M103.462 61.8436C125.05 62.446 147.14 59.3624 168.053 54.1419C174.798 52.458 181.542 50.3747 188.222 48.4239C192.458 47.187 213.242 39.8458 215.249 39.8407L215.428 40.3687C216.406 40.5558 217.242 40.367 218.062 40.9572C218.353 41.6577 218.182 42.2221 218.043 42.9467L218.255 43.4213C217.782 44.0765 216.343 44.3995 215.591 44.6552C210.608 46.3496 205.525 47.5555 200.492 49.0647C194.377 50.8983 188.354 53.0127 182.201 54.7285C179.494 55.4834 165.954 58.4887 165.015 59.4469L165.115 59.783C167.478 60.472 188.096 57.3087 191.042 56.3368L191.644 56.6865C191.732 57.1642 191.752 57.4915 191.686 57.9823C187.804 59.3242 183.886 60.9715 179.927 62.0173C175.854 63.093 171.631 63.8009 167.499 64.6302Q146.586 68.8252 125.374 71.0615C118.761 71.7981 111.525 73.0502 104.883 72.3653L104.855 71.9841C107.465 70.6348 124.441 68.6933 128.754 67.9255Q139.948 65.9573 151.026 63.4168C151.26 62.7074 151.549 63.293 151.958 62.7772C150.898 62.0713 147.295 62.786 145.868 62.8128C139.119 63.8705 106.167 67.4618 101.372 65.9948C101.283 65.4704 101.153 64.8545 101.233 64.3241C101.421 63.0809 102.5 62.4611 103.462 61.8436Z"/>
	<path fill="#E6EDCD" d="M145.868 62.8128C147.353 62.3222 156.699 60.7041 157.685 61.5077C157.733 61.5469 157.77 61.5975 157.813 61.6424C156.082 62.1623 152.769 63.6671 151.026 63.4168C151.26 62.7074 151.549 63.293 151.958 62.7772C150.898 62.0713 147.295 62.786 145.868 62.8128Z"/>
	<path fill="#FCF29B" d="M216.676 57.1136C216.799 57.0342 216.92 56.9518 217.048 56.88C218.496 56.0658 227.82 51.9371 228.947 52.2485C231.679 56.002 231.51 64.6915 230.809 69.0346C230.494 70.9819 230.001 72.9121 229.552 74.8326C229.737 75.2284 230.13 75.8501 230.219 76.2602C230.484 77.4817 229.141 80.976 228.665 82.2591C228.488 82.7358 228.256 83.1096 227.947 83.5124L227.775 83.7406C227.908 83.8346 227.941 83.8709 228.118 83.9242C229.299 84.2818 231.377 83.2655 232.463 82.8132L233.402 83.7614C230.26 84.6093 228.209 86.571 225.463 87.5445C224.87 90.4481 224.708 92.0564 222.76 94.425C222.814 94.4516 222.865 94.4848 222.922 94.5047C224.485 95.0545 231.944 91.9877 233.836 91.2447L234.677 91.6157C231.465 93.2051 219.452 97.067 217.871 99.2798C218.723 99.3973 219.57 99.4997 220.428 99.5727C220.743 100.153 220.768 100.384 220.554 101.024C219.996 102.701 218.256 104.579 217.177 106.016C209.903 115.7 201.4 121.284 190.44 126.075C175.6 132.561 158.282 133.576 143.124 127.583C134.542 124.191 126.371 118.234 119.269 112.412C117.626 111.066 115.502 109.685 114.539 107.771C113.375 107.65 110.423 108.339 108.804 108.356C110.638 107.207 112.711 106.293 114.635 105.297C114.154 105.112 113.655 104.913 113.231 104.614C110.622 102.774 109.415 99.7372 108.843 96.7174C109.096 95.9322 109.668 95.4911 110.252 94.943C113.322 93.8671 117.114 93.2221 120.341 92.7393C123.513 92.6104 126.707 92.5494 129.855 92.1063C134.814 91.1521 137.416 89.3472 142.816 89.6927C146.699 88.1697 150.941 87.2792 154.9 85.9285C160.659 83.9636 166.349 81.4022 171.924 78.9607C183.576 73.8575 194.594 67.3928 206.209 62.2017Q206.864 61.4796 207.54 60.7774C209.317 58.9433 210.963 58.5582 213.449 58.5176L216.676 57.1136ZM114.635 105.297C112.711 106.293 110.638 107.207 108.804 108.356C110.423 108.339 113.375 107.65 114.539 107.771C114.899 107.457 121.802 105.618 122.801 105.401C126.233 104.299 129.717 103.648 133.255 102.997C135.177 102.643 137.36 102.382 139.208 101.741C140.355 101.343 142.11 100.6 142.883 99.6632L142.633 99.375C138.946 98.7384 118.452 103.598 114.635 105.297Z"/>
	<path fill="#E6EDCD" d="M193.24 84.7493C195.782 84.2829 198.263 83.7641 200.841 84.3048L201.058 84.5774C200.047 85.3928 198.489 85.861 197.235 86.1767C197.433 85.7494 197.446 85.7673 197.309 85.3202C196.287 84.3875 194.529 84.7129 193.24 84.7493Z"/>
	<path fill="#E6EDCD" d="M202.315 68.2955C202.889 68.2834 203.325 68.3694 203.876 68.5263C204.404 69.0305 204.488 69.0704 204.644 69.8189C204.45 70.6157 204.178 70.9518 203.566 71.4876C202.871 71.2056 202.042 70.9409 201.433 70.5018C200.993 70.1843 200.973 70.0741 200.886 69.5743C201.197 68.8991 201.695 68.667 202.315 68.2955Z"/>
	<path fill="#E6EDCD" d="M140.651 102.415C142.108 102.514 144.106 102.507 145.278 103.489L145.28 103.977L144.645 104.537C143.779 104.811 142.734 105.215 141.83 105.226C141.174 105.235 140.959 105.035 140.531 104.58C140.324 103.776 140.452 103.209 140.651 102.415Z"/>
	<path fill="#F9F6D8" d="M193.24 84.7493C194.529 84.7129 196.287 84.3875 197.309 85.3202C197.446 85.7673 197.433 85.7494 197.235 86.1767C195.71 86.5656 193.836 87.3124 192.257 87.0256C191.657 86.9165 191.482 86.7333 191.178 86.2334L191.449 85.4853C192.137 84.9019 192.336 84.8892 193.24 84.7493Z"/>
	<path fill="#F9F6D8" d="M214.477 91.0911C218.059 90.3769 221.772 87.4596 225.463 87.5445C224.87 90.4481 224.708 92.0564 222.76 94.425L222.049 94.0613C223.15 92.5982 223.786 90.0447 223.877 88.2277L223.551 88.1194C223.379 88.2477 223.284 88.3275 223.109 88.4319C222.199 88.9742 213.82 91.858 213.213 91.6807L214.477 91.0911Z"/>
	<path fill="#D0E5F0" d="M129.855 92.1063C134.814 91.1521 137.416 89.3472 142.816 89.6927C139.82 91.0671 136.205 93.1283 132.78 92.7519C131.798 92.6439 130.842 92.2356 129.855 92.1063Z"/>
	<path fill="#D0E5F0" d="M206.209 62.2017Q206.864 61.4796 207.54 60.7774C209.317 58.9433 210.963 58.5582 213.449 58.5176C213.394 58.5728 213.338 58.6274 213.283 58.6833C212.127 59.8662 210.881 63.4175 209.242 63.5159C208.183 63.5795 207.013 62.8295 206.209 62.2017Z"/>
	<path fill="#E6EDCD" d="M227.775 83.7406C227.908 83.8346 227.941 83.8709 228.118 83.9242C229.299 84.2818 231.377 83.2655 232.463 82.8132L233.402 83.7614C230.26 84.6093 228.209 86.571 225.463 87.5445C221.772 87.4596 218.059 90.3769 214.477 91.0911C215.735 90.2033 217.797 90.1469 218.544 88.6259C217.194 88.682 215.659 89.6773 214.322 90.075L214.752 89.7094L214.322 90.0539C215.701 88.9526 217.637 88.3304 219.253 87.6535C221.399 87.1889 225.026 86.0724 226.859 84.8914C227.285 84.6167 227.197 84.4826 227.305 84.0125L227.775 83.7406Z"/>
	<path fill="#D0E5F0" d="M199.386 76.8116C199.795 76.7745 200.195 76.753 200.606 76.7465C202.509 76.7164 206.913 76.3336 208.279 77.6632C208.247 77.7286 208.224 77.7991 208.183 77.8595C207.529 78.8264 205.704 79.0946 204.651 79.3692C202.81 79.7872 200.865 80.1112 198.971 80.1503C198.166 80.1669 197.098 80.1066 196.525 79.4713C196.277 79.1962 196.375 78.9381 196.378 78.5919C197.121 77.4053 198.121 77.1755 199.386 76.8116Z"/>
	<path fill="#E6EDCD" d="M233.836 91.2447L234.677 91.6157C231.465 93.2051 219.452 97.067 217.871 99.2798C217.674 99.207 217.773 99.2638 217.571 99.0407C217.514 98.9781 217.458 98.9138 217.402 98.8503L217.049 99.0369C214.644 100.105 207.074 102.229 204.782 102.01L204.843 101.723C206.949 101.407 214.968 99.5083 216.203 98.1291L216.123 97.9289C213.272 98.2629 210.681 100.146 207.766 100.386C209.82 98.9141 220.501 95.7821 221.314 94.8353C221.564 94.5447 221.766 94.3228 222.049 94.0613L222.76 94.425C222.814 94.4516 222.865 94.4848 222.922 94.5047C224.485 95.0545 231.944 91.9877 233.836 91.2447Z"/>
	<defs>
		<linearGradient id="gradient_2" gradientUnits="userSpaceOnUse" x1="126.26537" y1="106.82949" x2="125.94628" y2="100.39761">
			<stop offset="0" stop-color="#E2E8F7" stop-opacity="0.98431373"/>
			<stop offset="1" stop-color="#DDEFF0"/>
		</linearGradient>
	</defs>
	<path fill="url(#gradient_2)" d="M114.635 105.297C118.452 103.598 138.946 98.7384 142.633 99.375L142.883 99.6632C142.11 100.6 140.355 101.343 139.208 101.741C137.36 102.382 135.177 102.643 133.255 102.997C129.717 103.648 126.233 104.299 122.801 105.401C121.802 105.618 114.899 107.457 114.539 107.771C113.375 107.65 110.423 108.339 108.804 108.356C110.638 107.207 112.711 106.293 114.635 105.297Z"/>
	<path fill="#F9F6D8" d="M216.676 57.1136C216.799 57.0342 216.92 56.9518 217.048 56.88C218.496 56.0658 227.82 51.9371 228.947 52.2485C231.679 56.002 231.51 64.6915 230.809 69.0346C230.494 70.9819 230.001 72.9121 229.552 74.8326C229.737 75.2284 230.13 75.8501 230.219 76.2602C230.484 77.4817 229.141 80.976 228.665 82.2591C228.488 82.7358 228.256 83.1096 227.947 83.5124L227.775 83.7406L227.305 84.0125C227.197 84.4826 227.285 84.6167 226.859 84.8914C225.026 86.0724 221.399 87.1889 219.253 87.6535C221.078 85.6344 223.976 86.7904 225.741 84.4804C226.703 83.2226 227.683 80.0125 227.426 78.4329C227.06 77.8863 226.493 77.2005 226.493 76.5167C226.494 74.4431 228.002 72.2061 228.311 70.0895C228.767 66.9623 227.546 63.9687 227.598 60.8631C227.625 59.2649 228.61 57.6311 228.522 56.1132C228.462 55.0858 228.633 54.1181 228.441 53.0901C227.158 52.5018 219.15 56.624 216.951 57.0619C216.859 57.0801 216.768 57.0964 216.676 57.1136Z"/>
	<path fill="#F9F6D8" d="M217.049 99.0369L217.402 98.8503C217.458 98.9138 217.514 98.9781 217.571 99.0407C217.773 99.2638 217.674 99.207 217.871 99.2798C218.723 99.3973 219.57 99.4997 220.428 99.5727C220.743 100.153 220.768 100.384 220.554 101.024C219.996 102.701 218.256 104.579 217.177 106.016C209.903 115.7 201.4 121.284 190.44 126.075C175.6 132.561 158.282 133.576 143.124 127.583C134.542 124.191 126.371 118.234 119.269 112.412C117.626 111.066 115.502 109.685 114.539 107.771C114.899 107.457 121.802 105.618 122.801 105.401C122.766 105.43 122.73 105.457 122.696 105.487C120.884 107.069 117.975 106.895 116.099 108.405C116.13 108.487 116.157 108.571 116.192 108.653C116.671 109.776 118.69 111.083 119.65 111.865C121.659 113.501 123.576 115.301 125.675 116.818C130.152 120.056 137.039 124.342 142.078 126.48C151.719 130.57 163.502 131.54 173.797 130.031C175.555 129.774 177.328 129.241 179.065 128.864C181.587 128.318 184.084 127.923 186.485 126.928C190.071 125.442 197.765 122.174 200.701 120.209C204.576 117.614 217.921 104.593 219.577 100.587C218.751 99.7052 217.772 100.031 217.049 99.0369Z"/>
	<path d="M311.05 88.9248C311.433 89.0918 311.808 89.3963 312.092 89.6956C314.69 92.4287 317.964 103.596 318.643 107.624C318.835 108.764 318.787 109.934 318.754 111.086C317.938 112.029 316.919 112.85 315.993 113.686C318.046 115.235 321.427 116.21 322.981 118.21C323.972 119.487 323.398 129.963 326.574 133.684C327.246 134.471 328.085 134.984 329.116 135.13C333.224 135.713 337.959 134.658 342.124 134.515C348.117 134.309 354.523 134.649 360.48 135.265C360.428 135.275 360.375 135.285 360.322 135.295C360.234 135.31 360.146 135.323 360.058 135.34C357.056 135.89 353.963 135.712 350.921 135.917L338.147 136.649C335.444 136.825 332.772 137.166 330.06 137.252L329.795 137.558C330.109 140.034 331.069 142.618 331.759 145.025C329.516 148.043 325.71 150.556 322.789 152.9C327.589 153.134 332.876 154.221 337.435 155.725C337.436 158.011 337.289 160.461 337.713 162.713C338.399 166.355 341.27 168.914 343.304 171.837C344.309 173.281 345.14 174.926 345.808 176.551C346.988 179.417 347.465 182.06 346.236 184.993C343.859 186.576 341.292 187.783 338.817 189.194C337.755 189.799 336.8 190.552 335.685 191.067C334.042 191.825 332.067 192.163 330.51 193.04C329.893 193.388 329.855 193.54 329.552 194.163L329.727 194.647C332.958 196.813 338.276 193.756 341.343 194.065C343.607 194.294 345.069 195.896 347.098 196.661C348.983 197.373 351.116 197.46 353.036 198.098C354.744 198.666 356.324 199.655 357.096 201.354C357.397 202.017 357.35 202.753 357.041 203.404Q356.816 203.87 356.467 204.252Q356.119 204.634 355.675 204.9C354.226 205.754 352.448 206.292 350.927 207.061C348.865 208.103 346.903 209.456 344.785 210.37C342.89 211.186 341.041 211.655 339.122 212.307L339.144 212.692C339.409 212.911 339.687 213.127 339.993 213.287C343.168 214.939 345.854 212.945 348.941 212.115C351.346 212.641 353.582 213.732 355.926 214.468C359.885 215.712 363.466 215.509 366.624 218.542C367.249 221.387 367.145 224.501 368.189 227.234C369.829 231.53 374.12 233.926 375.91 237.994C375.811 238.851 375.794 239.667 375.808 240.527C374.884 241.422 371.878 241.031 370.606 240.952C360.285 240.305 349.991 238.86 339.671 238.504Q328.46 238.093 317.259 238.725Q306.058 239.358 294.964 241.027C289.785 241.794 284.661 242.994 279.522 243.988C277.105 244.455 274.656 244.739 272.231 245.172C272.269 244.188 272.355 243.108 272.131 242.145C271.752 240.526 270.564 238.98 269.143 238.146C268 237.476 266.567 237.141 265.268 237.511C264.05 237.857 263.118 238.783 262.563 239.897C261.272 242.488 262.12 245.011 263.038 247.541C258.129 248.356 253.283 249.827 248.468 251.063C243.1 252.441 237.64 253.684 232.238 254.933C224.436 256.736 216.243 257.736 208.59 260.105C202.933 261.856 197.961 265.59 192.075 266.937C190.84 266.542 189.724 265.954 188.575 265.362C186.688 266.406 181.67 271.295 180.612 271.33C180.462 270.748 180.432 269.899 180.039 269.441C179.491 268.803 178.351 268.474 177.542 268.443C177.059 268.425 176.496 268.566 176.14 268.908C175.51 269.513 175.353 270.43 175.318 271.265C175.25 272.893 175.839 273.664 176.873 274.796C171.796 277.219 163.57 278.781 157.913 280.496C148.915 283.223 141.332 286.376 132.866 290.361C138.157 285.091 150.369 282.517 154.855 277.533C155.402 276.925 155.681 276.423 155.621 275.602C154.129 274.039 144.571 276.984 142.093 277.411C138.454 278.037 134.734 277.416 131.123 278.254C126.547 279.316 122.477 281.813 117.962 283.037C115.431 283.724 112.84 284.188 110.298 284.83C107.458 285.548 104.673 286.472 101.815 287.121C95.3542 288.589 88.7427 289.851 82.4538 291.967C78.4293 293.321 74.9565 295.772 71.1235 297.536C69.0468 298.492 66.7455 299.112 64.5232 299.638C57.1007 301.395 52.826 301.901 45.2304 301.57C43.0385 301.474 40.9135 301.497 38.7864 300.884C45.344 299.361 52.2657 299.454 58.7506 297.818C61.8574 297.034 64.9107 295.389 67.6149 293.699C69.1996 292.709 70.921 291.418 72.7117 290.85C75.7804 289.878 79.3903 289.655 82.5661 288.996C86.6861 288.141 91.1442 287.316 95.1286 285.971C97.5573 285.152 99.8876 283.956 102.274 283.013C103.588 282.493 106.155 281.911 107.049 280.853C107.518 280.298 107.485 279.744 107.4 279.06C107.309 278.323 107.152 277.892 107.456 277.204C107.647 277.094 107.821 276.986 108.044 276.955C109.557 276.749 110.772 277.592 111.869 278.481C118.079 278.733 131.635 273.185 137.177 269.985C135.35 269.762 133.629 269.478 131.845 269.004C134.131 267.944 136.473 267.456 138.804 266.563C141.232 265.634 143.163 264.326 145.76 263.825C145.347 265.057 144.599 266.652 144.723 267.941C145.099 268.376 145.147 268.442 145.719 268.509C146.506 268.601 147.098 268.34 147.692 267.858C148.741 265.999 147.37 264.203 147.45 262.249L147.873 261.873C149.086 261.688 150.349 262.102 151.533 262.374L154.521 261.26L156.754 263.001L158.515 259.926C159.767 259.136 161.322 258.301 162.769 257.965C163.47 257.802 164.044 257.729 164.645 258.121L164.387 258.578C162.778 259.674 161.39 259.699 159.506 259.792Q159.696 260.548 159.922 261.294C160.101 261.87 160.232 262.178 160.814 262.45C162.965 263.457 166.578 260.393 168.715 259.76C168.802 259.734 168.89 259.71 168.978 259.685L170.945 261.276C169.893 262.82 168.793 264.173 167.531 265.544L167.727 265.541C168.497 265.523 169.267 265.524 170.035 265.458C172.226 265.268 184.919 263.138 185.822 262.059C184.14 261.58 177.393 261.959 175.111 261.942C176.024 254.93 178.642 246.017 183.372 240.561C185.402 239.794 187.503 239.523 189.636 239.223C195.063 238.46 199.059 237.169 203.628 234.105C199.533 231.61 195.832 231.585 191.194 231.319C190.63 230.737 190.392 230.048 190.324 229.244C189.955 224.89 192.659 218.839 195.457 215.591C199.03 215.241 201.736 213.699 205.059 212.552C203.693 212.056 202.33 211.567 201.135 210.72C200.197 210.055 199.387 209.131 199.253 207.946C198.777 203.736 202.743 200.867 204.283 197.382C206.02 193.454 206.505 188.704 208.811 185.054C210.05 183.092 212.336 182.144 213.755 180.325L213.915 180.116C213.665 178.064 213.173 176.105 213.361 174.02C213.668 170.613 217.745 158.421 220.351 156.568C220.755 156.281 220.973 156.367 221.43 156.423C223.841 157.915 224.343 161.673 225.192 164.16C225.867 166.134 226.8 168.026 227.428 170.012C228.055 171.996 228.418 174.097 229.175 176.035C229.986 178.115 231.549 180.245 232.722 182.161C234.885 185.505 236.964 187.863 236.436 192.057C234.294 194.055 231.056 196.026 228.295 196.973C231.558 198.584 235.382 198.696 238.499 200.396C242.328 202.486 243.19 207.04 244.273 210.893Q245.386 211.353 246.443 211.93C247.209 212.355 248.024 213.024 248.218 213.926C248.515 215.301 246.78 216.881 246.029 217.949C245.526 218.664 245.273 219.518 245.463 220.386C245.81 221.97 247.173 222.588 248.439 223.376C248.629 225.044 248.846 226.69 249.137 228.343C247.705 229.556 246.159 230.68 244.679 231.836C248.269 231.621 251.996 232.274 255.632 232.254C257.444 230.712 259.231 229.184 260.89 227.474C261.332 224.785 261.192 222.082 261.879 219.414C262.734 216.091 263.957 213.151 267.001 211.359C272.597 212.426 275.705 214.378 281.35 211.998C283.305 211.174 285.344 210.15 287.415 209.687C289.107 209.309 290.64 209.966 292.167 209.709C293.832 209.429 295.922 206.203 296.972 204.876C296.098 205.243 295.218 205.609 294.305 205.868C290.47 206.957 287.794 204.95 284.125 204.411C280.211 203.836 277.758 205.381 273.814 203.086C272.203 202.148 270.843 200.7 270.425 198.837C269.832 196.202 271.198 194.101 272.585 192.008C272.368 190.426 272.272 188.998 272.705 187.439C273.74 183.708 276.262 180.009 277.837 176.434C278.943 173.924 279.561 171.257 280.809 168.796C281.423 167.584 282.282 166.499 283.1 165.42C291.389 163.85 293.382 166.309 301.932 161.414C299.521 157.053 295.553 157.014 291.79 154.489C288.626 152.366 288.366 147.274 289.298 143.882C289.545 142.98 290.624 141.497 290.463 140.711C288.295 140.536 285.95 141.102 283.779 141.276C276.635 141.851 269.572 142.597 262.46 143.498C255.344 144.4 248.207 144.983 241.094 145.849C236.41 146.419 231.789 147.221 227.128 147.936C221.565 148.79 215.957 149.314 210.389 150.122Q181.942 154.045 153.851 160.007C150.663 160.675 147.428 161.134 144.251 161.849C141.52 162.464 138.844 163.318 136.125 163.98C133.759 164.556 131.335 164.947 128.992 165.603C126.203 166.384 123.469 167.36 120.679 168.135Q99.6264 173.913 79.0793 181.29Q58.5322 188.666 38.6119 197.598Q26.8128 203.066 15.1437 208.807C11.2496 210.769 7.4728 212.921 3.54605 214.835C3.59743 214.788 3.64962 214.742 3.70018 214.695C6.50216 212.053 13.8627 208.297 17.5075 206.083C22.5476 203.021 27.4723 199.594 32.63 196.754C41.9566 191.619 51.8238 187.259 61.6151 183.113C66.4348 181.072 71.1855 178.817 76.0555 176.898Q92.941 170.387 110.197 164.932C114.699 163.485 119.429 162.089 124.008 160.903C126.917 160.149 134.212 158.939 136.494 157.618C135.229 156.845 132.547 157.506 131.003 157.385Q87.8039 154.168 44.4869 154.55C37.4758 154.646 30.5028 154.992 23.5016 155.327C19.5872 155.515 15.2562 156.044 11.3639 155.63C13.3335 154.817 23.9943 154.238 26.6532 154.002C32.0081 153.528 37.423 152.784 42.7858 152.519C54.652 151.933 66.6504 152.237 78.5294 152.243C88.8065 152.249 99.1495 152.114 109.418 152.587C117.581 152.964 125.803 153.625 133.957 154.248C138.123 154.566 142.386 155.166 146.563 155.124C151.17 155.079 155.654 153.481 160.163 152.685C162.765 152.226 165.437 152.17 168.049 151.745C174.133 150.755 180.186 149.437 186.275 148.506C188.724 148.131 191.242 148.306 193.696 147.952C200.291 147 206.859 145.836 213.459 144.927C217.01 144.439 220.57 144.344 224.118 143.917C230.089 143.199 236.032 142.188 242.001 141.487C247.462 140.845 252.963 140.543 258.433 140.026L283.744 137.535C286.053 137.33 289.871 137.82 291.982 136.959C292.921 136.576 294.281 133.462 295.057 132.586C296.453 131.012 299.039 129.885 300.855 128.769C299.511 126.659 298.178 124.558 296.974 122.364C298.002 114.975 301.178 113.196 303.363 107.458C304.094 105.538 304.227 103.312 304.646 101.301C305.493 97.2341 307.465 91.2849 311.05 88.9248ZM309.121 139.522C308.187 140.092 307.475 140.626 307.205 141.741C306.989 142.629 307.155 143.621 307.661 144.383C308.186 145.172 309.057 145.656 309.976 145.814C310.443 145.894 310.794 145.864 311.252 145.763C312.196 144.981 313.162 144.198 313.29 142.883C313.366 142.099 313.152 141.309 312.606 140.73C311.656 139.722 310.433 139.505 309.121 139.522ZM227.262 218.228C226.543 218.716 225.804 219.23 225.636 220.145C225.537 220.68 225.618 221.076 225.936 221.532C226.379 222.165 227.273 222.356 227.972 222.553C228.711 222.265 229.274 222.033 229.605 221.267C229.827 220.755 229.862 220.221 229.638 219.702C229.389 219.125 228.899 218.639 228.304 218.431C227.969 218.314 227.613 218.274 227.262 218.228ZM336.278 232.604C335.626 233.181 335.197 233.596 334.899 234.426C335.004 235.142 335.058 235.146 335.552 235.622C336.034 235.738 336.513 235.861 336.999 235.957C337.682 235.406 337.802 235.316 338.077 234.493C337.925 233.854 337.828 233.43 337.243 233.024C336.968 232.832 336.594 232.716 336.278 232.604ZM277.168 186.59C276.72 187.327 276.509 187.807 276.492 188.676C276.738 189.159 276.903 189.578 277.492 189.701C277.893 189.785 278.37 189.74 278.779 189.731L278.909 189.729C279.314 189.054 279.512 188.647 279.461 187.851C279.121 187.288 278.921 186.967 278.248 186.751C277.912 186.643 277.518 186.623 277.168 186.59ZM206.019 197.106C205.415 197.697 205.02 198.076 204.785 198.899C204.893 199.608 204.922 199.665 205.405 200.195L206.544 200.559C207.314 200.163 207.429 200.163 207.781 199.387C207.774 198.675 207.61 198.127 207.058 197.629C206.775 197.373 206.368 197.241 206.019 197.106ZM299.624 201.863C298.875 202.436 298.045 202.96 297.546 203.774L297.651 204.195C297.969 204.259 298.253 204.325 298.578 204.327C299.393 204.031 300.009 203.802 300.615 203.151L300.714 202.66C300.365 202.146 300.182 202.063 299.624 201.863Z"/>
</svg>
