<?xml version="1.0" encoding="utf-8" ?>
<svg xmlns="http://www.w3.org/2000/svg" xmlns:xlink="http://www.w3.org/1999/xlink" width="1280" height="380">
	<path fill="#B3D7E8" d="M93.8511 139.169C95.4036 139.438 96.4773 139.703 97.7505 140.654C98.074 142.332 97.7304 142.969 97.1545 144.585C95.3573 144.466 94.7589 144.503 93.2975 143.461C92.7856 141.941 93.3711 140.617 93.8511 139.169Z"/>
	<path fill="#B3D7E8" d="M915.439 177.811L917.753 177.439C919.324 178.032 920.048 178.175 921.09 179.485C920.624 181.04 920.282 180.994 918.927 181.79C917.809 182.195 917.481 181.934 916.396 181.557C915.392 179.923 915.329 179.723 915.439 177.811Z"/>
	<path d="M1099.96 187.812C1100.9 187.676 1101.87 187.707 1102.82 187.698C1104.1 188.588 1104.29 188.745 1104.81 190.222C1104.12 191.767 1103.83 191.936 1102.39 192.814C1101.59 192.903 1101.01 192.518 1100.29 192.201C1099.45 190.659 1099.69 189.493 1099.96 187.812Z"/>
	<path fill="#B3D7E8" d="M636.329 177.186C637.28 177.091 638.439 176.905 639.386 177.031C640.853 177.227 641.421 177.717 642.227 178.855C641.765 180.421 641.289 180.834 640.127 181.99L638.779 182.619L637.603 182.178C636.478 180.547 636.438 179.091 636.329 177.186Z"/>
	<path fill="#B3D7E8" d="M87.9204 198.651C89.7852 198.545 91.0664 198.613 92.8095 199.335C93.8939 200.833 93.9619 201.237 94.1516 203.093C92.575 203.662 90.6669 204.666 89.0165 204.02C87.694 202.633 87.9573 200.453 87.9204 198.651Z"/>
	<path fill="#B3D7E8" d="M274.317 290.509C276.462 290.76 277.575 290.948 279.065 292.489C279.261 294.376 278.54 295.533 277.64 297.098C277.145 297.065 276.632 297.03 276.148 296.913C274.471 296.51 273.921 295.522 273.102 294.17C273.21 292.377 273.336 292.015 274.317 290.509Z"/>
	<path fill="#B3D7E8" d="M444.26 224.679C445.779 224.444 446.691 224.588 448.122 225.14C449.205 226.345 449.383 226.424 449.387 228.049C448.334 229.432 447.752 229.636 446.149 230.321C445.936 230.381 445.912 230.399 445.655 230.404C444.351 230.431 443.804 229.908 442.977 229.031C442.905 226.907 443.196 226.467 444.26 224.679Z"/>
	<path fill="#B3D7E8" d="M293.028 184.256C294.253 184.276 296.024 184.208 297.191 184.595C298.834 185.141 299.169 185.875 299.832 187.315C299.7 188.969 299.304 190.039 298.475 191.47C297.371 191.462 296.252 191.467 295.152 191.377C293.476 191.241 292.891 190.808 291.856 189.586C291.677 187.602 292.334 186.064 293.028 184.256Z"/>
	<path fill="#B3D7E8" d="M470.5 173.434C470.588 173.421 470.675 173.408 470.763 173.396C473.006 173.108 474.08 173.353 475.9 174.759C476.711 176.335 476.799 176.507 476.546 178.249C475.551 179.826 474.616 180.306 472.892 180.942C472.824 180.942 472.755 180.948 472.687 180.943C471.306 180.839 469.999 180.181 469.164 179.079C468.366 178.026 468.331 176.866 468.484 175.605C468.611 174.555 469.692 174.073 470.5 173.434Z"/>
	<path fill="#B3D7E8" d="M329.468 270.453C330.606 270.513 332.212 270.563 333.239 271.027C334.852 271.754 335.226 272.732 335.837 274.239C335.71 276.24 335.125 277.368 334.08 279.008C332.776 278.952 330.551 279.045 329.459 278.308C327.898 277.255 327.665 276.552 327.262 274.84C327.614 272.967 328.259 271.91 329.468 270.453Z"/>
	<path fill="#B3D7E8" d="M166.642 242.864C168.041 242.913 169.591 242.956 170.94 243.345C172.703 243.852 173.324 244.825 174.15 246.297C174.331 248.374 173.634 249.557 172.627 251.273C171.344 251.746 169.415 252.29 168.069 251.96C167.118 251.727 166.57 251.339 166.079 250.494C164.814 248.314 166.035 245.117 166.642 242.864Z"/>
	<path fill="#B3D7E8" fill-opacity="0.98039216" d="M699.337 53.6884C710.463 53.2145 722.742 55.389 733.875 56.3759C734.412 57.2032 735.442 58.4593 735.553 59.413C723.343 58.308 711.385 55.8733 699.337 53.6884Z"/>
	<path fill="#B3D7E8" d="M318.18 206.159C320.326 206.007 322.757 205.718 324.612 207.054C325.767 207.886 326.358 208.766 326.493 210.212C326.665 212.043 325.325 213.672 324.283 215.037C322.968 215.358 321.212 215.531 319.905 215.158C319.279 214.98 318.48 214.439 318.144 213.889C316.725 211.564 317.556 208.627 318.18 206.159Z"/>
	<path d="M1166.59 180.312C1167.87 180.112 1169.32 179.822 1170.61 179.963C1171.83 180.096 1173.43 180.838 1174.19 181.833C1175.06 182.991 1174.87 183.605 1174.63 184.935C1173.54 186.49 1172.47 187.173 1170.81 188.039C1170.63 188.236 1170.49 188.405 1170.23 188.507C1168.76 189.087 1167.46 189.183 1166.02 188.659C1164.98 187.647 1164.61 186.538 1164.54 185.09C1164.45 183.173 1165.38 181.703 1166.59 180.312Z"/>
	<path fill="#B3D7E8" fill-opacity="0.97254902" d="M733.875 56.3759C742.115 56.5898 758.576 56.1143 766.028 57.484C763.937 58.3805 761.208 59.7729 758.978 60.052C752.202 57.5978 749.566 60.145 742.979 60.0614C740.428 60.0474 738.064 59.872 735.553 59.413C735.442 58.4593 734.412 57.2032 733.875 56.3759Z"/>
	<path fill="#B3D7E8" fill-opacity="0.98823529" d="M695.11 67.6568C705.648 67.5158 716.272 66.0162 726.784 66.385C728.778 66.9307 731.925 66.9674 733.429 68.0967L734.005 69.4753C737.852 69.6134 743.85 68.9567 747.417 70.0447C743.234 70.507 738.961 70.2193 734.843 70.7202C721.819 70.7503 708.053 69.1614 695.11 67.6568Z"/>
	<path fill="#B3D7E8" d="M717.287 63.2166C707.734 62.1344 691.873 58.1582 683.11 54.2484C683.653 54.1249 727.888 60.5284 727.952 60.5612C726.695 61.6455 724.714 61.8264 723.106 61.6984C721.307 61.5551 718.895 60.7517 717.193 61.4052L719.693 62.8399L717.287 63.2166Z"/>
	<path fill="#B3D7E8" fill-opacity="0.97254902" d="M780.278 57.4845C790.138 56.8448 800.028 57.0274 809.898 56.609C821.069 56.1355 832.217 55.0286 843.351 54.0343L843.596 54.3721L844.627 54.1903C836.095 56.14 826.867 56.7278 818.178 57.6923C809.31 58.6767 799.981 60.15 791.055 60.0864C788.598 59.9914 785.386 60.1158 783.205 58.9216C782.254 58.4008 781.254 57.9568 780.278 57.4845Z"/>
	<path fill="#B3D7E8" fill-opacity="0.89803922" d="M727.952 60.5612C732.931 60.5553 738.472 60.5374 743.359 61.4163L745.699 62.2243L745.745 63.2945C741.738 65.8339 735.614 64.4457 734.005 69.4753L733.429 68.0967C731.925 66.9674 728.778 66.9307 726.784 66.385L727.921 65.7791C725.36 64.0613 720.359 63.7882 717.287 63.2166L719.693 62.8399L717.193 61.4052C718.895 60.7517 721.307 61.5551 723.106 61.6984C724.714 61.8264 726.695 61.6455 727.952 60.5612Z"/>
	<path fill="#B3D7E8" fill-opacity="0.98431373" d="M921.946 40.6879Q931.924 39.1078 941.885 37.4242L943.198 38.2518C941.237 39.9538 936.813 38.9673 936.007 41.5738C938.369 42.2952 942.167 40.1472 943.378 42.1691L943.153 41.2916L943.58 42.0056L940.573 43.7221L940.872 44.2849L940.905 43.453L941.862 44.5081C944.098 44.3681 945.703 43.9422 947.728 44.9735L948.016 45.6885C942.191 47.6214 935.498 44.7644 929.583 45.2815C925.489 45.6395 921.695 47.8691 917.547 48.1734L917.314 47.6749C919.373 45.9144 922.028 45.4137 923.623 43.0817C923.427 41.5707 923.107 41.5936 921.946 40.6879Z"/>
	<path fill="#B3D7E8" d="M904.206 34.3922C920.569 30.7203 937.944 28.463 954.662 27.3983C955.668 27.5911 956.934 27.6875 957.878 28.045C956.815 28.587 913.68 38.1266 911.86 38.2174C911.748 37.8421 911.836 37.3183 911.85 36.9226C914.332 35.0466 919.326 35.0309 922.38 33.8897L922.604 33.0487C918.622 31.8988 911.166 36.9645 904.429 34.4784C904.355 34.4508 904.281 34.4209 904.206 34.3922Z"/>
	<path fill="#B3D7E8" fill-opacity="0.92941177" d="M834.657 46.8444C849.223 44.5473 863.647 41.8445 878.165 39.2785L879.208 39.9428C876.343 42.7163 870.864 40.7939 868.364 44.0493C871.528 44.5516 878.349 41.8941 880.386 44.3744L880.427 44.9662C876.648 46.9 850.529 50.7463 845.537 50.6778C845.509 50.1376 845.346 49.9463 844.995 49.5297C844.362 48.7808 842.659 48.8962 841.658 48.8068L839.306 49.5525L838.832 49.0442L839.258 48.3767L834.657 46.8444ZM839.258 48.3767L838.832 49.0442L839.306 49.5525L841.658 48.8068C842.489 48.4488 843.141 48.1474 844.068 48.2689C844.131 48.2771 844.194 48.2876 844.257 48.296C845.684 48.4854 847.192 48.2131 848.319 47.3617C845.089 46.8944 842.285 47.1736 839.258 48.3767Z"/>
	<path fill="#B3D7E8" fill-opacity="0.89803922" d="M839.258 48.3767C842.285 47.1736 845.089 46.8944 848.319 47.3617C847.192 48.2131 845.684 48.4854 844.257 48.296C844.194 48.2876 844.131 48.2771 844.068 48.2689C843.141 48.1474 842.489 48.4488 841.658 48.8068L839.306 49.5525L838.832 49.0442L839.258 48.3767Z"/>
	<path fill="#B3D7E8" fill-opacity="0.96470588" d="M759.874 51.1595L759.683 50.2189C754.604 48.2277 747.19 48.0125 741.698 47.1321C731.176 45.4453 720.359 43.5961 710.083 40.7811L710.387 40.6783L708.937 40.1158C715.638 40.1991 733.92 44.9218 742.093 46.1822C768.339 50.2297 794.003 50.7804 820.445 48.6531L824.087 48.9768L824.198 49.4376L819.698 51.3521L819.15 51.9306C813.523 52.8956 807.711 52.4545 802.017 52.4887C787.864 52.5736 773.998 52.3025 759.874 51.1595Z"/>
	<path fill="#B3D7E8" d="M845.537 50.6778C839.426 52.8929 830.097 52.7988 823.507 53.1971C794.649 54.9413 766.523 53.6525 737.995 48.8294C729.619 47.4133 721.336 45.2416 712.955 43.6933L713.127 43.2748C722.132 43.639 731.325 46.8833 740.213 48.3712C746.365 49.4011 754.088 49.0595 759.874 51.1595C773.998 52.3025 787.864 52.5736 802.017 52.4887C807.711 52.4545 813.523 52.8956 819.15 51.9306L819.698 51.3521L824.198 49.4376L824.087 48.9768L820.445 48.6531Q827.542 47.681 834.657 46.8444L839.258 48.3767L838.832 49.0442L839.306 49.5525L841.658 48.8068C842.659 48.8962 844.362 48.7808 844.995 49.5297C845.346 49.9463 845.509 50.1376 845.537 50.6778ZM820.445 48.6531L824.087 48.9768L824.198 49.4376L819.698 51.3521C822.368 51.6775 837.288 50.5753 839.306 49.5525L838.832 49.0442L839.258 48.3767L834.657 46.8444Q827.542 47.681 820.445 48.6531Z"/>
	<path fill="#B3D7E8" fill-opacity="0.9137255" d="M820.445 48.6531Q827.542 47.681 834.657 46.8444L839.258 48.3767L838.832 49.0442L839.306 49.5525C837.288 50.5753 822.368 51.6775 819.698 51.3521L824.198 49.4376L824.087 48.9768L820.445 48.6531Z"/>
	<defs>
		<linearGradient id="gradient_0" gradientUnits="userSpaceOnUse" x1="888.9613" y1="37.339008" x2="890.18604" y2="42.353645">
			<stop offset="0" stop-color="#B8DDEF" stop-opacity="0.87058824"/>
			<stop offset="1" stop-color="#BBE1EE" stop-opacity="0.93333334"/>
		</linearGradient>
	</defs>
	<path fill="url(#gradient_0)" d="M904.206 34.3922C904.281 34.4209 904.355 34.4508 904.429 34.4784C911.166 36.9645 918.622 31.8988 922.604 33.0487L922.38 33.8897C919.326 35.0309 914.332 35.0466 911.85 36.9226C911.836 37.3183 911.748 37.8421 911.86 38.2174C907.331 40.8208 886.012 44.8105 880.427 44.9662L880.386 44.3744C878.349 41.8941 871.528 44.5516 868.364 44.0493C870.864 40.7939 876.343 42.7163 879.208 39.9428L878.165 39.2785Q891.132 36.5481 904.206 34.3922Z"/>
	<path fill="#B3D7E8" d="M190.543 211.35C192.234 211.261 194.139 211.252 195.761 211.782C198.313 212.615 200.208 214.442 201.347 216.834C202.422 219.092 202.515 221.606 201.641 223.951C200.491 227.037 198.59 228.661 195.67 230.002C193.915 229.97 191.82 229.855 190.13 229.373C187.804 228.71 186.041 226.926 184.903 224.852C183.771 222.789 183.555 220.414 184.222 218.167C185.326 214.45 187.265 213.114 190.543 211.35Z"/>
	<path fill="#B3D7E8" fill-opacity="0.96078432" d="M954.662 27.3983C965.934 25.7297 997.752 18.7525 1006.7 23.0531L1009.73 23.1704C1013.09 23.9317 1016.47 24.169 1019.82 24.8306C1022.72 25.3929 1027.75 25.9649 1029.88 28.0661C1027.87 29.9257 1025.41 29.5898 1023.06 30.6245Q1018.38 30.1693 1013.72 29.4771L1009.82 29.7937C999.645 24.8948 969.345 26.6837 957.878 28.045C956.934 27.6875 955.668 27.5911 954.662 27.3983ZM1006.7 23.0531C1005.36 23.5874 1004.14 24.084 1002.98 24.9551C1003.64 25.4641 1004.16 25.67 1004.97 25.855L1002.38 26.5214C1006.18 28.8102 1008.95 23.6038 1017.63 28.5906L1017.46 29.2595C1017.51 29.1865 1017.56 29.1122 1017.61 29.0406C1018.03 28.4711 1018.88 28.024 1019.47 27.6278L1018.66 29.2894L1013.72 29.4771Q1018.38 30.1693 1023.06 30.6245C1025.41 29.5898 1027.87 29.9257 1029.88 28.0661C1027.75 25.9649 1022.72 25.3929 1019.82 24.8306C1016.47 24.169 1013.09 23.9317 1009.73 23.1704L1006.7 23.0531Z"/>
	<path fill="#B3D7E8" fill-opacity="0.9254902" d="M1006.7 23.0531L1009.73 23.1704C1013.09 23.9317 1016.47 24.169 1019.82 24.8306C1022.72 25.3929 1027.75 25.9649 1029.88 28.0661C1027.87 29.9257 1025.41 29.5898 1023.06 30.6245Q1018.38 30.1693 1013.72 29.4771L1018.66 29.2894L1019.47 27.6278C1018.88 28.024 1018.03 28.4711 1017.61 29.0406C1017.56 29.1122 1017.51 29.1865 1017.46 29.2595L1017.63 28.5906C1008.95 23.6038 1006.18 28.8102 1002.38 26.5214L1004.97 25.855C1004.16 25.67 1003.64 25.4641 1002.98 24.9551C1004.14 24.084 1005.36 23.5874 1006.7 23.0531Z"/>
	<path fill="#B3D7E8" fill-opacity="0.86666667" d="M941.885 37.4242C957.23 34.1224 973.97 32.1311 989.633 32.4486C987.415 33.9201 984.11 33.5409 981.574 34.469C970.218 38.6249 960.949 46.3131 948.016 45.6885L947.728 44.9735C945.703 43.9422 944.098 44.3681 941.862 44.5081L940.905 43.453L940.872 44.2849L940.573 43.7221L943.58 42.0056L943.153 41.2916L943.378 42.1691C942.167 40.1472 938.369 42.2952 936.007 41.5738C936.813 38.9673 941.237 39.9538 943.198 38.2518L941.885 37.4242Z"/>
	<path fill="#B3D7E8" fill-opacity="0.98039216" d="M799.153 61.272C818.649 59.1316 838.208 58.3604 857.713 55.8915C864.663 55.0118 871.8 54.4059 878.544 52.443L881.145 52.8245C879.007 53.6201 876.87 54.7247 874.646 55.2231C867.581 56.8066 860.163 57.3507 853.004 58.5125C845.207 59.7777 837.523 61.6257 829.743 62.9005C824.625 63.7391 814.137 63.0353 810.149 66.1424C810.424 66.8429 810.357 66.8576 811.088 67.1844C809.676 67.8992 809.049 67.7127 807.495 67.6L807.369 67.1424C805.827 66.029 802.216 67.8479 799.958 67.492C798.41 66.2147 792.525 66.7226 790.376 66.7179L787.924 66.9224C787.248 66.5862 787.296 66.4067 787.029 65.7246L789.449 64.2749C788.515 63.0607 786.518 63.1134 785.014 62.8503L784.613 62.1908C786.322 62.1876 788.79 62.4922 790.268 61.5664C790.336 61.5241 790.399 61.475 790.464 61.4293C793.344 61.3536 796.276 61.1629 799.153 61.272ZM790.464 61.4293C790.399 61.475 790.336 61.5241 790.268 61.5664C788.79 62.4922 786.322 62.1876 784.613 62.1908L785.014 62.8503C786.518 63.1134 788.515 63.0607 789.449 64.2749L787.029 65.7246C787.296 66.4067 787.248 66.5862 787.924 66.9224L790.376 66.7179C792.525 66.7226 798.41 66.2147 799.958 67.492C801.238 66.8775 801.935 66.0892 802.82 64.9964C805.603 64.9892 812.926 63.9102 814.959 62.2096L814.157 63.2886L814.984 62.8686L814.996 62.281C810.035 60.2013 804.596 65.1216 799.304 61.3803L799.153 61.272C796.276 61.1629 793.344 61.3536 790.464 61.4293Z"/>
	<path fill="#B3D7E8" fill-opacity="0.91764706" d="M790.464 61.4293C793.344 61.3536 796.276 61.1629 799.153 61.272L799.304 61.3803C804.596 65.1216 810.035 60.2013 814.996 62.281L814.984 62.8686L814.157 63.2886L814.959 62.2096C812.926 63.9102 805.603 64.9892 802.82 64.9964C801.935 66.0892 801.238 66.8775 799.958 67.492C798.41 66.2147 792.525 66.7226 790.376 66.7179L787.924 66.9224C787.248 66.5862 787.296 66.4067 787.029 65.7246L789.449 64.2749C788.515 63.0607 786.518 63.1134 785.014 62.8503L784.613 62.1908C786.322 62.1876 788.79 62.4922 790.268 61.5664C790.336 61.5241 790.399 61.475 790.464 61.4293ZM790.376 66.7179C792.525 66.7226 798.41 66.2147 799.958 67.492C801.238 66.8775 801.935 66.0892 802.82 64.9964L801.851 64.2003L801.478 64.2558C797.992 64.7484 793.053 63.6462 789.972 65.2281L789.763 66.1746L790.376 66.7179Z"/>
	<path fill="#B3D7E8" fill-opacity="0.95294118" d="M790.376 66.7179L789.763 66.1746L789.972 65.2281C793.053 63.6462 797.992 64.7484 801.478 64.2558L801.851 64.2003L802.82 64.9964C801.935 66.0892 801.238 66.8775 799.958 67.492C798.41 66.2147 792.525 66.7226 790.376 66.7179Z"/>
	<path fill="#B3D7E8" d="M854.869 60.0901L855.644 61.3394C855.324 61.8284 855.354 62.022 855.324 62.5933C858.559 63.7368 866.269 59.6439 868.144 62.5987C862.077 66.9352 834.767 71.3333 826.414 72.2888C822.592 72.7259 818.781 72.5842 814.966 72.9131C812.837 73.0966 810.807 73.8569 808.662 73.8126C808.084 72.4661 807.805 72.3137 806.571 71.5267C807.882 71.5237 809.106 71.6218 810.278 70.9442L809.988 70.1132C807.51 69.378 805.004 70.74 802.623 69.5629C802.522 69.5129 802.423 69.4581 802.323 69.4057C804.28 69.0389 805.757 68.6411 807.495 67.6C809.049 67.7127 809.676 67.8992 811.088 67.1844C821.211 68.0274 843.118 61.1046 854.869 60.0901Z"/>
	<path fill="#D4EBF6" fill-opacity="0.74509805" d="M807.081 149.687L808.479 149.637L808.451 150.058C804.643 152.374 799.909 152.185 796.096 154.311C795.207 155.739 795.021 155.901 795.249 157.57C799.054 160.198 817.567 154.21 822.786 153.41C820.766 155.274 816.173 155.727 813.497 156.434C810.126 157.324 801.731 160.12 800.003 163.091C802.701 164.182 814.325 161.834 817.139 160.514C819.786 159.273 822.032 157.1 824.774 156.085C826.059 155.61 826.378 155.468 827.657 156.055L827.613 157.077C820.956 159.927 814.289 163.504 807.103 164.736C804.124 165.247 800.653 164.525 797.877 165.244C794.165 166.206 790.667 168.648 786.685 168.02C791.066 165.065 795.634 167.118 799.377 161.366L798.987 161.033C795.515 161.371 781.907 167.217 776.973 168.769C776.828 168.988 776.719 169.158 776.51 169.324C772.068 172.849 768.031 172.632 762.754 172.225L762.808 171.624C764.475 170.746 765.702 171.866 767.504 171.978C769.912 172.129 773.811 169.481 775.577 167.922L775.74 167.776Q775.224 167.925 774.705 168.064C773.209 168.465 769.853 169.471 768.564 168.727C772.71 166.995 777.564 167.945 781.471 165.706C783.242 164.691 783.825 163.661 784.34 161.82L783.623 160.565C780.041 159.098 770.275 164.971 766.244 165.994C761.564 167.182 756.697 167.035 751.967 167.951C745.776 169.151 739.809 171.351 733.551 172.239C733.784 172.138 734.013 172.034 734.244 171.932C736.265 171.033 737.983 169.582 740.037 168.708C742.801 167.531 745.947 167.07 748.806 166.122C756.538 163.559 763.866 160.616 771.867 158.909C778.156 157.568 784.799 157.491 790.954 155.662C791.335 154.277 789.772 154.086 789.369 152.672C795.117 150.826 801.428 152.015 807.081 149.687Z"/>
	<path fill="#EDF0BE" fill-opacity="0.77254903" d="M1073.8 33.0229L1076.17 33.4386C1077.75 36.0975 1079.47 44.0223 1080.07 47.2485C1080.33 48.6337 1079.96 49.843 1080.43 51.2248L1081.72 51.2076C1084.22 51.5002 1090.51 51.1853 1092.33 52.3811C1088.7 52.8343 1083.86 52.113 1080.85 53.8964L1080.46 55.006C1086.12 56.4094 1094.88 54.4169 1100.72 53.731C1120.14 51.4493 1141.1 47.0111 1160.68 49.5035C1164.75 50.0224 1169.37 52.2263 1173.39 53.3896C1171.5 54.2396 1154.81 49.7395 1150.28 50.1127C1142.6 50.7449 1135 53.3757 1127.46 54.9382C1112.56 58.0289 1097.76 60.4895 1082.59 61.7926L1081.45 61.186C1080.04 61.2869 1078.64 61.1709 1077.23 61.0696L1076.75 60.4243C1077.79 58.7304 1078.74 57.862 1080.46 56.8603C1079.23 56.174 1075.33 56.6407 1073.71 56.6304L1075.19 55.9369L1075.42 54.9926C1072.38 50.6829 1065.86 53.2743 1062.42 49.5238L1062.71 48.5522C1066.49 46.388 1071.55 49.7231 1075.64 50.0376C1076.38 49.1896 1076.42 48.8897 1076.53 47.775C1076.93 43.78 1076.26 36.0635 1073.8 33.0229ZM1136.92 50.7279C1118.62 54.4827 1099.05 54.7024 1080.46 56.8603C1078.74 57.862 1077.79 58.7304 1076.75 60.4243L1077.23 61.0696C1078.64 61.1709 1080.04 61.2869 1081.45 61.186C1085.95 59.7685 1091.99 59.8884 1096.74 59.2764C1103.06 58.4618 1133.36 54.0081 1136.92 50.7279Z"/>
	<defs>
		<linearGradient id="gradient_1" gradientUnits="userSpaceOnUse" x1="767.92926" y1="56.64851" x2="765.96906" y2="71.014267">
			<stop offset="0" stop-color="#BADDEF" stop-opacity="0.83529413"/>
			<stop offset="1" stop-color="#B5DDF0" stop-opacity="0.86666667"/>
		</linearGradient>
	</defs>
	<path fill="url(#gradient_1)" d="M766.028 57.484C770.709 57.385 775.629 57.0014 780.278 57.4845C781.254 57.9568 782.254 58.4008 783.205 58.9216C785.386 60.1158 788.598 59.9914 791.055 60.0864C790.991 60.1255 790.928 60.1673 790.862 60.2037C789.59 60.9029 787.939 60.8369 786.516 60.91C787.778 61.4155 789.125 61.38 790.464 61.4293C790.399 61.475 790.336 61.5241 790.268 61.5664C788.79 62.4922 786.322 62.1876 784.613 62.1908L785.014 62.8503C786.518 63.1134 788.515 63.0607 789.449 64.2749L787.029 65.7246C787.296 66.4067 787.248 66.5862 787.924 66.9224L788.578 68.4189C789.798 68.8839 791.026 68.9477 791.62 70.1444C789.587 70.8471 761.154 71.8916 757.341 71.844C750.219 69.9318 742.152 72.1525 734.843 70.7202C738.961 70.2193 743.234 70.507 747.417 70.0447C743.85 68.9567 737.852 69.6134 734.005 69.4753C735.614 64.4457 741.738 65.8339 745.745 63.2945L745.699 62.2243L743.359 61.4163L745.86 60.9185L742.979 60.0614C749.566 60.145 752.202 57.5978 758.978 60.052C761.208 59.7729 763.937 58.3805 766.028 57.484Z"/>
	<path fill="#D4EBF6" fill-opacity="0.52549022" d="M799.958 67.492C802.216 67.8479 805.827 66.029 807.369 67.1424L807.495 67.6C805.757 68.6411 804.28 69.0389 802.323 69.4057C802.423 69.4581 802.522 69.5129 802.623 69.5629C805.004 70.74 807.51 69.378 809.988 70.1132L810.278 70.9442C809.106 71.6218 807.882 71.5237 806.571 71.5267C807.805 72.3137 808.084 72.4661 808.662 73.8126C805.357 75.4208 800.942 77.7669 797.167 76.4931C796.931 76.4137 796.704 76.3214 796.474 76.2272C796.36 75.744 795.987 75.4782 795.638 75.1537Q793.252 76.8796 790.808 78.5231C787.04 81.036 782.461 80.259 778.267 81.3773C773.919 82.5367 770.697 85.2954 765.854 84.7846C761.644 84.3404 757.479 81.5677 753.249 81.5212C750.574 81.4918 748.387 83.5111 745.719 82.9765C747.997 80.1457 753.585 79.8138 756.959 79.1216L756.494 78.4673C748.452 76.4846 740.166 79.3737 732.034 80.1772C734.556 79.2663 736.871 77.332 739.291 76.6253C739.877 76.4541 740.233 76.2596 740.712 75.8769C740.766 75.8337 740.818 75.7883 740.871 75.7441L740.105 76.7004L740.676 77.8229C743.548 78.5426 753.76 74.2371 756.998 73.1059L757.341 71.844C761.154 71.8916 789.587 70.8471 791.62 70.1444C791.026 68.9477 789.798 68.8839 788.578 68.4189L787.924 66.9224L790.376 66.7179C792.525 66.7226 798.41 66.2147 799.958 67.492ZM802.323 69.4057C802.24 69.4407 802.158 69.4777 802.075 69.5107C799.46 70.5444 796.628 68.4555 794.333 70.264L795.066 71.5554L793.7 72.4852C794.619 73.5325 795.331 73.4053 796.664 73.491C799.033 73.6432 802.612 72.9452 804.611 74.0587C803.221 75.5487 800.326 76.0281 798.287 76.0899C797.678 76.1083 797.08 76.1704 796.474 76.2272C796.704 76.3214 796.931 76.4137 797.167 76.4931C800.942 77.7669 805.357 75.4208 808.662 73.8126C808.084 72.4661 807.805 72.3137 806.571 71.5267C807.882 71.5237 809.106 71.6218 810.278 70.9442L809.988 70.1132C807.51 69.378 805.004 70.74 802.623 69.5629C802.522 69.5129 802.423 69.4581 802.323 69.4057Z"/>
	<path fill="#B3D7E8" fill-opacity="0.97647059" d="M802.323 69.4057C802.423 69.4581 802.522 69.5129 802.623 69.5629C805.004 70.74 807.51 69.378 809.988 70.1132L810.278 70.9442C809.106 71.6218 807.882 71.5237 806.571 71.5267C807.805 72.3137 808.084 72.4661 808.662 73.8126C805.357 75.4208 800.942 77.7669 797.167 76.4931C796.931 76.4137 796.704 76.3214 796.474 76.2272C797.08 76.1704 797.678 76.1083 798.287 76.0899C800.326 76.0281 803.221 75.5487 804.611 74.0587C802.612 72.9452 799.033 73.6432 796.664 73.491C795.331 73.4053 794.619 73.5325 793.7 72.4852L795.066 71.5554L794.333 70.264C796.628 68.4555 799.46 70.5444 802.075 69.5107C802.158 69.4777 802.24 69.4407 802.323 69.4057Z"/>
	<path fill="#EDF0BE" fill-opacity="0.73725492" d="M1013.26 16.8172C1017.6 14.5735 1021.68 11.6098 1026.14 9.6535C1035.15 5.69371 1048.57 5.50944 1057.93 8.53844C1066.97 11.4642 1075.39 19.6006 1079.59 28.0031C1082.66 34.1311 1085.39 43.0617 1083.1 49.8673L1081.72 51.2076L1080.43 51.2248C1079.96 49.843 1080.33 48.6337 1080.07 47.2485C1079.47 44.0223 1077.75 36.0975 1076.17 33.4386L1073.8 33.0229C1068.67 24.8654 1064.36 19.5239 1055.44 15.1159C1049.48 12.1748 1040.53 10.5741 1034.2 13.2664C1032.28 14.081 1030.82 15.7386 1028.87 16.6094C1026.96 17.4555 1024.83 17.7971 1022.88 18.5088C1021.32 19.0779 1020.76 20.2051 1020.09 21.6456C1020.14 22.763 1020.02 23.7334 1019.82 24.8306C1016.47 24.169 1013.09 23.9317 1009.73 23.1704C1011.43 22.2831 1012.87 19.1406 1013.24 17.1231C1013.26 17.0226 1013.26 16.9191 1013.26 16.8172Z"/>
	<defs>
		<linearGradient id="gradient_2" gradientUnits="userSpaceOnUse" x1="899.30103" y1="44.594574" x2="901.10199" y2="51.993435">
			<stop offset="0" stop-color="#B8DEEE" stop-opacity="0.84313726"/>
			<stop offset="1" stop-color="#B6DEEF" stop-opacity="0.89803922"/>
		</linearGradient>
	</defs>
	<path fill="url(#gradient_2)" d="M878.544 52.443C879.928 52.0959 881.284 51.68 882.645 51.2508C881.921 50.6071 857.135 52.9731 853.859 52.9556L853.786 52.7013L852.06 52.8777C852.139 52.7902 856.667 52.4096 857.197 52.343C861.126 51.8496 864.999 50.6188 868.983 50.0589C886.718 47.5662 904.131 43.0348 921.946 40.6879C923.107 41.5936 923.427 41.5707 923.623 43.0817C922.028 45.4137 919.373 45.9144 917.314 47.6749L917.547 48.1734C913.091 50.4379 892.846 56.5246 887.85 56.8096C885.313 58.803 871.92 62.4638 868.144 62.5987C866.269 59.6439 858.559 63.7368 855.324 62.5933C855.354 62.022 855.324 61.8284 855.644 61.3394L854.869 60.0901C843.118 61.1046 821.211 68.0274 811.088 67.1844C810.357 66.8576 810.424 66.8429 810.149 66.1424C814.137 63.0353 824.625 63.7391 829.743 62.9005C837.523 61.6257 845.207 59.7777 853.004 58.5125C860.163 57.3507 867.581 56.8066 874.646 55.2231C876.87 54.7247 879.007 53.6201 881.145 52.8245L878.544 52.443ZM854.869 60.0901L855.644 61.3394C855.324 61.8284 855.354 62.022 855.324 62.5933C858.559 63.7368 866.269 59.6439 868.144 62.5987C871.92 62.4638 885.313 58.803 887.85 56.8096C886.708 55.8228 886.38 55.8395 884.858 55.9817C883.707 56.0893 882.614 56.6613 881.448 56.8092C872.555 57.9373 863.749 58.4396 854.869 60.0901Z"/>
	<path fill="#B3D7E8" fill-opacity="0.98431373" d="M854.869 60.0901C863.749 58.4396 872.555 57.9373 881.448 56.8092C882.614 56.6613 883.707 56.0893 884.858 55.9817C886.38 55.8395 886.708 55.8228 887.85 56.8096C885.313 58.803 871.92 62.4638 868.144 62.5987C866.269 59.6439 858.559 63.7368 855.324 62.5933C855.354 62.022 855.324 61.8284 855.644 61.3394L854.869 60.0901Z"/>
	<path d="M602.155 89.684C604.529 89.4463 607.466 88.8453 609.759 89.5564C609.774 89.657 609.791 89.7573 609.804 89.8581C610.638 96.0605 607.375 107.526 606.832 114.391C606.069 124.032 606.577 133.461 607.027 143.093C607.212 147.064 608.396 156.137 606.033 159.299C602.689 160.443 598.375 160.304 594.842 160.576C593.756 160.75 592.713 160.614 591.627 160.505C585.455 155.882 587.42 117.417 588.01 108.63C588.31 104.161 590.357 95.5008 588.86 91.5291C593.248 91.2308 597.853 90.5983 602.155 89.684Z"/>
	<path d="M1195.69 223.437C1196.87 223.288 1197.79 223.201 1198.93 223.61C1199.59 223.848 1199.59 224.198 1199.88 224.805C1199.83 235.119 1196.07 245.489 1196.07 256.224C1196.06 264.507 1198.63 287.187 1196.06 293.483C1191.43 294.875 1186.08 294.901 1181.27 295.03C1175.22 289.974 1177.14 251.464 1177.71 242.348C1178.03 237.236 1179.59 230.709 1178.69 225.77Q1187.26 225.11 1195.69 223.437Z"/>
	<path d="M360.051 85.7815C362.431 85.5406 364.345 85.3616 366.444 86.4933C367.394 87.8665 368.187 89.1978 368.312 90.9025C369.127 101.984 355.83 100.098 352.181 104.815C349.761 107.943 350.261 113.397 350.657 117.066C354.052 115.777 360.031 112.682 363.517 112.899C364.339 113.364 364.929 113.568 365.389 114.442C366.58 116.705 366.07 119.992 365.283 122.338C363.799 126.762 357.083 128.084 353.182 129.993C353.636 132.57 354.171 135.516 355.396 137.842C357.983 142.754 362.201 142.656 366.807 144.133C368.541 144.69 368.757 145.012 369.543 146.552C369.633 148.758 369.051 150.439 368.32 152.476C365.23 156.483 360.727 159.96 355.694 161.087C353.75 161.523 351.401 161.54 349.695 160.394C340.336 154.109 334.744 135.831 332.869 125.186C331.31 116.329 330.333 105.967 335.826 98.2336C341.148 90.7416 351.32 87.2635 360.051 85.7815Z"/>
	<path d="M235.426 85.7615Q236.413 85.6689 237.401 85.5973C239.003 85.4798 240.798 85.3536 242.064 86.5031C243.068 87.415 243.489 88.9738 243.491 90.2965C243.511 102.475 233.733 98.4625 228.038 104.543C224.924 107.868 225.591 112.877 225.712 117.07C228.906 115.902 235.821 112.204 239.069 113.24C240.009 113.54 240.573 114.121 240.967 115.025C241.751 116.823 241.131 121.205 240.457 123.013C239.139 126.547 231.661 128.409 228.244 130C228.825 132.658 229.431 135.709 230.718 138.116C233.522 143.359 237.831 142.597 242.653 144.156C244.086 144.619 244.267 145.026 244.953 146.299C245.036 148.756 244.3 150.591 243.409 152.831C240.469 156.725 235.169 160.341 230.307 161.146C228.265 161.485 226.212 161.312 224.503 160.054C215.393 153.347 209.841 135.684 208.083 124.888C206.63 115.964 205.844 105.513 211.449 97.8164C216.747 90.5415 226.829 87.0897 235.426 85.7615Z"/>
	<path d="M651.102 85.9368C653.914 85.5556 656.65 85.6286 659.48 85.7206C659.532 85.7913 659.586 85.8609 659.636 85.9329C660.841 87.6573 661.379 92.1998 660.924 94.263C659.739 99.6343 651.305 100.784 647.274 103.305C641.649 106.824 644.309 111.76 643.089 116.879C643.068 116.969 643.044 117.058 643.022 117.147C647.278 115.858 652.153 112.63 656.657 113.203C657.679 113.846 658.235 114.026 658.669 115.223C659.448 117.375 658.822 120.712 657.882 122.754C655.81 127.26 649.237 128.413 644.993 130.032C647.298 132.712 647.328 136.828 649.176 139.804C650.917 142.607 655.29 142.852 658.285 143.62C660.455 144.176 661.999 144.602 663.21 146.644C663.33 148.609 662.714 148.843 662.002 150.569C661.601 151.541 660.922 152.112 660.164 152.812C660.084 153.356 659.852 153.921 659.582 154.399C657.909 157.351 652.865 159.624 649.746 160.55C647.456 161.23 645.051 161.607 642.867 160.404C635.117 156.134 630.222 142.36 627.882 134.193C624.871 123.681 622.35 108.887 627.945 98.9643C632.297 91.2451 643.065 88.1231 651.102 85.9368Z"/>
	<path d="M459.87 222.535C469.842 222.213 479.814 222.626 489.787 222.43C498.105 222.265 506.862 221.343 515.129 221.915C516.238 221.992 517.083 222.296 517.976 222.951C518.502 224.292 518.571 224.797 517.947 226.179C516.709 228.922 507.951 240.944 505.169 241.972C504.407 242.253 503.878 241.89 503.153 241.624C499.227 236.326 500.394 227.761 492.002 226.559C489.396 226.186 485.27 226.588 483.123 228.188C480.859 229.876 480.036 232.838 479.697 235.518C478.041 248.619 479.46 264.453 479.884 277.673C480.016 281.772 480.614 286.224 480.243 290.287C480.118 291.664 480.146 292.153 479.053 293.081C474.185 294.074 468.689 294.809 463.727 294.268C460.157 291.377 462.1 286.103 459.946 282.486C458.516 282.264 457.679 281.921 456.502 281.08C455.768 279.612 455.411 278.96 455.888 277.272C456.381 275.528 457.661 274.621 459.15 273.759C461.053 269.198 458.917 245.772 459.146 238.376C459.244 235.241 460.749 224.911 459.87 222.535Z"/>
	<path fill="#B3D7E8" d="M459.15 273.759C461.01 274.565 462.352 275.109 463.473 276.91C463.638 278.476 463.747 279.394 462.603 280.692C461.95 281.433 460.762 281.95 459.946 282.486C458.516 282.264 457.679 281.921 456.502 281.08C455.768 279.612 455.411 278.96 455.888 277.272C456.381 275.528 457.661 274.621 459.15 273.759Z"/>
	<path d="M541.329 88.4368Q544.834 88.0991 548.35 87.9203C551.239 87.7902 554.371 87.4874 556.661 89.5858C554.555 93.5144 551.012 97.489 549.632 101.663C547.379 108.478 545.809 126.413 543.869 130.057C550.295 128.586 555.439 123.338 561.814 122.2C563.386 121.92 564.86 122.544 566.122 123.446C572.957 128.333 577.218 143.248 578.378 151.385C578.73 153.855 578.462 154.777 576.998 156.747C576.783 157.826 576.436 157.953 575.618 158.63C570.323 159.806 529.818 159.887 526.27 158.082C525.078 157.476 524.582 156.954 524.164 155.679C521.731 148.242 528.596 102.251 532.546 94.9067C534.626 91.0398 537.241 89.647 541.329 88.4368ZM547.326 133.435C544.577 138.969 543.805 144.822 545.793 150.823C546.244 152.184 546.71 153.498 547.739 154.536C548.801 154.97 550.607 155.235 551.673 154.693C551.785 154.636 551.913 154.512 552.001 154.436C553.797 153.805 554.745 153.009 555.594 151.284C557.346 147.727 557.34 143.045 556.03 139.351C555.088 136.694 553.731 134.72 551.226 133.3C549.803 133.102 548.732 133.137 547.326 133.435Z"/>
	<path d="M1131.29 222.812C1135.14 222.305 1142.67 221.253 1145.93 223.545C1145.96 226.205 1139.76 234.419 1138.72 238.092C1136.95 244.342 1135.62 260.056 1133.84 263.815Q1133.75 264.009 1133.65 264.198C1139.43 262.697 1147.3 256.231 1152.91 256.41C1154.45 256.459 1156.05 257.788 1157.09 258.842C1162.76 264.573 1168.33 279.753 1168.22 287.888C1168.19 290.051 1167.5 290.783 1166.04 292.188C1165.82 292.526 1165.81 292.672 1165.42 292.839C1162.57 294.075 1126.73 294.131 1120.98 293.741C1119.03 293.609 1117.3 293.256 1115.49 292.535C1114.69 291.796 1114.4 291.018 1114.14 289.985C1111.56 279.668 1117.74 237.279 1123.23 228.243C1125.21 224.965 1127.67 223.709 1131.29 222.812ZM1136.99 267.812C1134.18 273.048 1133.64 278.829 1135.37 284.586C1135.88 286.273 1136.46 287.734 1137.78 288.958C1138.97 289.314 1140.51 289.573 1141.69 289.011C1141.81 288.953 1141.93 288.848 1142.03 288.771C1143.93 287.897 1144.86 286.895 1145.61 284.925C1147.11 280.976 1146.88 276.002 1145.1 272.184C1144.09 270.034 1142.81 268.616 1140.63 267.592C1139.37 267.555 1138.22 267.515 1136.99 267.812Z"/>
	<path d="M631.797 221.562C633.001 221.381 634.916 220.818 636.047 221.19C637.623 221.709 638.656 223.312 639.372 224.731C645.805 237.486 644.434 274.674 637.312 287.708C635.937 290.226 628.514 296.042 628.429 296.697C627.786 301.645 629.11 307.332 629.378 312.347C630.125 326.363 630.452 346.138 625.974 359.59C624.517 363.966 622.643 366.381 618.503 368.439L618.168 368.981C616.844 369.416 616.374 369.452 615.01 369.168C613.998 367.197 617.127 357.702 617.612 354.942C618.464 350.094 618.457 344.883 618.593 339.956C618.907 328.565 617.983 317.129 616.493 305.839C614.348 289.576 609.726 268.766 612.203 252.605C614.161 239.827 621.494 229.071 631.797 221.562ZM624.289 247.81C623.046 254.306 622.904 273.14 626.649 278.72C626.791 278.931 626.951 279.128 627.118 279.32C628.385 279.197 629.057 278.607 629.778 277.494C629.841 277.397 629.886 277.29 629.939 277.188C632.013 275.948 632.907 274.114 633.471 271.848C635.035 265.57 633.662 257.132 630.257 251.636C629.387 250.231 627.886 248.206 626.19 247.865C625.568 247.741 624.917 247.77 624.289 247.81Z"/>
	<path d="M1019.51 222.187C1036.77 220.909 1055.9 222.548 1073.31 222.808C1082.41 222.944 1092.58 221.448 1101.46 223.273C1102.37 224.122 1102.86 224.911 1103.21 226.111C1104.22 229.631 1103.86 235.833 1102.01 239.019C1099.12 243.991 1093.4 246.726 1088.06 248.084C1088.23 247.608 1088.38 247.11 1088.42 246.603C1088.74 242.471 1087.2 236.697 1084.45 233.534C1080.74 229.272 1077.27 228.786 1071.83 228.402C1073.09 233.999 1069.8 242.659 1069.46 248.613C1068.93 257.869 1073.21 284.414 1070.8 290.638C1070.67 290.956 1070.54 291.261 1070.38 291.563L1070.37 292.69C1067.47 295.035 1056.63 294.541 1052.6 294.715C1052.77 294.193 1052.89 293.703 1052.77 293.156C1049.61 277.552 1050.18 261.221 1050.49 245.33C1050.56 241.567 1052.6 232.88 1051.35 229.625C1051.09 228.939 1050.9 228.729 1050.25 228.412C1047.14 226.876 1038.22 226.965 1034.97 228.166C1026.21 231.407 1033.72 258.708 1030.35 265.731C1030.33 265.779 1030.3 265.827 1030.28 265.875C1027.26 267.572 1018.68 268.543 1015.32 268.295C1013.95 267.251 1013.62 266.057 1013.2 264.421C1011.37 257.227 1010.97 230.839 1014.74 224.799C1015.89 222.947 1017.53 222.645 1019.51 222.187Z"/>
	<path d="M497.049 88.4353C499.432 88.1142 502.053 87.5778 504.19 88.9321C504.694 92.467 501.039 108.575 500.623 114.239C499.929 123.693 502.791 151.747 500.924 157.584C500.566 158.703 499.903 159.566 498.842 160.07C495.572 161.624 488.254 160.255 484.919 159.142C477.856 154.624 484.154 125.855 480.472 118.371C480.446 118.317 480.418 118.264 480.39 118.21C474.039 117.702 467.547 116.964 461.178 117.084C460.509 123.23 460.361 150.729 458.248 154.075C458.318 154.203 458.391 154.33 458.453 154.463C459.08 155.818 459.33 156.472 458.86 157.878C454.358 160.853 444.029 160.337 438.6 160.835C440.078 157.897 438.728 145.688 438.686 141.753C438.532 127.163 440.437 113.457 442.943 99.1197C443.378 96.6294 444.208 93.8733 443.543 91.3895C449.084 91.1709 459.615 88.246 464.09 91.6346C464.895 92.7781 465.298 93.75 465.393 95.1577C465.642 98.8102 464.159 107.058 461.695 109.892C467.884 110.087 474.074 110.712 480.245 111.216C480.581 110.752 480.855 110.221 481.076 109.692C482.424 106.466 483.768 93.4662 482.513 90.338C487.367 89.8453 492.277 89.4895 497.049 88.4353Z"/>
	<path d="M985.393 222.812C987.644 222.615 990.945 221.939 993.036 222.77C992.223 232.023 989.975 241.054 989.313 250.35C988.597 260.411 989.812 271.086 990.202 281.2C990.334 284.623 990.652 288.354 989.771 291.694C989.509 292.689 988.94 293.486 988.008 293.987C984.403 295.927 978.214 294.998 974.513 293.769C966.361 291.062 972.954 260.04 969.162 252.763C969.137 252.716 969.112 252.671 969.087 252.625C962.566 251.703 955.839 251.65 949.262 251.338C949.504 251.783 949.714 252.246 949.826 252.743C950.109 253.997 948.636 282.332 948.291 285.091C948.165 286.098 947.77 286.991 947.185 287.818C947.211 287.863 947.239 287.907 947.264 287.953C948.056 289.386 948.284 290.509 947.84 292.045C943.927 295.297 932.167 294.759 927.214 295.103C927.248 295.046 927.283 294.989 927.315 294.931C928.773 292.239 927.526 279.92 927.521 276.123C927.505 265.186 928.165 254.763 929.977 243.976C930.758 239.325 933.606 230.089 932.364 225.714C938.003 225.562 948.455 222.541 953.086 225.846C953.856 226.894 954.391 227.902 954.459 229.224C954.626 232.448 952.867 241.925 950.778 244.222C956.99 244.359 963.251 245.027 969.449 245.487C969.505 245.403 969.562 245.321 969.615 245.236C970.901 243.188 972.227 227.545 971.549 224.862Q978.5 224.03 985.393 222.812Z"/>
	<path d="M721.803 222.811C724.105 222.543 727.009 221.975 729.186 222.894C729.793 229.496 726.085 243.231 725.701 251.286C725.224 261.291 727.947 283.034 726.36 290.838C726.069 292.266 725.746 293.145 724.51 293.941C721.984 295.569 717.95 295.647 715.094 295.031C699.275 291.618 711.213 263.977 705.011 254.485C704.977 254.434 704.942 254.384 704.908 254.333C702.453 256.852 687.751 264.649 684.357 265.525C686.013 269.603 685.157 288.697 683.85 293.032C681.328 293.524 678.654 293.6 676.091 293.804C671.977 294.488 667.839 294.828 663.687 295.192C665.055 292.811 663.862 280.252 663.771 276.879C663.548 268.577 664.323 260.334 665.238 252.088C665.882 246.28 669.846 230.182 668.683 225.708C674.446 225.243 680.481 224.434 686.251 224.527C687.766 224.551 689.126 224.622 690.207 225.722C690.832 230 687.544 252.55 685.299 255.935C691.645 254.603 701.235 250.392 705.642 245.511C705.912 245.156 706.161 244.787 706.345 244.378C707.24 242.385 708.553 226.907 707.841 224.817Q714.849 223.999 721.803 222.811Z"/>
	<path d="M786.561 221.562C791.566 221.35 796.95 221.89 801.775 223.168C810.617 225.51 819.601 230.699 824.261 238.82C827.317 244.144 828.696 251.079 827.028 257.069C824.386 266.559 814.071 272.273 806.083 276.829C810.359 278.714 814.547 282.324 816.549 286.588C819.559 293 817.829 301.27 815.519 307.622C811.571 318.474 799.713 325.711 789.631 330.345C770.576 339.103 768.222 317.987 753.979 312.706C750.358 313.056 745.759 315.692 742.441 315.413C742.027 315.378 741.706 314.823 741.433 314.514C741.449 314.335 741.45 314.259 741.495 314.069C742.15 311.286 748.03 307.08 750.508 305.699C754.832 303.289 759.71 302.966 764.428 304.34C768.823 305.619 779.787 311.329 782.07 315.534C784.469 316.333 786.421 318.433 788.698 319.551C790.293 320.334 791.312 320.342 792.958 319.718C795.554 318.732 797.366 315.483 798.453 313.09C801.614 306.128 803.029 296.276 800.195 288.967C796.924 280.532 781.75 287.491 775.061 284.391C773.712 283.766 772.752 282.748 772.295 281.326C771.417 278.591 772.405 274.596 773.735 272.116C780.024 260.387 795.326 274.865 803.608 272.141C805.719 271.446 807.036 269.831 807.973 267.901C811.424 260.797 810.553 251.81 808.012 244.572C805.779 238.212 801.707 231.283 795.366 228.313C790.207 225.897 783.231 226.812 778.033 228.699C772.127 230.843 769.557 236.98 768.93 242.893C768.695 245.102 769.031 247.527 767.996 249.555C767.945 249.656 767.889 249.755 767.835 249.854L751.774 251.403C754.362 248.258 752.832 238.754 758.675 231.964C765.35 224.209 776.881 222.318 786.561 221.562Z"/>
	<path d="M296.21 88.425C302.417 88.1898 308.635 88.5904 314.835 88.8864C311.617 99.8753 305.413 106.794 296.823 113.916C299.57 114.166 303.214 114.294 305.586 115.875C311.335 119.707 316.487 139.799 317.691 146.666C318.282 150.039 319.468 155.377 317.401 158.324C312.984 160.014 305.565 159.227 300.781 159.286C287.914 159.343 275.087 160.994 262.228 160.769C259.307 136.999 262.052 113.25 267.283 90.021Q281.737 89.0547 296.21 88.425ZM284.793 118.58C281.65 130.312 282.376 143.218 282.431 155.28C286.815 155.102 291.275 155.102 295.554 154.047C297.289 152.78 297.96 151.747 298.289 149.626C299.649 140.866 295.815 130.937 290.665 123.987C289.031 121.782 287.297 119.804 284.793 118.58ZM291.77 93.8146C287.751 95.9775 287.051 98.8884 285.802 103.075C285.117 105.373 284.298 109.208 285.457 111.448C285.62 111.762 285.815 112.044 286.025 112.329C287.671 112.773 288.407 112.62 289.935 111.706C290.466 111.389 290.974 111.022 291.474 110.657C294.82 107.267 300.686 102.007 300.652 96.9567C300.647 96.2772 300.114 95.556 299.802 94.9517C297.409 93.2369 294.555 93.6369 291.77 93.8146Z"/>
	<path d="M163.257 57.1434C168.095 56.8543 172.375 57.2985 176.8 59.3937C185.988 63.7437 192.438 72.1425 195.762 81.5255C187.518 84.0448 178.31 85.247 169.837 87.042C168.069 83.0947 166.133 79.1051 163.204 75.8771C159.873 72.2061 155.711 70.1807 150.739 69.9858C146.486 69.8191 142.559 71.2287 139.453 74.156C132.233 80.9609 130.376 93.6848 130.111 103.23C129.752 116.179 132.533 135.935 141.813 145.602C144.436 148.335 147.755 150.148 151.599 150.177C160.141 150.242 167.245 141.372 172.896 135.819C174.017 134.798 175.408 133.799 176.783 133.143C178.224 132.455 179.598 131.954 181.172 132.511C181.76 133.399 182.093 133.832 182.214 134.923C182.708 139.362 180.009 144.335 177.281 147.649C170.436 155.963 157.327 163.636 146.606 164.571C138.927 165.241 131.417 162.445 125.584 157.499C115.212 148.706 109.856 133.729 108.748 120.46C107.368 103.933 111.003 85.8662 122.022 72.9816C131.376 62.0428 149.478 58.169 163.257 57.1434Z"/>
	<path d="M565.536 220.311C569.93 219.938 575.186 221.886 578.868 224.17C585.177 228.085 588.987 234.348 590.624 241.491C593.2 252.728 591.384 265.296 585.149 275.053C578.729 285.099 564.021 292.133 552.637 294.629C550.712 295.496 547.78 295.125 545.851 294.386C539.034 291.777 534.359 283.372 531.642 276.979C527.414 267.028 526.955 257.04 531.084 246.912C536.918 232.604 552.215 225.877 565.536 220.311ZM550.463 234.061C545.5 238.707 543.978 243.597 543.738 250.383C543.412 259.608 546.127 269.067 552.555 275.882C555.586 279.096 559.712 281.328 564.198 281.465C565.172 281.494 566.172 281.497 567.083 281.114C570.545 279.525 572.395 276.837 573.68 273.307C576.471 265.635 574.697 253.508 571.269 246.268C568.917 241.301 564.852 236.875 559.574 235.013C556.797 234.034 553.381 233.638 550.463 234.061Z"/>
	<path d="M881.727 220.312C886.247 219.893 891.636 221.93 895.376 224.361C901.822 228.552 905.479 235.15 906.992 242.566C909.271 253.736 907.27 266.159 900.885 275.686C894.71 284.901 879.567 292.457 868.884 294.586C868.776 294.641 868.672 294.705 868.559 294.75C866.699 295.489 863.929 295.077 862.129 294.31C854.744 291.161 849.639 282.132 846.823 274.955C843.19 265.694 843.21 256.118 847.238 246.97C853.503 232.741 868.008 225.585 881.727 220.312ZM866.228 234.062C861.864 237.643 860.559 242.298 860.023 247.795C859.079 257.474 861.477 267.146 867.732 274.703C870.921 278.557 874.567 280.927 879.64 281.426C880.917 281.552 882.223 281.541 883.388 280.95C886.386 279.818 888.166 277.369 889.432 274.52C892.686 267.2 891.045 255.428 888.227 248.21C886.077 242.702 882.261 237.81 876.752 235.381C873.478 233.937 869.745 233.65 866.228 234.062Z"/>
	<path fill="#FAF286" fill-opacity="0.98823529" d="M1019.82 24.8306C1020.02 23.7334 1020.14 22.763 1020.09 21.6456C1020.76 20.2051 1021.32 19.0779 1022.88 18.5088C1024.83 17.7971 1026.96 17.4555 1028.87 16.6094C1030.82 15.7386 1032.28 14.081 1034.2 13.2664C1040.53 10.5741 1049.48 12.1748 1055.44 15.1159C1064.36 19.5239 1068.67 24.8654 1073.8 33.0229C1076.26 36.0635 1076.93 43.78 1076.53 47.775C1076.42 48.8897 1076.38 49.1896 1075.64 50.0376C1071.55 49.7231 1066.49 46.388 1062.71 48.5522L1062.42 49.5238C1065.86 53.2743 1072.38 50.6829 1075.42 54.9926L1075.19 55.9369L1073.71 56.6304C1075.33 56.6407 1079.23 56.174 1080.46 56.8603C1078.74 57.862 1077.79 58.7304 1076.75 60.4243L1077.23 61.0696C1078.64 61.1709 1080.04 61.2869 1081.45 61.186L1082.59 61.7926C1080.84 62.2455 1079.13 62.8503 1077.42 63.4194L1078.43 63.7766L1077.78 63.7279L1078.82 64.0611C1078.42 65.8837 1077.98 67.648 1077.11 69.3068C1073.29 76.5359 1064.6 81.7362 1057 84.0201C1047.05 87.0095 1038.16 86.2812 1029 81.3587C1021.23 77.1763 1013.81 71.6989 1011.16 63.0157C1009.98 62.0859 1008.17 61.8609 1006.72 61.5146L1006.41 62.1131L1007.28 64.7431L1006.73 64.7913C1005.23 62.7449 1006.53 60.8203 1005.18 59.032C1002.19 58.4284 997.156 60.6968 993.932 61.0807C993.523 60.5678 993.128 60.2128 992.588 59.8401L992.627 60.0622C996.629 59.5337 1002.42 59.4183 1005.51 56.6147C1006.01 54.3515 1003.83 53.7589 1003.18 51.7266C1001.79 47.4125 1002.69 38.4501 1004.64 34.3371C1005.84 31.7953 1007.28 30.7012 1009.82 29.7937L1013.72 29.4771Q1018.38 30.1693 1023.06 30.6245C1025.41 29.5898 1027.87 29.9257 1029.88 28.0661C1027.75 25.9649 1022.72 25.3929 1019.82 24.8306ZM1029.88 28.0661C1027.87 29.9257 1025.41 29.5898 1023.06 30.6245C1034.77 33.0941 1046.95 36.8958 1058.09 41.2154L1057.57 39.6761C1051.63 33.274 1038.57 28.6781 1029.88 28.0661ZM1046.2 56.3693C1046.12 58.0944 1045.98 58.1625 1044.77 59.3885C1050.65 59.5796 1051.05 57.6155 1055.98 55.916C1057.75 55.3025 1060.29 55.413 1062.18 55.2987C1059.33 53.4253 1052.57 51.4829 1049.14 51.5148C1048.05 51.5249 1047.66 54.8978 1046.2 56.3693ZM1044.77 59.3885C1045.98 58.1625 1046.12 58.0944 1046.2 56.3693C1043.51 56.4363 1042.2 56.2263 1039.85 57.615L1039.5 58.5879C1040.31 59.4032 1040.99 60.0755 1042.24 60.0265C1042.94 59.9996 1044.15 59.7125 1044.77 59.3885Z"/>
	<path fill="#EDF0BE" fill-opacity="0.86274511" d="M1044.77 59.3885C1044.15 59.7125 1042.94 59.9996 1042.24 60.0265C1040.99 60.0755 1040.31 59.4032 1039.5 58.5879L1039.85 57.615C1042.2 56.2263 1043.51 56.4363 1046.2 56.3693C1046.12 58.0944 1045.98 58.1625 1044.77 59.3885Z"/>
	<path fill="#EDF0BE" fill-opacity="0.80784315" d="M1046.2 56.3693C1047.66 54.8978 1048.05 51.5249 1049.14 51.5148C1052.57 51.4829 1059.33 53.4253 1062.18 55.2987C1060.29 55.413 1057.75 55.3025 1055.98 55.916C1051.05 57.6155 1050.65 59.5796 1044.77 59.3885C1045.98 58.1625 1046.12 58.0944 1046.2 56.3693Z"/>
	<path fill="#B3D7E8" fill-opacity="0.96470588" d="M1029.88 28.0661C1038.57 28.6781 1051.63 33.274 1057.57 39.6761L1058.09 41.2154C1046.95 36.8958 1034.77 33.0941 1023.06 30.6245C1025.41 29.5898 1027.87 29.9257 1029.88 28.0661Z"/>
	<path d="M1159.49 64.0617C1160.26 64.1484 1160.8 64.1469 1161.41 64.6809C1163.79 66.7349 1165.36 74.1483 1165.5 77.2208C1165.19 78.1974 1164.82 78.7093 1164.12 79.4286L1163.89 79.6559C1165.08 80.3335 1166.46 80.9941 1167.52 81.8513C1168.64 82.7594 1168.44 83.6115 1168.54 84.9552C1168.69 85.1702 1168.98 85.7256 1169.18 85.8598C1170.26 86.6156 1195.31 86.2038 1199.56 87.1475C1188.86 88.2752 1177.8 87.996 1167.03 88.1923C1169.06 89.8561 1171.08 92.302 1172.35 94.5903C1173.28 96.2469 1173.74 98.1223 1173.15 99.9822C1172.37 102.428 1169.92 103.292 1167.8 104.349C1170.33 104.764 1174.1 104.932 1176.36 106.061C1176.63 106.194 1177.25 106.438 1177.26 106.731C1177.54 112.859 1180.67 115.678 1182.55 121.165C1183.01 122.515 1183.09 123.786 1182.43 125.077C1180.94 127.991 1172.41 130.574 1169.35 131.582C1171.8 131.513 1174.25 130.894 1176.7 130.996C1179.77 131.124 1187.3 132.209 1189.34 134.516C1190.07 135.345 1189.93 135.821 1189.88 136.845C1187.04 139.694 1182.55 140.142 1179.59 142.801C1181.05 143.6 1183.18 142.425 1184.91 142.642C1188.13 143.047 1191.65 144.523 1194.7 145.632C1196.12 147.202 1196.57 150.756 1197.48 152.783C1198.64 155.373 1201.31 157.533 1201.67 160.256C1199.69 161.725 1193.4 160.3 1191.05 160.006C1171.38 157.543 1153.95 159.705 1134.7 163.692C1127.97 165.087 1121.11 166.385 1114.61 168.635C1106.06 171.592 1095.92 179.861 1086.71 179.369C1088.77 175.699 1097.4 174.907 1100.91 172.27C1100.96 172.232 1101.01 172.193 1101.06 172.155C1097.4 171.312 1068.27 181.879 1063.1 183.455L1062.32 183.037C1065.64 180.225 1071.09 180.038 1073.77 176.722C1073.8 176.679 1073.83 176.635 1073.87 176.592C1060.95 178.841 1048.1 181.233 1035.36 184.356C1031.54 185.291 1028.07 187.548 1024.21 188.195C1015.3 189.689 1005.51 187.327 996.682 189.279L996.603 189.991L996.992 189.116C995.735 189.999 994.83 190.52 993.296 190.725L992.475 189.797L992.661 189.083C1001.14 185.166 1003.53 186.548 1012.13 187.264C1018.11 187.762 1037.33 182.634 1043.23 180.445C1045.54 179.585 1047.71 177.897 1049.99 177.157C1051.96 176.516 1054.43 177.263 1056.5 176.816C1059.03 176.271 1073.04 169.807 1074.87 168.134C1076.4 166.732 1077.6 162.853 1077.71 160.803C1081.53 159.987 1088.61 159.338 1091.33 156.389L1090.78 155.534C1087.84 154.631 1084.85 154.578 1081.8 154.446C1083.43 152.114 1083.77 149.614 1084.96 147.14C1086.3 144.375 1089.38 143.789 1092.06 142.823C1091.58 142.463 1091.09 142.092 1090.68 141.656C1090.02 140.944 1089.23 140.122 1089.27 139.127C1089.51 132.653 1096.8 126.732 1098.1 120.467C1098.85 116.874 1098.76 110.381 1101.7 107.785C1102.45 107.12 1102.65 107.126 1103.63 107.172C1103.7 107.264 1103.78 107.354 1103.85 107.446C1106.2 110.546 1106.06 114.962 1107.76 118.364C1109.22 121.302 1113.21 125.881 1112.72 129.094C1111.97 131.135 1109.69 132.01 1107.89 132.914C1110.22 133.481 1113.04 133.894 1114.87 135.527C1114.99 135.616 1115.12 135.705 1115.23 135.801C1116.18 136.57 1120.37 143.097 1120.38 144.105C1120.4 144.908 1118.3 146.469 1118.58 147.493C1119.04 149.171 1121.11 150.114 1121.27 152.216C1121.3 152.551 1119.63 154.091 1119.26 154.49C1120.13 155.2 1121.41 155.619 1122.49 155.843C1129.28 157.242 1127.74 146.297 1130.63 143.646C1133.36 141.133 1144.63 142.906 1149.19 139.989C1149.64 139.697 1149.59 139.41 1149.7 138.898L1148.35 138.234L1149.73 139.549L1149.07 140.182C1148.16 139.183 1147.99 138.241 1147.9 138.188C1145.21 136.689 1139.67 138.666 1136.41 135.907C1130.25 130.677 1141.77 119.332 1141.23 112.699C1144.83 112.38 1151.51 112.84 1154.09 110.064C1153.98 107.512 1148.98 106.647 1147.34 104.508C1146.33 103.193 1146.07 101.607 1146.27 99.9893C1146.71 96.5243 1149.42 92.3072 1152.14 90.1823C1152.63 89.795 1153.03 89.3746 1153.45 88.9082L1153.61 88.7229C1101.88 90.956 1049.95 94.2852 998.807 102.728C973.281 106.942 948.959 113.643 923.868 118.226C917.447 121.214 892.967 125.48 884.39 127.539C877.486 129.197 870.246 130.583 863.521 132.823C860.092 133.966 857.02 136.118 853.49 136.933C849.489 137.855 845.285 138.022 841.235 138.928C821.67 143.304 802.24 148.255 782.484 151.731C770.806 153.785 758.929 154.903 747.29 157.072C744.775 157.541 743.578 157.358 742.093 159.532L741.139 159.583L741.808 158.342L741.392 157.751C721.717 160.068 695.585 162.918 676.222 162.043L676.887 161.845L677.135 162.156L678.458 162.162L677.429 160.982L677.658 161.719C703.599 158.738 729.31 155.75 755.032 151.079Q789.421 144.566 823.19 135.365C834.749 132.302 847.696 129.845 858.694 125.237C854.341 122.986 833.632 122.592 827.495 122.014C794.98 118.951 762.778 111.783 731.278 103.301C714.516 98.7877 697.817 94.1141 681.646 87.759L681.658 87.6606L680.079 86.9663L680.163 87.2432C680.786 87.5969 683.128 87.5076 684.162 87.7866C699.184 91.8388 714.058 96.3616 729.15 100.181C785.554 114.454 844.142 125.032 902.225 114.616C911.694 112.918 920.971 109.956 930.335 107.742Q955.317 101.781 980.699 97.8545Q1001.74 94.7049 1022.89 92.359Q1044.03 90.0132 1065.25 88.4746Q1086.47 86.936 1107.73 86.2069Q1128.99 85.4777 1150.27 85.5591C1155.09 79.4063 1155.89 70.8972 1159.49 64.0617ZM1136.69 153.437C1136.46 155.902 1136.39 157.545 1137.45 159.846C1138.3 160.567 1138.46 160.858 1139.64 160.758C1140.43 160.691 1140.84 160.463 1141.45 159.96C1142.69 158.986 1143.36 158.349 1143.81 156.82C1143.52 155.226 1143.32 154.628 1141.87 153.698C1140.28 152.675 1138.57 153.045 1136.84 153.404C1136.79 153.413 1136.74 153.426 1136.69 153.437Z"/>
	<path d="M389.315 230.735C396.127 222.1 392.928 185.664 391.555 174.007C389.622 157.586 384.178 132.412 387.149 116.901C388.561 109.531 392.323 102.024 396.957 96.1368C399.637 92.7315 404.479 87.3888 409.031 86.6529C410.327 86.4435 411.343 86.6735 412.359 87.4933C416.455 90.799 417.146 103.493 417.562 108.533C418.786 123.364 419.373 145.132 409.134 157.317C407.4 159.38 405.352 160.702 402.695 161.294C404.681 179.556 407.467 221.962 395.576 236.596C390.253 243.147 382.281 245.818 374.13 246.628C364.17 247.616 354.064 246.588 344.3 244.548Q333.983 242.324 323.891 239.235C318.225 237.535 278.005 223.652 275.216 223.916C274.897 223.946 274.155 224.378 273.834 224.518C272.91 225.957 272.644 226.977 272.973 228.716C274.182 235.11 282.175 243.513 279.535 250.36C277.518 249.686 276.701 247.34 274.673 247.069C275.922 249.772 279.698 257.032 278.902 259.812C278.782 260.23 278.838 260.041 278.684 260.46C277.88 262.645 278.887 265.5 277.354 267.292C275.92 267.636 275.574 267.538 274.178 267.075C272.276 264.467 270.575 256.148 267.838 255.371C266.997 257.556 273.93 270.181 269.681 274.336C267.589 275.025 266.157 275.186 264.006 274.736C263.6 276.47 263.692 277.497 262.178 278.552C259.395 278.903 257.154 276.571 254.601 277.079C254.939 279.394 255.757 281.004 255.189 283.378C254.252 284.315 253.864 284.735 252.456 284.749C250.66 284.766 248.391 283.441 247.143 282.151C245.568 280.524 245.479 278.802 243.078 278.217L242.527 278.592C242.349 280.784 243.566 285.979 242.57 287.456C241.237 288.146 240.531 288.372 239.013 287.928C238.028 287.64 237.002 287.039 236.089 286.57C235.648 288.223 236.359 290.508 235.23 291.629C233.546 291.51 232.393 291.265 231.249 289.961C230.278 288.856 228.331 285.803 227.114 285.429C227.128 286.062 227.347 287.911 226.963 288.314C225.068 290.304 222.167 293.066 219.466 293.701C218.396 293.272 218.211 293.185 217.758 292.124C217.336 291.138 217.251 289.954 217.116 288.896C214.219 289.182 214.449 292.526 210.871 290.434C210.419 288.785 210.977 287.562 211.554 286.035C210.801 285.737 208.961 285.253 208.654 284.557C208.141 283.389 208.651 280.281 209.176 279.142C210.195 276.928 213.21 275.516 214.019 273.364C212.226 272.295 207.951 271.251 207.04 269.594L207.467 268.735C209.568 268.173 211.55 268.234 213.702 268.274C213.03 266.733 210.954 266.675 210.543 264.956C211.631 264.745 212.813 264.613 213.777 264.039C212.41 261.798 208.961 262.615 207.654 260.227L208.027 259.045C210.832 258.075 213.401 258.262 216.204 259.061L216.156 258.165C213.392 256.189 208.97 257.203 206.564 255.134C206.737 254.421 206.747 254.484 207.355 254.113C211.391 251.647 214.408 250.623 217.75 247.047C221.643 249.286 225.514 251.762 229.85 253.039L229.821 252.537C228.124 251.294 225.81 249.99 224.785 248.117L225.184 247.119C226.417 246.91 227.6 246.775 228.688 246.117L228.45 245.437C223.941 243.291 217.984 246.206 214.807 242.249C214.583 240.626 214.58 240.328 215.315 238.854C216.825 237.628 218.606 236.823 220.602 237.042C221.77 237.171 222.984 237.571 224.107 237.915C222.649 235.931 220.14 234.438 219.645 232.062C221.51 230.218 223.665 230.152 226.197 230.175C229.471 230.204 231.739 231.38 234.651 232.749C231.914 228.69 225.924 227.173 224.597 225.263C225.707 223.6 228.594 223.424 230.379 222.666L228.843 221.023L228.965 220.199C235.448 217.144 245.851 217.532 252.42 219.852C256.013 221.122 265.022 225.857 268.235 225.69C269.263 224.4 269.51 224.242 269.488 222.592C267.018 219.622 233.994 212.609 228.621 211.693Q219.853 210.276 211.002 209.535C179.363 206.629 153.8 207.698 124.591 221.799C111.927 227.913 99.154 235.066 85.8618 239.694C84.6153 240.128 82.4244 241.094 81.1393 240.64C85.1235 237.884 89.8053 236.041 94.1193 233.832C100.342 230.645 106.467 227.237 112.607 223.895C115.417 222.365 118.993 220.863 121.366 218.753C111.583 222.332 101.572 223.96 91.7254 226.997C84.0845 229.353 77.5338 233.37 69.5072 234.686C77.4398 227.317 91.0031 222.155 101.1 218.294C113.192 213.172 125.57 207.629 138.327 204.381C145.016 202.677 151.876 201.96 158.618 200.539C152.619 196.963 121.508 205.585 117.571 203.595C126.117 198.909 155.027 197.196 165.768 196.912C169.667 196.808 180.558 197.971 183.696 196.46C174.899 194.654 145.511 193.74 136.056 194.476C128.817 195.04 120.972 196.472 113.955 198.326C112.309 198.762 109.848 199.302 108.314 198.302C111.344 196.387 116.843 195.785 120.37 194.976C154.591 187.124 192.039 190.965 225.969 198.613C240.855 201.969 255.827 206.164 270.215 211.224Q286.051 216.888 301.779 222.847C322.24 230.579 363.699 248.271 384.014 235.67C385.441 234.785 388.7 232.534 389.273 230.925C389.295 230.864 389.301 230.799 389.315 230.735ZM399.633 113.426C396.404 119.771 398.164 134.677 400.324 141.374C400.802 142.857 401.154 143.589 402.354 144.578C403.421 144.092 403.854 143.98 404.553 143.013C406.726 141.779 407.608 139.929 408.237 137.603C409.906 131.432 408.461 123.029 405.245 117.552C404.395 116.105 402.969 114.034 401.268 113.602C400.732 113.465 400.183 113.435 399.633 113.426ZM223.431 256.712L220.828 257.867C220.471 259.072 220.454 259.166 221.045 260.287C222.839 263.689 228.238 267.32 231.581 269.174L232.918 269.116C233.56 266.725 231.041 261.958 230.173 259.591C228.16 258.474 225.751 256.889 223.431 256.712ZM224.507 268.09L221.96 269.173C221.582 270.211 221.489 270.404 221.958 271.43C223.306 274.375 227.544 277.397 229.978 279.588L230.834 279.689C231.209 276.824 230.257 272.837 228.425 270.554C227.472 269.367 225.863 268.705 224.507 268.09ZM232.441 237.55C236.502 240.981 245.331 250.262 249.352 252.156C246.973 248.449 245.164 244.855 243.26 240.892C239.714 239.391 236.298 238.048 232.441 237.55ZM222.901 279.036C221.27 279.305 219.697 279.523 218.18 280.215L217.87 281.278C219.02 283.022 220.282 284.405 221.756 285.869L222.7 285.903Q223.471 282.778 224.05 279.611L223.52 278.952L222.901 279.036Z"/>
</svg>
