<?xml version="1.0" encoding="utf-8" ?>
<svg xmlns="http://www.w3.org/2000/svg" xmlns:xlink="http://www.w3.org/1999/xlink" width="2494" height="1312">
	<path d="M0 0L2492.25 0C2495.06 4.42208 2493.99 12.7059 2494 17.8912L2494 985.363L2494 1227.37L2493.99 1285.14C2493.99 1292.2 2495.19 1301.79 2493.72 1308.52C2493.44 1309.81 2492.95 1310.89 2492.25 1312L0 1312L0 0Z"/>
	<path fill="#0039A6" d="M1 436.51L2491.25 436.51C2492 437.945 2492.59 439.615 2492.8 441.231C2494.5 454.532 2493.06 470.144 2493.05 483.619L2493.02 576.43C2492.97 669.519 2494.44 762.829 2493.02 855.894C2492.97 859.134 2493.34 861.859 2491.21 864.501C2481.77 866.941 2459.43 865.118 2448.55 865.11L2341.4 865.061L1897.2 865.06L1 865.07L1 436.51Z"/>
	<path fill="white" d="M1 1L2491.25 1C2491.77 1.86307 2492.21 2.67649 2492.47 3.6574C2494.85 12.5952 2493.04 70.4369 2493.04 85.2323L2493.01 334.683L2492.99 410.049C2492.98 416.278 2494.4 426.672 2492.95 432.51C2492.74 433.352 2491.68 434.7 2491.21 435.501C2484.25 437.846 2382.27 436.083 2366.82 436.079L1963.85 436.076L1 436.085L1 1Z"/>
	<path fill="#ED1C24" d="M1 865.991L2491.25 865.991C2491.77 866.856 2492.21 867.672 2492.47 868.654C2494.35 875.735 2493.03 887.011 2493.03 894.491L2493.04 952.179L2493.01 1207.37L2492.99 1285.05C2492.98 1291.28 2494.4 1301.67 2492.95 1307.51C2492.74 1308.35 2491.68 1309.7 2491.21 1310.5C2479.67 1312.84 2451.78 1311.05 2438.43 1311.05L2310.47 1310.99L1831.98 1310.99L1 1311L1 865.991Z"/>
</svg>
