<?xml version="1.0" encoding="utf-8" ?>
<svg xmlns="http://www.w3.org/2000/svg" xmlns:xlink="http://www.w3.org/1999/xlink" width="3158" height="1660">
	<path d="M0 0L3156.25 0C3157.35 1.92783 3157.78 3.24367 3157.88 5.46174C3158.63 21.77 3158 38.4008 3158 54.7438L3158.01 149.177L3158.02 437.453L3158.02 1319.08L3158 1560.83L3158 1627.56C3158 1636.7 3159.26 1647.65 3157.72 1656.52C3157.49 1657.85 3156.91 1658.84 3156.25 1660L0 1660L0 0Z"/>
	<path fill="#B22234" d="M1267.25 4L3151.25 4C3152.11 5.52421 3152.68 6.66356 3152.83 8.44187C3153.72 18.8688 3154.17 116.167 3152.72 123.459C3152.44 124.829 3151.85 125.857 3151.15 127.044C3140.72 124.9 3126.11 126.636 3115.26 126.647L3026.45 126.699L2671.03 126.616L1266.93 126.323C1261.13 92.7584 1261.96 37.7519 1267.25 4Z"/>
	<path fill="#FFFEFE" d="M1266.93 126.323L2671.03 126.616L3026.45 126.699L3115.26 126.647C3126.11 126.636 3140.72 124.9 3151.15 127.044C3152.27 128.881 3152.76 130.175 3152.89 132.325C3153.67 145.232 3154.42 249.234 3152.6 255.795C3152.27 256.999 3151.81 257.904 3151.15 258.952C3140.99 260.875 3127.59 259.338 3117.09 259.305L3037.68 259.102L2741.15 258.947L1567.03 257.183L1349.11 256.996C1334.47 256.987 1277.14 255.127 1267.43 257.971C1261.6 214.796 1262.9 169.593 1266.93 126.323Z"/>
	<path fill="#B22234" d="M4 1540.09L2121.73 1539.43L2808.97 1539.16L3035.25 1539.1C3073.75 1539.09 3112.69 1540.43 3151.14 1538.88C3152.03 1540.41 3152.65 1541.59 3152.82 1543.39C3154.79 1563.9 3153.11 1588.67 3153.09 1609.56C3153.08 1621.04 3154.74 1640.76 3152.73 1651.49C3152.48 1652.83 3151.91 1653.83 3151.25 1655L4 1655L4 1540.09Z"/>
	<path fill="#FFFEFE" d="M4 1407.93C45.515 1412.88 88.2264 1409.76 129.92 1408.88C166.737 1408.11 203.683 1408.87 240.517 1408.96L768.324 1410.08L2506.18 1410.09L2983.47 1409.07L3098.9 1408.96C3112.99 1408.9 3138.48 1406.92 3151.15 1409.06C3152.27 1410.89 3152.76 1412.18 3152.89 1414.32C3153.71 1427.9 3154.5 1527.51 3152.65 1535.57C3152.38 1536.77 3151.73 1537.82 3151.14 1538.88C3112.69 1540.43 3073.75 1539.09 3035.25 1539.1L2808.97 1539.16L2121.73 1539.43L4 1540.09L4 1407.93Z"/>
	<path fill="#FFFEFE" d="M1267.43 257.971C1277.14 255.127 1334.47 256.987 1349.11 256.996L1567.03 257.183L2741.15 258.947L3037.68 259.102L3117.09 259.305C3127.59 259.338 3140.99 260.875 3151.15 258.952C3152.28 260.854 3152.76 262.195 3152.89 264.405C3154.43 290.735 3153.11 317.95 3153.08 344.396C3153.07 355.241 3154.77 371.039 3152.71 381.494C3152.44 382.851 3151.84 383.858 3151.15 385.028C3152.05 386.52 3152.66 387.642 3152.82 389.415C3153.83 400.313 3154.21 505.909 3152.45 512.11C3152.22 512.912 3151.98 513.328 3151.62 514.119C3148.3 516.471 1445.54 514.358 1267.11 514.301C1260.92 480.121 1262.82 419.243 1266.96 384.277C1265.77 360.364 1265.48 336.371 1264.75 312.439C1264.29 297.582 1262.53 281.162 1264.15 266.416C1264.49 263.335 1265.97 260.649 1267.43 257.971Z"/>
	<path fill="#B22234" d="M1267.43 257.971C1277.14 255.127 1334.47 256.987 1349.11 256.996L1567.03 257.183L2741.15 258.947L3037.68 259.102L3117.09 259.305C3127.59 259.338 3140.99 260.875 3151.15 258.952C3152.28 260.854 3152.76 262.195 3152.89 264.405C3154.43 290.735 3153.11 317.95 3153.08 344.396C3153.07 355.241 3154.77 371.039 3152.71 381.494C3152.44 382.851 3151.84 383.858 3151.15 385.028C3141.56 382.842 3127.4 384.547 3117.4 384.562L3034.9 384.629L2698.82 384.545L1266.96 384.277C1265.77 360.364 1265.48 336.371 1264.75 312.439C1264.29 297.582 1262.53 281.162 1264.15 266.416C1264.49 263.335 1265.97 260.649 1267.43 257.971Z"/>
	<path fill="#3C3B6D" d="M4 4L1267.25 4C1261.96 37.7519 1261.13 92.7584 1266.93 126.323C1262.9 169.593 1261.6 214.796 1267.43 257.971C1265.97 260.649 1264.49 263.335 1264.15 266.416C1262.53 281.162 1264.29 297.582 1264.75 312.439C1265.48 336.371 1265.77 360.364 1266.96 384.277C1262.82 419.243 1260.92 480.121 1267.11 514.301C1262.02 551.577 1261.1 602.802 1266.95 639.873Q1264.76 663.025 1264.07 686.271Q1263.38 709.517 1264.2 732.758C1264.6 745.099 1265.91 757.419 1266.22 769.75Q1265.58 833.382 1264.13 897L4 896.749L4 4Z"/>
	<path fill="#FFFEFE" d="M523.934 225.284C524.514 225.434 525.168 225.581 525.709 225.835C531.409 228.513 535.188 247.817 537.059 254.296C545.52 254.238 560.468 252.189 567.919 256.436L568.083 258.211C562.584 265.25 551.448 271.294 544.221 276.807C546.869 284.103 552.029 294.458 551.971 302.187C551.955 304.221 551.708 304.416 550.302 305.692C542.801 305.395 532.393 295.296 526.468 290.761C517.208 292.881 510.095 303.975 500.63 306.925L499.105 305.64C497.657 297.227 504.02 284.618 506.865 276.675C499.279 269.99 488.77 265.407 482.132 257.851L483.444 255.656C492.459 252.688 504.638 254.172 514.09 254.31C517.123 244.776 519.63 234.312 523.934 225.284Z"/>
	<path fill="#FFFEFE" d="M1049.48 135.614C1063.41 137.78 1057.26 153.893 1065.79 161.226C1073.34 167.722 1090.23 161.96 1098.65 167.701L1098.29 169.964C1095.43 173.677 1089.02 174.796 1084.81 176.795C1080.56 178.818 1077.57 181.709 1076.17 186.277C1072.35 198.73 1081.23 211.804 1087.12 222.132C1079.52 217.793 1073.37 211.458 1065.61 207.268C1062.8 206.277 1060.07 205.446 1057.11 205.098C1044.88 203.664 1036.38 209.831 1027.23 216.811C1031.49 200.584 1034.52 186.183 1019.7 173.714C1016.52 171.046 1012.79 168.851 1011.11 164.955L1011.81 163.426C1015.86 162.772 1019.54 163.917 1023.53 164.553C1029.58 165.518 1035.45 165.285 1040.49 161.373C1047.93 155.6 1048.39 144.228 1049.48 135.614Z"/>
	<path fill="#FFFEFE" d="M204.59 128.433C213.613 135.38 214.12 151.958 221.352 160.866C225.678 166.196 244.25 166.868 251.387 167.905C245.49 173.494 236.258 178.604 232.031 185.555C227.782 192.541 235.964 210.646 237.771 218.503C228.349 214.26 219.327 204.608 209.413 202.503C206.269 201.835 204.014 203.501 201.46 205.12Q190.493 211.909 179.361 218.426C182.151 209.296 189.035 197.065 188.475 187.565C188.356 185.539 187.769 183.689 186.244 182.286C180.68 177.169 164.848 173.697 154.698 163.297L153.923 162.487C165.847 164.317 177.658 166.587 189.77 165.93C191.062 165.093 192.382 164.305 193.662 163.449C206.067 155.147 201.765 141.652 204.392 129.294C204.453 129.006 204.524 128.72 204.59 128.433Z"/>
	<path fill="#FFFEFE" d="M840.125 136.242L843.496 136.966C848.679 140.829 852.287 158.563 854.347 164.644C862.343 164.586 871.564 163.735 879.408 165.088C882.035 165.541 883.247 165.68 884.833 167.779C881.526 174.902 868.504 181.389 862.276 186.667L861.485 187.349C863.96 194.735 868.1 203.86 868.508 211.606C868.632 213.958 868.418 214.252 866.975 215.951C859.716 216.138 849.294 206.108 843.644 201.816C833.854 201.81 826.724 216.747 817.323 217.017L816.332 215.676C814.941 206.522 820.268 195.611 823.022 187.02C816.828 182.002 805.501 176.213 801.51 169.49C800.628 168.004 800.968 168.081 801.382 166.554C808.739 162.563 822.417 164.413 830.696 164.516C833.659 155.013 836.645 145.57 840.125 136.242Z"/>
	<path fill="#FFFEFE" d="M629.976 135.371C630.205 135.484 630.443 135.583 630.664 135.712C637.437 139.637 640.592 156.503 643.048 164.084C650.34 164.081 666.719 162.297 672.658 166.852L672.521 168.937C667.263 175.801 657.107 181.743 650.077 187.109C652.093 193.115 654.313 199.163 655.919 205.291C656.809 208.687 657.89 212.437 656.079 215.58C648.787 215.82 636.849 205.063 630.836 200.874C623.773 204.904 613.071 216.033 605.162 216.505L603.944 214.824C603.991 205.669 608.762 195.466 611.731 186.856C604.801 180.951 594.22 175.488 589.294 167.987L589.759 166.329C597.427 162.335 610.526 163.885 619.061 163.864C622.044 155.254 624.727 142.63 629.976 135.371Z"/>
	<path fill="#FFFEFE" d="M732.189 46.6303C733.609 46.7443 736.289 46.5837 737.533 47.0596C744.651 49.781 743.603 65.9513 749.663 71.3901C756.523 77.5466 772.215 71.8015 780.125 76.8325C779.673 79.5221 763.083 90.1851 760.013 97.0255C755.05 108.082 762.307 121.448 766.525 131.695C756.388 125.817 748.051 117.225 737.734 111.674C727.638 114.604 715.532 125.763 706.769 131.969C709.988 122.673 714.918 113.766 714.127 103.577C713.021 89.3441 699.192 80.7952 689.534 72.1114C700.986 74.4856 709.988 76.7422 721.604 73.9797C731.021 65.4362 730.187 58.0857 732.189 46.6303Z"/>
	<path fill="#FFFEFE" d="M735.174 583.429C735.655 583.606 736.16 583.728 736.618 583.961C742.59 586.995 746.263 606.178 748.249 612.982C756.653 612.858 766.813 611.737 774.973 613.735C777.24 614.29 777.702 614.319 778.908 616.26C776.729 622.674 761.238 631.262 755.523 635.28C758.298 642.94 763.219 652.89 763.591 661.004C763.692 663.216 763.475 663.381 762.011 664.857C754.537 664.627 744.353 654.874 738.443 650.418C731.525 648.078 719.977 664.905 712.375 666.111C710.76 666.368 710.843 666.014 709.637 665.13C708.272 656.524 714.846 643.782 717.825 635.687C711.896 630.408 695.272 622.456 692.968 615.524C697.933 610.833 718.174 612.96 724.998 613.042C727.804 603.787 730.172 591.56 735.174 583.429Z"/>
	<path fill="#FFFEFE" d="M101.11 583.17C101.996 583.372 103.213 583.574 104.04 584.016C108.9 586.616 113.191 607.024 114.922 612.804C124.252 612.601 137.436 610.861 146.105 614.605L146.518 616.35C140.49 623.74 129.772 629.295 122.26 635.417C124.686 641.943 131.437 655.991 129.973 662.737C129.644 664.253 129.285 664.089 128.076 664.864C120.097 663.879 109.892 653.952 103.531 649.133C96.0096 652.543 85.0744 666.398 76.8284 665.259L75.6581 663.407C76.1607 654.49 81.2464 643.703 84.0654 635.018C76.9984 629.603 65.7225 624.148 61.116 616.533L61.6391 614.599C69.7979 610.772 82.7464 612.628 91.6388 612.796C94.6339 602.875 97.4665 592.877 101.11 583.17Z"/>
	<path fill="#FFFEFE" d="M524.121 582.587C524.977 582.886 525.173 582.92 526.041 583.404C531.061 586.204 535.115 606.84 536.974 613.057C545.548 612.898 556.025 611.659 564.352 613.72C566.601 614.276 566.934 614.308 568.096 616.26C565.221 623.215 550.292 630.889 544.003 635.132C546.295 641.692 554.287 659.122 551.546 665.136L549.464 665.639C540.94 662.713 532.315 654.35 525.16 648.803C519.159 653.492 508.805 663.766 501.427 665.266C499.74 665.609 499.872 665.294 498.557 664.434C496.844 656.329 503.698 643.04 506.508 635.358C501.485 631.386 496.043 627.761 490.841 624.023C487.578 621.679 482.999 619.069 482.323 614.928C487.837 610.532 506.782 612.884 514.025 613.036C516.617 603.768 518.959 590.603 524.121 582.587Z"/>
	<path fill="#FFFEFE" d="M1156.98 225.262C1157.96 225.427 1158.66 225.497 1159.61 225.884C1164.31 227.788 1169.27 248.72 1171.03 254.028C1179.41 253.934 1190.44 252.651 1198.38 255.402C1200.14 256.013 1200.04 256.242 1200.88 257.898C1197.99 264.82 1184.33 272.317 1178.17 276.731C1180.76 284.166 1185.62 294.257 1185.66 302.102C1185.67 304.238 1185.43 304.493 1184 305.891C1176.72 306.003 1166.38 296.114 1160.65 291.781C1150.77 291.643 1142.62 307.554 1131.47 306.582L1130.55 304.854C1130.82 303.193 1130.61 303.864 1131.28 302.334C1134.85 294.203 1137.15 285.457 1139.97 277.026C1132.8 271.76 1121.65 265.42 1116.73 258.171L1117.1 256.341C1124.71 252.241 1138.43 253.992 1147 254.056C1150.73 244.615 1152.68 234.479 1156.98 225.262Z"/>
	<path fill="#FFFEFE" d="M98.7228 46.9988C101.646 46.8242 104.02 46.5038 106.735 47.7447C108.659 50.347 108.519 51.5747 108.882 54.7543C109.401 59.3067 110.256 63.2566 112.816 67.1638C119.761 77.7622 130.839 73.3642 140.984 76.094C143.158 76.6787 143.536 76.7856 144.644 78.6804C142.093 83.5234 134.164 87.0005 130.255 91.163C117.901 104.319 130.639 114.258 131.302 128.079C126.714 130.743 110.866 112.718 101.494 114.141C101.231 114.181 100.97 114.233 100.708 114.279C89.1978 119.362 81.1979 127.316 71.4889 135.102C75.6984 125.415 81.5454 115.568 81.0229 104.629C80.294 89.3694 65.0874 80.3309 54.7935 71.25C62.8656 73.1219 80.0675 78.4238 87.8197 75.1004C95.7108 71.7174 95.6138 54.8043 98.4168 47.7341C98.5146 47.4873 98.6208 47.2439 98.7228 46.9988Z"/>
	<path fill="#FFFEFE" d="M629.215 313.386C629.865 313.512 630.651 313.633 631.248 313.912C637.119 316.656 640.889 336.792 642.755 343.344C650.912 343.185 668.33 340.949 674.773 345.555C673.961 350.941 655.053 362.037 649.961 365.995C652.654 373.498 658.292 384.932 657.732 392.87C657.602 394.713 657.37 394.481 656.146 395.635C648.355 395.04 637.762 384.556 631.643 379.817C624.427 381.157 613.667 393.829 605.57 396.841L603.981 395.361C602.481 386.876 609.156 373.929 612.089 365.898C605.665 360.22 597.938 355.865 591.159 350.592C589.242 349.101 587.55 347.906 587.19 345.456C592.697 340.839 612.217 343.087 619.442 343.21C622.879 333.325 625.118 323.046 629.215 313.386Z"/>
	<path fill="#FFFEFE" d="M946.732 582.383C947.212 582.617 947.707 582.823 948.174 583.084C953.639 586.15 957.543 606.242 959.58 612.836C967.057 612.526 974.68 611.983 982.154 612.397C985.209 612.566 988.974 612.632 991.137 615.021C990.128 620.145 971.56 631.492 966.897 635.038C969.313 642.931 975.537 654.09 974.886 662.285C974.741 664.117 974.539 663.835 973.278 664.915C965.402 664.209 954.746 653.839 948.499 649.082C938.927 652.232 932.366 663.486 922.132 666.392L920.687 665.284C919.592 656.349 926.088 643.462 929.097 635.038C922.622 630.558 907.324 622.465 905.105 615.373L906.543 613.864C915.656 611.265 926.589 612.664 936.01 612.983C939.233 604.198 940.84 589.312 946.732 582.383Z"/>
	<path fill="#FFFEFE" d="M945.819 224.389L948.581 224.869C953.759 227.869 957.688 247.376 959.539 253.605C968.241 254.077 979.527 251.742 987.71 254.863C989.557 255.568 989.22 255.639 990.015 257.232C987.03 264.402 973.19 271.767 966.827 276.216C969.318 283.369 975.458 296.004 974.487 303.471C974.264 305.183 973.93 304.989 972.666 305.959C964.596 304.917 955.125 295.599 948.715 290.71C939.184 292.409 931.245 307.209 921.064 306.253L920.099 304.429C920.339 295.998 925.8 284.396 928.578 276.289C921.955 270.789 909.332 264.823 905.621 257.127L906.373 255.339C914.429 251.706 927.224 253.544 935.995 253.737C939.13 244.031 941.61 233.675 945.819 224.389Z"/>
	<path fill="#FFFEFE" d="M312.106 224.361L315.505 225.103C321.432 229.991 323.837 246.502 326.556 253.949Q335.373 253.751 344.191 253.67C347.72 253.666 354.241 253.616 356.873 256.23L356.628 258.337C350.975 265.424 340.886 271.074 333.446 276.39C336.025 283.469 342.592 296.473 341.588 303.894C341.353 305.626 340.988 305.432 339.693 306.391C331.637 305.376 321.973 295.735 315.622 290.781C307.886 291.016 297.648 306.12 288.695 307.69L287.313 306.479C285.72 297.924 292.649 284.385 295.575 276.296C288.8 271.601 275.7 264.74 271.983 257.38L272.67 255.518C280.762 251.774 293.655 253.767 302.451 254.026Q307.462 239.253 312.106 224.361Z"/>
	<path fill="#FFFEFE" d="M313.12 582.472L316.342 584.091C321.597 591.515 323.649 604.098 326.066 612.944C333.665 613.19 341.273 612.168 348.893 612.626C352.115 612.82 355.148 613.013 357.321 615.503C355.74 621.717 339.104 631.161 333.321 635.321C336.034 642.531 342.621 655.228 341.752 662.859C341.561 664.531 341.258 664.391 340.101 665.422C332.392 664.995 321.617 654.23 315.576 649.476C306.01 651.609 298.411 663.759 288.554 667.031L287.151 665.698C285.964 656.615 292.658 644.082 295.881 635.657C289.098 630.254 281.717 625.722 274.896 620.412C272.889 618.849 271.216 617.684 270.892 615.118C277.917 610.596 294.626 612.802 303.038 612.936C305.642 603.712 307.919 590.364 313.12 582.472Z"/>
	<path fill="#FFFEFE" d="M207.008 672.253C207.965 672.421 208.688 672.5 209.613 672.891C214.317 674.882 219.177 696.089 220.866 701.577C227.752 701.638 246.291 699.954 251.131 704.646C249.882 710.808 233.606 720.46 228.163 724.581C230.645 731.605 236.726 743.99 235.727 751.345C235.494 753.059 235.069 752.922 233.796 753.905C225.922 753.175 215.853 743.463 209.611 738.772C200.561 741.533 193.862 751.945 184.564 754.738C182.699 755.298 183.457 755.323 181.787 754.428C180.275 746.054 186.952 732.676 189.79 724.692C182.644 718.295 171.134 713.115 165.971 705.147L166.609 703.411C174.778 699.656 188.047 701.429 196.969 701.555C200.474 691.889 202.633 681.566 207.008 672.253Z"/>
	<path fill="#FFFEFE" d="M1153.75 44.1852C1165.49 46.9821 1164.92 64.8236 1172.94 72.0254C1176.97 75.65 1181.36 74.6792 1186.38 74.4786C1190.72 74.3051 1197.43 73.1781 1200.83 76.3156C1201.19 82.5642 1185.05 89.6889 1181.03 96.0061C1177.76 101.132 1186.2 123.53 1187.94 130.507C1178.23 125.822 1164.56 111.018 1154.01 112.216Q1152.68 113.761 1151.3 115.266C1146.25 120.822 1137.98 129.546 1130.13 129.885C1125.7 124.921 1140.97 106.197 1136.74 96.3716C1132.37 86.2327 1116.23 81.5149 1106.91 77.4844C1118.07 77.4833 1132.8 80.3921 1142.48 73.3905C1151.52 66.845 1152.35 54.3301 1153.75 44.1852Z"/>
	<path fill="#FFFEFE" d="M734.861 403.249C735.869 403.418 736.621 403.496 737.601 403.887C742.335 405.776 747.177 427.475 748.817 432.907C755.728 432.914 774.043 431.182 779.041 435.764L778.753 437.966C772.961 444.905 763.307 450.355 755.92 455.702C758.63 463.59 762.866 472.93 763.444 481.242C763.609 483.609 763.524 483.888 762.037 485.575C754.435 485.187 743.08 474.285 737.018 469.683C727.835 473.477 720.55 484.058 710.727 486.182L709.394 484.898C708.15 476.251 714.665 463.421 717.604 455.27C711.194 450.677 699.551 444.232 695.469 437.625C694.549 436.136 694.89 436.141 695.224 434.565C702.347 430.4 716.839 432.505 725.07 432.655Q729.704 417.865 734.861 403.249Z"/>
	<path fill="#FFFEFE" d="M630.467 492.503C637.955 497.761 640.394 513.434 643.066 522.221C651.164 522.112 660.256 521.298 668.218 522.763C670.961 523.268 672.182 523.442 673.71 525.724C671.403 532.509 656.31 540.881 650.375 545.122C653.01 552.678 658.409 563.924 657.916 571.874C657.793 573.853 657.561 573.559 656.217 574.755C648.485 574.099 637.705 563.775 631.524 559.143C622.288 563.321 615.357 572.588 605.526 576.059L604.223 575.068C602.281 566.874 609.285 553.11 612.129 545.258C605.362 539.86 592.184 533.265 588.331 525.712L589.165 524.021C597.374 520.35 610.416 522.141 619.334 522.309C622.936 513.118 624.175 500.092 630.467 492.503Z"/>
	<path fill="#FFFEFE" d="M734.86 224.409C735.424 224.532 736.029 224.636 736.552 224.894C742.22 227.686 746.342 246.736 748.387 253.206C756.513 253.233 767.212 252.136 774.941 254.65C777.073 255.343 777.161 255.617 778.074 257.52C775.536 264.32 761.771 271.979 755.812 276.264C758.276 283.863 761.671 292.162 762.771 300.059C763.112 302.506 763.134 303.663 761.567 305.562C754.381 305.788 743.191 295.45 737.459 291.243C728.623 291.718 719.982 305.01 710.562 306.981L709.383 305.614C708.454 296.599 713.901 285.22 716.793 276.724C709.96 270.299 698.599 265.051 693.737 257.242L694.32 255.536C702.074 251.561 715.691 253.243 724.312 253.252C727.593 243.996 730.017 232.891 734.86 224.409Z"/>
	<path fill="#FFFEFE" d="M417.987 133.44C428.317 138.782 425.886 157.612 435.566 163.067C443.678 167.639 458.114 161.525 467.26 165.884C465.393 170.801 449.455 176.425 444.74 183.811C435.694 197.981 448.023 209.551 450.616 223.072C450.846 224.268 450.852 223.681 449.975 225.006C443.109 221.58 437.587 212.312 431.1 207.498L430.206 206.847C427.902 205.758 425.471 204.54 422.941 204.089C408.342 201.488 402.971 214.431 393.122 221.464L392.248 220.661C393.067 211.979 398.723 204.48 398.373 195.579C397.764 180.055 383.853 171.605 373.733 162.064C382.599 163.551 395.913 166.899 404.512 163.761C413.74 160.392 413.971 142.114 417.661 134.111C417.765 133.885 417.879 133.664 417.987 133.44Z"/>
	<path fill="#FFFEFE" d="M947.691 45.5124C948.959 45.9297 950.185 45.9767 950.972 47.1455C954.282 52.0616 954.73 62.6759 959.162 70.0754C971.713 78.8236 983.984 74.463 997.798 72.0671C989.37 78.7816 978.31 83.7098 973.286 93.8437C967.633 105.248 972.956 118.226 976.663 129.337C967.163 124.4 956.874 115.137 946.379 113.177C936.687 117.895 927.424 124.668 918.323 130.47C922.181 121.301 927.688 110.655 925.283 100.438C922.138 87.0754 906.175 81.5284 895.638 75.2094C906.794 75.1838 923.475 76.5845 933.591 71.5424C936.314 70.1852 937.101 68.5102 937.904 65.6973C939.666 59.5259 942.431 50.6599 946.98 46.1841C947.212 45.9554 947.454 45.7363 947.691 45.5124Z"/>
	<path fill="#FFFEFE" d="M1052.1 671.568C1053.02 671.918 1053.72 672.144 1054.57 672.682C1059.39 675.732 1063.33 696.116 1064.91 701.841C1072.56 701.822 1090.57 699.834 1096.41 704.485C1095.21 710.078 1077.25 720.864 1072.22 724.686Q1075.07 732.649 1077.77 740.667C1079.16 744.933 1081.22 750.191 1079.11 754.358C1071.91 754.793 1059.02 742.659 1052.98 738.157C1047.29 742.482 1035.7 753.578 1028.86 754.363C1027.29 754.544 1027.37 754.117 1026.27 753.155C1025.04 744.493 1031.25 732.462 1034.26 724.365C1027.16 719.426 1014.59 712.771 1010.36 705.265L1011.04 703.361C1019.54 699.646 1032.47 701.54 1041.64 701.78C1044.32 692.548 1046.7 679.348 1052.1 671.568Z"/>
	<path fill="#FFFEFE" d="M841.052 671.325C841.894 671.556 842.18 671.592 843.02 672.04C848.246 674.827 852.315 695.524 854.2 701.84C861.88 701.801 879.529 699.748 885.538 704.336L885.4 706.084C879.47 713.24 868.823 719.028 861.122 724.534C863.96 732.26 868.855 742.157 869.106 750.389C869.176 752.689 868.964 752.906 867.445 754.447C859.754 754.065 848.145 742.706 842.026 737.99C835.666 742.891 826.247 752.13 818.557 754.208C816.805 754.681 816.95 754.402 815.481 753.649C813.488 746.029 820.619 731.398 823.094 723.998C816.43 719.344 803.132 712.296 799.692 704.918L800.46 703.093C808.856 699.428 821.624 701.468 830.657 701.801C833.55 692.134 835.917 679.991 841.052 671.325Z"/>
	<path fill="#FFFEFE" d="M1157.05 582.231C1158.06 582.49 1159.36 582.78 1160.21 583.422C1165 587.055 1168.64 606.249 1170.51 612.651C1178.76 612.808 1195.83 609.909 1202.18 615.227C1201.12 620.742 1183.13 631.32 1177.73 635.198C1180.54 643.024 1185.72 653.535 1185.9 661.825C1185.94 663.827 1185.74 664.03 1184.4 665.339C1176.79 664.995 1166.37 654.702 1160.45 650.087C1152.21 648.158 1141.92 665.824 1132.72 666.309L1131.36 664.973C1130.16 656.302 1136.75 643.321 1139.66 635.139C1132.44 629.798 1120.6 623.881 1116.04 616.182L1116.6 614.191C1124.48 610.177 1138.34 612.303 1147.08 612.583C1150.08 602.705 1152.39 591.424 1157.05 582.231Z"/>
	<path fill="#FFFEFE" d="M313.083 402.274C313.983 402.595 314.432 402.711 315.3 403.235C320.565 406.409 324.344 426.327 326.307 432.651C334.202 432.86 351.268 430.112 357.166 435.385C355.302 442.191 339.716 450.869 333.564 455.305C336.098 462.331 342.766 475.604 341.548 482.965C341.262 484.691 340.817 484.53 339.486 485.458C331.603 484.535 321.878 474.588 315.738 469.668C306.768 471.081 297.693 482.804 288.947 486.887L287.442 486.225C284.94 478.604 292.534 462.885 295.137 454.987C287.954 449.957 276.432 443.694 271.867 436.271L272.396 434.342C280.614 430.366 293.682 432.637 302.732 432.502C305.701 423.004 308.02 410.779 313.083 402.274Z"/>
	<path fill="#FFFEFE" d="M629.175 671.179C630.114 671.44 630.75 671.569 631.645 672.046C636.559 674.662 640.999 695.927 642.804 701.899C651.616 701.995 661.625 700.163 670.219 702.301C672.541 702.879 672.804 702.913 673.974 704.954C671.141 712.049 656.34 719.844 649.993 724.192C652.726 731.711 658.943 744.059 658.359 751.971C658.226 753.768 658.013 753.49 656.766 754.546C648.933 753.882 638.696 743.888 632.532 739.13C622.872 739.049 614.653 755.291 604.566 756.07L603.443 754.879C602.437 745.729 608.919 733.4 612.121 724.87C605.38 718.976 590.894 712.501 587.096 704.752L588.027 703.333C597.053 699.984 609.523 701.752 619.05 702.003C622.906 691.899 625.017 681.227 629.175 671.179Z"/>
	<path fill="#FFFEFE" d="M101.128 224.241C101.769 224.378 102.628 224.535 103.217 224.791C109.014 227.318 113.16 246.951 115.089 253.317C122.998 253.376 131.955 252.714 139.706 254.24C142.483 254.787 143.669 254.953 145.146 257.319C142.657 264.181 128.676 272.14 122.705 276.531C125.17 283.998 129.903 294.252 129.807 302.081C129.781 304.18 129.531 304.433 128.122 305.812C120.801 305.899 110.355 295.92 104.582 291.562C96.2872 291.238 86.7258 305.351 77.6694 307.032L76.2729 306.053C74.4662 297.909 80.9376 284.458 83.5618 276.631C76.5502 270.588 64.958 265.08 60.2655 257.233L60.6726 255.631C68.1547 251.375 82.5791 253.247 91.0816 253.296C94.3054 243.564 97.4655 233.818 101.128 224.241Z"/>
	<path fill="#FFFEFE" d="M945.827 403.409L948.963 403.892C954.302 407.998 957.731 425.957 959.961 432.882C967.217 432.738 985.795 430.583 991.245 435.204C989.701 441.607 973.021 451.176 967.146 455.536C969.841 463.109 975.503 474.639 974.966 482.63C974.834 484.602 974.56 484.382 973.261 485.636C965.683 485.315 954.578 474.355 948.607 469.698C939.043 472.292 931.836 484.385 921.557 487.046L920.352 485.976C918.863 477.253 925.77 463.938 928.79 455.727C921.644 449.422 908.421 443.813 903.628 435.805L904.331 434.437C912.93 430.725 926.685 432.722 935.978 432.957C939.078 423.227 941.568 412.675 945.827 403.409Z"/>
	<path fill="#FFFEFE" d="M840.948 313.359C848.834 317.97 851.533 334.101 854.226 342.836C861.88 343.214 878.874 340.943 884.368 346.352C882.151 353.479 867.533 361.709 861.574 366.263C864.169 373.826 868.604 383.362 868.886 391.334C868.968 393.655 868.75 393.936 867.277 395.559C859.83 395.595 848.475 384.942 842.55 380.575C833.082 383.776 826.137 394.365 816.283 396.887L814.936 395.475C813.479 386.79 819.657 374.364 822.525 366.157C815.902 360.645 805.06 355.123 800.216 348.256C799.111 346.69 799.412 346.901 799.66 345.197C806.907 340.902 821.638 342.899 829.96 343C832.979 333.824 835.594 321.259 840.948 313.359Z"/>
	<path fill="#FFFEFE" d="M1156.97 403.184C1158.13 403.423 1159.65 403.636 1160.62 404.38C1165.44 408.074 1169.07 426.506 1170.94 432.792C1178.92 433.148 1196.97 430.455 1202.74 435.676C1200.45 442.674 1185.07 450.296 1179.27 455.542C1179.06 455.729 1178.86 455.921 1178.66 456.11C1180.77 463.488 1187.71 477.728 1185.25 485.021L1183.31 485.687C1175.19 483.369 1166.95 475.943 1160.11 470.958C1153.38 469.979 1140.93 484.725 1133.6 486.851L1131.99 485.557C1130.39 476.681 1136.61 463.941 1139.5 455.517C1132.86 450.82 1121.71 444.752 1117.18 438.164C1116.13 436.649 1116.44 436.786 1116.7 435.144C1123.76 430.879 1138.66 432.646 1146.98 432.508Q1151.78 417.779 1156.97 403.184Z"/>
	<path fill="#FFFEFE" d="M313.459 760.537C320.865 765.192 323.594 783.044 326.101 791.526C334.236 791.195 347.143 789.346 354.773 792.024C356.627 792.674 356.64 792.978 357.366 794.673C354.435 801.873 339.698 809.517 333.279 813.901C335.951 821.317 342.381 834.205 341.511 841.986C341.314 843.741 340.962 843.566 339.698 844.599C331.367 843.509 320.93 832.754 314.439 827.562C307.915 832.451 298.264 842.213 290.433 844.193C288.652 844.644 288.798 844.295 287.366 843.413C285.557 835.59 292.528 821.438 295.079 814.029C287.951 807.949 274.499 802.107 269.782 794.288L270.334 793.023C279.039 789.148 292.955 791.105 302.408 791.303C305.897 782.187 307.23 767.85 313.459 760.537Z"/>
	<path fill="#FFFEFE" d="M315.3 41.2795C320.033 44.2596 319.786 60.6405 324.294 67.3598C334.06 81.9171 348.728 71.7439 361.673 74.0403C362.176 78.0735 341.623 89.3866 338.201 94.7308C334.009 101.276 341.189 115.571 339.014 124.347L337.299 125.035C331.609 123.874 326.952 119.166 321.843 116.481C317.698 114.302 314.829 113.329 310.298 114.827C310.055 114.907 309.815 114.997 309.574 115.081C303.092 118.741 291.493 128.394 284.219 128.402C284.361 122.575 290.429 114.313 292.124 108.303C298.596 85.3468 270.55 87.3521 264.802 77.0343C271.48 71.665 288.815 77.2126 298.01 73.6212C308.532 69.5116 310.752 50.7997 315.3 41.2795Z"/>
	<path fill="#FFFEFE" d="M522.852 47.4852C524.226 47.6749 525.691 47.8623 526.994 48.3558C533.469 50.8082 533.811 62.4372 536.595 67.8938C542.116 78.7131 557.758 73.2147 567.26 76.3422C567.662 78.1255 567.377 78.9644 566.985 80.7148C563.828 85.0628 557.673 86.0287 553.229 88.8444C550.204 90.7609 548.291 93.8055 547.497 97.2555C544.315 111.081 555.954 126.073 562.909 137.008C550.934 132.491 539.576 121.405 529.539 113.434C518.129 107.526 508.831 128.164 499.105 130.844L497.926 129.607C497.893 119.49 503.384 109.727 504.05 99.5731C504.131 98.3316 504.056 96.8933 503.432 95.7789C499.601 88.9436 480.648 78.4933 473.996 71.0218C483.866 72.5883 494.398 77.1666 504.484 75.338C521.21 72.3053 515.387 57.9839 522.426 48.0385C522.561 47.8486 522.71 47.6696 522.852 47.4852Z"/>
	<path fill="#FFFEFE" d="M418.227 313.317C419.224 313.516 420.092 313.642 421.046 314.054C425.774 316.096 430.555 337.349 432.211 342.785C438.156 343.15 444.224 342.906 450.189 343.068C454.01 343.173 460.317 343.215 463.006 346.073C461.57 352.556 445.472 361.861 439.595 366.208C442.023 373.373 447.924 385.811 447.009 393.25C446.801 394.94 446.515 394.776 445.328 395.799C437.603 395.338 427.573 385.803 421.452 381.253C413.115 380.594 404.377 394.388 395.73 396.103C394.11 396.424 394.204 396.15 392.903 395.391C390.779 387.788 398.051 373.178 400.664 365.801C393.998 360.964 386.222 356.136 380.354 350.415C378.624 348.729 377.655 347.833 377.681 345.386C383.434 340.909 400.727 342.626 408.178 342.579Q412.78 327.803 418.227 313.317Z"/>
	<path fill="#FFFEFE" d="M418.202 492.269C419.194 492.486 420.094 492.632 421.032 493.072C425.576 495.206 430.449 517.111 432.202 522.655C440.284 522.865 457.377 520.179 463.472 525.475C462.223 531.025 444.246 541.944 439.313 545.598C441.877 552.752 448.222 565.576 447.109 573.072C446.851 574.809 446.543 574.628 445.279 575.631C437.507 575.087 426.739 564.328 420.634 559.539C411.953 562.924 402.206 577.001 392.66 576.008L391.609 573.995C392.016 565.1 397.697 554.12 400.81 545.678C393.406 539.026 381.358 533.705 375.679 525.769L376.205 524.3C385.054 520.459 398.629 522.341 408.187 522.548C411.365 512.434 414.277 502.119 418.202 492.269Z"/>
	<path fill="#FFFEFE" d="M945.917 760.288C946.996 760.541 948.353 760.831 949.243 761.532C954.03 765.306 957.515 784.842 959.335 791.34C967.341 791.123 985.442 788.664 991.6 793.714C989.561 800.665 973.114 809.405 966.617 813.954C969.29 821.303 975.913 834.429 974.913 842.152C974.68 843.957 974.349 843.717 972.998 844.697C964.936 843.664 954.121 832.721 947.74 827.672C938.441 833.358 930.655 842.004 920.894 846.904L918.768 843.728C919.944 833.832 925.125 823.036 928.511 813.633C921.509 808.844 907.906 801.852 903.933 794.374L904.512 792.58C912.829 788.77 926.866 790.973 935.967 791.244C939.043 781.134 941.332 769.784 945.917 760.288Z"/>
	<path fill="#FFFEFE" d="M102.06 402.201C103.038 402.428 103.692 402.529 104.63 402.997C109.598 405.475 114.231 426.998 115.954 432.296C123.683 432.232 141.613 430.241 147.442 435.063C146.401 440.802 128.116 451.8 122.966 455.698C125.669 463.509 130.312 473.413 130.671 481.637C130.767 483.844 130.638 484.119 129.189 485.608C121.65 485.324 111.409 475.319 105.486 470.749C105.415 470.722 105.348 470.679 105.273 470.668C98.8337 469.668 88.4975 480.468 83.0966 484.164C80.706 485.801 79.0805 486.376 76.2604 485.825C73.3287 479.232 81.6795 462.191 84.3385 455.272C77.462 450.257 64.8754 443.238 60.8848 435.827L61.5361 433.913C69.9807 430.19 82.7663 431.93 91.9262 432.055C95.0915 422.112 97.9146 411.772 102.06 402.201Z"/>
	<path fill="#FFFEFE" d="M1053.9 488.469C1059.64 494.318 1056.33 508.362 1065.45 517.444C1076.09 528.043 1097.82 522.877 1111.7 522.851C1101.36 529.556 1081.37 533.642 1075.15 544.912C1070.11 554.032 1084.67 580.659 1087.35 590.772L1087.69 592.063C1079.15 584.298 1072.88 574.586 1064.97 566.224C1061.83 564.038 1058.7 562.073 1054.83 561.552C1040.25 559.587 1031.34 579.065 1021.33 586.74C1021.02 586.978 1020.7 587.209 1020.39 587.443C1022.81 575.517 1030.47 564.128 1031.98 552.565C1033.9 537.896 1015.52 536.17 1013.03 524.855C1018.34 522.004 1028.94 525.581 1035.75 523.547C1049.88 519.332 1047.59 499.293 1053.9 488.469Z"/>
	<path fill="#FFFEFE" d="M418.283 671.321C419.197 671.604 419.628 671.698 420.526 672.171C425.695 674.89 430.157 695.213 432.088 701.283C440.38 701.263 451.935 699.906 459.777 702.617C461.66 703.267 461.826 703.558 462.65 705.239C460.301 712.057 445.434 720.265 439.466 724.505C442.126 732.205 447.174 742.724 447.129 750.855C447.118 752.957 446.904 753.161 445.462 754.506C437.828 754.228 426.592 743.595 420.499 739.068C410.87 742.274 403.822 752.971 393.546 756.043L392.355 754.99C390.778 746.372 397.573 732.708 400.416 724.514C394.529 720.233 379.262 711.539 376.903 704.85L377.791 703.153C386.291 699.562 398.771 701.202 407.927 701.293C411.15 691.305 414.03 680.911 418.283 671.321Z"/>
	<path fill="#FFFEFE" d="M523.197 761.107C524.214 761.279 525.064 761.376 526.047 761.76C530.566 763.521 535.938 785.483 537.681 790.825C544.699 790.828 562.815 789.011 568.055 793.43L567.978 795.543C562.427 802.742 552.544 808.502 545.188 813.994C547.863 821.742 552.583 831.736 552.832 839.908C552.902 842.192 552.662 842.355 551.135 843.865C543.566 843.596 532.545 833.297 526.45 828.813C517.288 830.742 510.549 843.009 501.219 844.862C499.455 845.213 499.577 844.826 498.235 843.868C496.626 835.634 503.308 822.038 506.008 814.143C499.674 809.645 487.301 802.88 483.409 796.359C482.492 794.822 482.88 794.847 483.328 793.263C490.744 789.099 504.663 790.872 513.066 790.913C516.954 781.202 519.443 770.911 523.197 761.107Z"/>
	<path fill="#FFFEFE" d="M206.899 492.317L209.998 493.141C215.771 498.703 218.405 515.1 221.005 522.944C227.397 522.649 233.838 522.239 240.236 522.268C244.362 522.286 249.95 522.077 252.98 525.088C250.984 531.418 233.908 541.42 228.178 545.722C231.155 553.966 237.379 566.22 236.286 575.009L234.721 576.183C226.27 574.774 215.912 564.764 209.081 559.615C201.165 564.337 190.656 576.391 181.799 577.745L180.877 576.727C180.312 567.024 186.465 554.839 189.78 545.777C182.682 540.831 169.121 533.699 164.976 526.189L165.698 524.452C174.355 520.754 187.448 522.633 196.776 522.857C200.12 512.787 202.387 501.912 206.899 492.317Z"/>
	<path fill="#FFFEFE" d="M1156.84 760.373L1160 761.094C1165.62 766.262 1168.32 783.335 1170.7 791.03Q1179.89 790.839 1189.09 790.857C1193.3 790.902 1200.59 790.442 1203.68 793.621C1202.46 798.745 1182.97 810.152 1177.94 814.054C1180.54 821.14 1188.3 836.904 1185.85 843.76L1183.81 844.521C1175.26 842.212 1166.43 833.723 1159.42 828.326C1149.83 831.021 1142.87 843.376 1132.85 845.268C1131.11 845.598 1131.33 845.378 1130 844.524C1129.19 838.023 1136.9 820.723 1139.29 813.857C1132.36 808.553 1118.53 801.812 1114.57 794.217L1115.28 792.686C1124.03 788.975 1137.66 790.88 1147.1 791.048C1149.83 781.054 1152.27 769.662 1156.84 760.373Z"/>
	<path fill="#FFFEFE" d="M1052 312.285L1054.89 313.363C1060.71 318.915 1063.07 334.708 1065.72 342.46C1074.02 343.039 1090.42 340.656 1097.13 345.562C1096.21 350.867 1077.78 362.249 1073 365.971C1075.67 373.771 1080.08 383.342 1080.55 391.547C1080.68 393.939 1080.59 394.23 1079.05 395.889C1071.51 395.755 1060.42 385.235 1054.44 380.766C1046.53 381.18 1036.12 394.865 1027.03 397.139L1025.58 396.093C1024.33 387.122 1030.82 374.229 1033.81 365.787C1027.15 359.996 1013.66 353.594 1009.94 345.768L1010.82 344.169C1019.69 340.644 1031.83 342.261 1041.27 342.44C1045.05 332.542 1047.28 321.786 1052 312.285Z"/>
	<path fill="#FFFEFE" d="M102.094 760.283C102.444 760.451 102.805 760.597 103.144 760.787C109.399 764.286 113.064 783.622 115.242 790.842C122.725 791.196 130.229 790.603 137.723 791.107C140.976 791.326 144.583 791.542 146.802 794.054C145.42 800.349 128.16 810.248 122.784 814.087C125.435 821.555 131.696 834.171 130.801 842.038C130.595 843.846 130.331 843.609 129.041 844.656C121.201 843.979 110.583 833.463 104.388 828.644C94.3301 831.12 87.3651 844.31 76.9255 845.828L75.5643 844.623C74.3641 835.62 80.9683 822.696 84.0274 814.235C77.1589 809.39 63.1874 801.942 59.3017 794.647L59.9663 793.037C68.2263 789.134 81.966 790.97 91.032 791.078C94.8995 781.278 96.4684 769.208 102.094 760.283Z"/>
	<path fill="#FFFEFE" d="M520.481 401.174C520.918 401.356 521.361 401.527 521.793 401.722C533.126 406.815 530.822 418.915 535.042 428.092C537.86 434.222 563.723 431.476 571.077 434.061L571.302 435.488C567.515 441.479 557.294 445.02 551.788 449.634C539.604 459.843 554.837 473.812 553.283 487.647C549.528 488.745 530.795 472.868 525.559 470.357C525.287 470.227 525.01 470.107 524.735 469.981C516.761 474.48 507.076 487.453 498.308 488.582L496.924 487.293C496.498 481.542 502.659 462.909 503.784 455.141C498.573 449.905 479.666 437.137 478.259 431.289C485.35 427.305 505.216 437.536 513.155 431.368C519.751 426.244 518.767 409.887 520.279 402.16L520.481 401.174Z"/>
	<path fill="#FFFEFE" d="M839.891 492.335L842.986 492.891C848.423 496.874 852.042 515.65 854.171 522.537C863.29 522.65 873.522 520.897 882.433 523.122C884.641 523.673 884.84 523.834 885.96 525.682C882.972 532.906 868.196 540.881 861.781 545.43C864.591 553.459 869.462 563.702 869.86 572.164C869.969 574.475 869.784 574.717 868.283 576.29C860.613 575.953 849.772 565.353 843.714 560.693C834.283 560.418 825.614 576.478 815.71 577.738L814.412 576.478C812.963 567.65 819.802 554.089 822.766 545.732C817.059 541.706 799.997 532.03 798.766 525.706L800.218 523.998C809.055 520.97 820.753 522.5 830.027 522.739C833.698 512.762 835.515 502.072 839.891 492.335Z"/>
	<path fill="#FFFEFE" d="M203.43 311.183C206.235 311.746 207.623 313.193 209.269 315.394C214.753 322.728 215.585 333.303 221.081 339.941C227.803 348.059 251.867 339.54 262.124 344.643L262.322 346.227C257.86 350.635 247.64 351.992 241.869 355.306C235.098 359.193 231.904 363.249 229.966 370.67L229.623 372.012C229.697 372.325 229.766 372.64 229.845 372.952C229.977 373.471 230.126 373.986 230.257 374.506C232.835 384.749 239.018 393.484 242.328 403.549C235.394 399.649 229.159 395.016 222.799 390.271C218.193 386.637 213.631 383.217 208.632 380.141C198.914 385.675 191.244 395.235 181.212 400.041C178.073 395.193 186.221 376.84 186.854 370.339C187.599 362.689 168.626 349.816 163.187 343.525C171.36 342.98 191.279 344.816 197.732 340.884C202.782 334.192 201.347 320.304 203.223 312.043C203.288 311.755 203.361 311.47 203.43 311.183Z"/>
	<path fill="#FFFEFE" d="M735.867 754.558C742.528 760.978 741.826 776.638 746.007 785.134C750.403 794.067 773.49 788.093 782.486 791.108C783.376 797.403 761.371 807.336 759.007 814.642C756.543 822.256 766.198 838.136 764.982 847.352L763.692 847.9C754.869 844.093 748.5 834.692 739.897 830.046C737.212 828.597 735.923 829.095 733.215 829.841C723.412 838.065 713.237 845.052 701.389 849.976C705.725 841.271 713.157 833.296 715.323 823.676C719.762 803.967 693.867 803.213 688.56 794.477C695.959 789.762 710.546 792.459 719.403 789.112C735.067 783.193 730.742 766.802 735.867 754.558Z"/>
	<path fill="#FFFEFE" d="M1267.11 514.301C1445.54 514.358 3148.3 516.471 3151.62 514.119C3152.19 515.473 3152.65 516.542 3152.84 518.015C3154.01 527.159 3154 635.615 3152.15 639.784C3151.99 640.142 3151.8 640.485 3151.62 640.836C3152.21 642.196 3152.67 643.538 3152.84 645.022C3153.92 654.049 3153.82 763.602 3152.35 767.685C3151.99 768.682 3151.73 768.987 3151.15 769.949C3152.04 771.467 3152.66 772.625 3152.82 774.416C3153.78 784.808 3154.14 885.089 3152.72 892.46C3152.45 893.843 3151.85 894.88 3151.15 896.078C3152.27 897.905 3152.76 899.179 3152.89 901.324C3153.65 913.936 3154.34 1018.63 3152.6 1024.78C3152.26 1025.97 3151.8 1026.85 3151.13 1027.87C3141.65 1029 3131.06 1028.13 3121.45 1028.12L3061.95 1028.03L2864.47 1028.01L2196.89 1027.85L4 1026.99L4 896.749L1264.13 897Q1265.58 833.382 1266.22 769.75C1265.91 757.419 1264.6 745.099 1264.2 732.758Q1263.38 709.517 1264.07 686.271Q1264.76 663.025 1266.95 639.873C1261.1 602.802 1262.02 551.577 1267.11 514.301Z"/>
	<path fill="#B22234" d="M1266.22 769.75L2654.89 769.863L3008.88 770.725L3106.46 770.771C3119.42 770.772 3138.96 772.41 3151.15 769.949C3152.04 771.467 3152.66 772.625 3152.82 774.416C3153.78 784.808 3154.14 885.089 3152.72 892.46C3152.45 893.843 3151.85 894.88 3151.15 896.078C3111.39 895.201 3071.4 897.272 3031.58 896.882Q2731.49 893.547 2431.39 895.907L1264.13 897Q1265.58 833.382 1266.22 769.75Z"/>
	<path fill="#FFFEFE" d="M1267.11 514.301C1445.54 514.358 3148.3 516.471 3151.62 514.119C3152.19 515.473 3152.65 516.542 3152.84 518.015C3154.01 527.159 3154 635.615 3152.15 639.784C3151.99 640.142 3151.8 640.485 3151.62 640.836C3152.21 642.196 3152.67 643.538 3152.84 645.022C3153.92 654.049 3153.82 763.602 3152.35 767.685C3151.99 768.682 3151.73 768.987 3151.15 769.949C3138.96 772.41 3119.42 770.772 3106.46 770.771L3008.88 770.725L2654.89 769.863L1266.22 769.75C1265.91 757.419 1264.6 745.099 1264.2 732.758Q1263.38 709.517 1264.07 686.271Q1264.76 663.025 1266.95 639.873C1261.1 602.802 1262.02 551.577 1267.11 514.301Z"/>
	<path fill="#B22234" d="M1267.11 514.301C1445.54 514.358 3148.3 516.471 3151.62 514.119C3152.19 515.473 3152.65 516.542 3152.84 518.015C3154.01 527.159 3154 635.615 3152.15 639.784C3151.99 640.142 3151.8 640.485 3151.62 640.836C3148.94 638.869 1421.32 639.237 1266.95 639.873C1261.1 602.802 1262.02 551.577 1267.11 514.301Z"/>
	<path fill="#FFFEFE" d="M4 1026.99L2196.89 1027.85L2864.47 1028.01L3061.95 1028.03L3121.45 1028.12C3131.06 1028.13 3141.65 1029 3151.13 1027.87C3152.04 1029.43 3152.66 1030.61 3152.82 1032.45C3153.71 1042.37 3154.01 1146.85 3152.45 1152.01C3152.22 1152.76 3151.99 1153.14 3151.62 1153.88C3152.19 1155.32 3152.65 1156.47 3152.84 1158.01C3153.94 1167.02 3153.86 1276.78 3152.15 1281.01C3151.99 1281.4 3151.8 1281.78 3151.62 1282.16C3153.9 1287.53 3154.1 1402.26 3152.26 1407.08C3151.95 1407.91 3151.64 1408.28 3151.15 1409.06C3138.48 1406.92 3112.99 1408.9 3098.9 1408.96L2983.47 1409.07L2506.18 1410.09L768.324 1410.08L240.517 1408.96C203.683 1408.87 166.737 1408.11 129.92 1408.88C88.2264 1409.76 45.515 1412.88 4 1407.93L4 1282.09L4 1152L4 1026.99Z"/>
	<path fill="#B22234" d="M4 1026.99L2196.89 1027.85L2864.47 1028.01L3061.95 1028.03L3121.45 1028.12C3131.06 1028.13 3141.65 1029 3151.13 1027.87C3152.04 1029.43 3152.66 1030.61 3152.82 1032.45C3153.71 1042.37 3154.01 1146.85 3152.45 1152.01C3152.22 1152.76 3151.99 1153.14 3151.62 1153.88C3148.97 1152.03 305.19 1152.04 4 1152L4 1026.99Z"/>
	<path fill="#B22234" d="M4 1282.09L2076.17 1282.57L2789.26 1282.91L3026.74 1282.99C3066.31 1283 3105.96 1283.54 3145.52 1283C3147.25 1282.97 3150.26 1283.18 3151.62 1282.16C3153.9 1287.53 3154.1 1402.26 3152.26 1407.08C3151.95 1407.91 3151.64 1408.28 3151.15 1409.06C3138.48 1406.92 3112.99 1408.9 3098.9 1408.96L2983.47 1409.07L2506.18 1410.09L768.324 1410.08L240.517 1408.96C203.683 1408.87 166.737 1408.11 129.92 1408.88C88.2264 1409.76 45.515 1412.88 4 1407.93L4 1282.09Z"/>
</svg>
