<?xml version="1.0" standalone="no"?>
<!DOCTYPE svg PUBLIC "-//W3C//DTD SVG 20010904//EN"
 "http://www.w3.org/TR/2001/REC-SVG-20010904/DTD/svg10.dtd">
<svg version="1.0" xmlns="http://www.w3.org/2000/svg"
 width="194.000000pt" height="194.000000pt" viewBox="0 0 194.000000 194.000000"
 preserveAspectRatio="xMidYMid meet">
<metadata>
Created by potrace 1.14, written by Peter Selinger 2001-2017
</metadata>
<g transform="translate(0.000000,194.000000) scale(0.100000,-0.100000)"
fill="#000000" stroke="none">
<path d="M728 1742 c-78 -21 -85 -26 -68 -47 16 -20 6 -31 -40 -42 -57 -15
-49 -35 33 -87 76 -47 123 -89 82 -72 -105 44 -206 49 -237 13 -23 -26 -23
-29 5 -59 64 -71 62 -67 18 -55 -59 16 -116 -4 -130 -45 -6 -17 -11 -32 -11
-33 0 -1 9 -12 20 -24 16 -20 34 -24 126 -32 116 -9 153 -27 89 -42 -21 -6
-35 -15 -35 -24 0 -18 47 -66 74 -76 11 -4 17 -10 14 -12 -7 -8 -118 36 -118
46 0 5 -8 9 -19 9 -10 0 -24 7 -31 15 -7 8 -18 15 -25 15 -8 0 -15 6 -18 13
-2 8 -23 -3 -59 -30 -30 -24 -58 -43 -61 -43 -12 0 -107 -62 -107 -69 0 -12
48 -31 78 -32 38 -1 95 -23 100 -39 3 -8 0 -10 -7 -5 -7 4 -37 7 -67 8 -65 0
-97 -21 -74 -48 7 -8 15 -13 18 -11 6 7 82 -33 82 -43 0 -5 -15 -12 -32 -15
l-33 -7 35 -29 35 -29 -40 -2 c-22 -1 -44 -3 -50 -4 -5 -2 -16 -3 -22 -4 -7 0
-13 -7 -13 -15 0 -12 97 -66 120 -66 6 0 10 -2 10 -5 0 -12 -44 -65 -54 -65
-16 0 -47 -71 -48 -110 -1 -24 6 -39 23 -53 26 -21 29 -31 18 -63 -15 -44 34
-59 79 -24 27 22 40 17 47 -19 5 -29 23 -51 41 -51 20 0 84 42 118 78 19 21
27 37 23 51 -3 12 -2 21 1 21 10 0 39 -20 30 -20 -4 0 12 -20 36 -45 29 -30
53 -45 69 -45 28 0 34 11 32 56 -1 30 1 31 25 22 40 -16 84 -15 97 2 9 10 11
38 6 93 -7 93 1 97 61 31 47 -53 83 -74 124 -74 35 0 63 34 53 65 -12 38 -7
80 9 76 8 -2 23 -4 33 -5 9 0 17 -4 17 -9 0 -4 4 -6 9 -2 5 3 12 1 15 -4 4 -5
14 -8 24 -6 9 2 22 4 29 4 6 1 14 14 18 30 5 26 11 29 56 33 28 3 58 13 67 22
25 25 19 123 -12 225 -14 47 -26 94 -26 105 1 19 2 19 23 -6 12 -15 30 -49 40
-75 40 -103 50 -121 70 -127 20 -5 56 8 58 22 0 4 2 26 4 49 2 22 6 50 9 61 9
28 -9 103 -43 173 -32 67 -24 85 20 43 25 -24 31 -26 39 -14 20 33 0 115 -60
240 -33 69 -60 130 -60 135 -1 16 -92 79 -120 83 -14 2 -74 24 -135 49 -173
71 -220 83 -335 88 -82 4 -120 1 -172 -13z m96 -377 c59 -20 113 -44 101 -45
-7 0 -6 -3 0 -8 12 -8 39 -64 37 -74 -1 -5 2 -8 7 -8 5 0 13 -10 17 -22 3 -13
15 -35 25 -50 11 -14 19 -29 19 -33 0 -15 -72 41 -160 125 -14 14 -54 51 -87
83 -57 53 -59 57 -32 52 16 -3 49 -12 73 -20z m-189 -371 c29 -14 43 -29 62
-72 29 -66 35 -126 13 -127 -30 -2 -160 98 -196 150 -26 38 -25 54 5 70 27 14
54 9 116 -21z m-7 -216 c13 -13 30 -34 37 -48 18 -34 31 -144 17 -139 -26 10
-146 126 -157 153 -11 26 -11 34 2 48 20 22 69 15 101 -14z m-73 -178 c8 -12
-15 -119 -27 -126 -9 -6 -52 39 -74 79 -14 26 -14 28 12 37 14 6 29 8 33 6 4
-3 13 -1 21 5 19 11 27 11 35 -1z"/>
</g>
</svg>
